<?xml version="1.0" encoding="utf-8"?>
<!-- Generator: Adobe Illustrator 18.1.1, SVG Export Plug-In . SVG Version: 6.00 Build 0)  -->
<svg version="1.1" id="Capa_1" xmlns="http://www.w3.org/2000/svg" xmlns:xlink="http://www.w3.org/1999/xlink" x="0px" y="0px"
	 viewBox="0 0 446.5 381" enable-background="new 0 0 446.5 381" xml:space="preserve">
<rect x="0" y="0" fill="none" width="446.5" height="381"/>
<g>
	<path fill="#FFFFFF" d="M75.2,221c-1.7,0-3.3-0.3-4.7-0.7c-1.5-0.5-2.7-1.1-3.7-1.9c-1-0.8-1.7-1.6-2.3-2.5
		c-0.5-0.9-0.9-1.7-0.9-2.4s0.2-1.5,0.7-2.5c0.4-1,1-1.9,1.5-2.7c0.7-0.9,1.2-1.5,1.9-2.1c0.6-0.5,1.1-0.9,1.5-0.9
		c0.5,0,0.7,0.1,0.8,0.5c0.2,0.3,0.2,0.7,0.3,1.2c0.1,0.4,0.1,0.8,0.2,1.3c0.1,0.5,0.4,0.8,0.8,1.1c1.1,0.6,2.3,1.1,3.7,1.4
		c1.5,0.4,3.9,0.5,7.3,0.5c4.3,0,8.4-0.7,12.3-2c3.9-1.4,7.2-3.3,10.1-5.5c2.9-2.3,5.1-5,6.8-8.2c1.6-3.1,2.4-6.5,2.4-10.1
		c0-4.9-1.5-8.8-4.6-11.7c-3.1-2.9-7.2-5.4-12.2-7.2c-5.1-1.7-10.8-3.3-17.3-4.5c-6.5-1-13.1-2.3-19.8-3.7s-13.3-3.1-19.7-5.3
		c-6.5-2.1-12.3-5-17.3-8.7c-5.1-3.7-9.2-8.4-12.2-14.2c-3-5.7-4.6-13-4.6-21.7c0-9.8,2-19,6-27.8c4-8.9,9.3-17,16.1-24.7
		c6.7-7.5,14.4-14.3,23.1-20.4c8.7-6,17.7-11.2,27.2-15.5c9.4-4.2,19-7.5,28.6-9.8c9.6-2.4,18.5-3.5,26.9-3.5
		c13.4,0,23.6,2.4,30.7,7.2c7.1,4.8,10.6,11.9,10.6,21.3c0,4.2-1,8.3-3,12.2c-2,3.9-4.2,7.3-6.7,10.4c-2.4,3.1-4.8,5.7-7,7.7
		c-2.2,2-3.6,3.3-4.1,3.7l-0.8-1.2c0.1-0.1,0.9-1,2.5-2.8c1.6-1.6,3.3-3.8,5.1-6.5c1.8-2.6,3.4-5.5,5-8.8c1.5-3.2,2.3-6.5,2.3-9.8
		c0-7.7-3.2-13.4-9.5-17.2c-6.4-3.7-15.6-5.5-27.6-5.5c-12.5,0-24.1,1.5-34.9,4.3c-10.7,3-20.6,6.9-29.6,11.8
		c-9,4.8-16.9,10.4-23.8,16.8c-7,6.3-12.9,12.9-17.6,19.5c-4.8,6.7-8.5,13.4-10.9,20.1c-2.5,6.6-3.8,12.7-3.8,18.1
		c0,7.4,1.6,13.4,4.6,18.1c3.1,4.7,7.3,8.5,12.3,11.5c5.1,2.9,10.9,5.3,17.4,6.9c6.4,1.7,13.1,3.1,19.9,4.3c6.8,1.2,13.4,2.5,20,3.7
		c6.5,1.3,12.3,3.1,17.4,5.3c5.1,2.2,9.2,5.2,12.3,8.8c3.1,3.6,4.7,8.4,4.7,14.4c0,5.5-0.9,10.2-2.6,14.3c-1.7,4.1-4,7.6-6.8,10.5
		c-2.7,2.9-5.8,5.4-9.1,7.3c-3.3,1.9-6.7,3.4-10,4.6c-3.3,1.1-6.4,1.9-9.1,2.4C79,220.7,76.9,221,75.2,221z"/>
	<path fill="#FFFFFF" d="M150.6,124.9c0.4,0,0.6,0.9,0.5,2.7c-0.2,1.8-0.4,4.2-0.7,7.1c-0.3,2.9-0.7,6.1-1.1,9.6
		c-0.4,3.5-0.6,6.9-0.6,10.2c0,6.7,0.1,12.9,0.2,18.8c0.1,5.9,0.4,11.6,0.6,17.1c3.2-5.1,6.4-10,9.6-14.2c3.3-4.3,6.5-7.9,9.8-10.9
		c3.3-3,6.6-5.4,9.9-7c3.3-1.7,6.6-2.5,9.9-2.5c2.7,0,4.9,0.8,6.7,2.2c1.8,1.5,2.7,4,2.7,7.8c0,2.7-0.6,5.4-1.6,8
		c-1.1,2.7-2.5,5.5-4.4,8.2c-1.8,2.7-3.9,5.3-6.3,7.8c-2.3,2.6-4.6,5-7,7.2c-5.7,5.3-12,10.4-19.1,15.5l-1.5-1.7
		c5.6-4.8,10.6-9.6,15-14.2c1.9-2,3.8-4.1,5.5-6.2c1.8-2.1,3.4-4.2,4.8-6.4c1.4-2.1,2.6-4.1,3.5-6.1c0.9-1.9,1.4-3.7,1.4-5.4
		c0-0.6-0.1-1.3-0.2-2.3c-0.2-0.9-0.5-1.9-1.1-2.8c-0.6-0.9-1.4-1.6-2.5-2.2c-1.1-0.7-2.5-1-4.4-1c-2.2,0-4.5,0.7-6.9,2.3
		c-2.4,1.5-5,3.6-7.6,6.4c-2.6,2.8-5.3,6.3-7.9,10.2c-2.7,4.1-5.4,8.6-8,13.4c0.3,6.8,0.8,13.4,1.3,19.7c0.4,6.4,0.9,12.7,1.3,19
		c0.4,6.2,0.7,12.6,1,19.3c0.3,6.4,0.3,13.3,0.3,20.5c0,16.6-0.9,31.2-2.8,43.6c-1.8,12.5-4.2,22.9-7.1,31.3
		c-2.8,8.4-6.1,14.7-9.8,18.9c-3.6,4.1-7.3,6.3-10.8,6.3c-2.1,0-4.2-0.8-6.2-2.5c-2-1.7-3.8-4.2-5.4-7.5c-1.5-3.2-2.8-7.2-3.8-12
		c-1-4.7-1.5-10.2-1.5-16.3c0-9,0.8-19,2.6-29.9c1.7-11,4.1-22.3,7.2-33.7c3.1-11.5,6.7-23,10.8-34.3c4.2-11.4,8.6-22.1,13.5-32
		v-14.2c0-11.2,0.4-20.9,1.3-29.4c0.9-8.4,1.9-15.5,3-21.3c1.1-5.7,2.2-10.1,3.3-12.9C149.5,126.2,150.2,124.9,150.6,124.9z
		 M143.9,280.9c0-8.3-0.1-15.2-0.4-20.9c-0.2-5.7-0.5-10.7-0.8-15.4c-0.3-4.6-0.7-9.1-1-13.6c-0.3-4.6-0.6-9.9-0.8-16.1
		c-3.6,8-6.9,16.9-10.1,26.2c-3.1,9.4-5.8,18.9-8.2,28.8c-2.4,9.9-4.3,20-5.7,30.1c-1.3,10.1-2.1,20.1-2.1,29.6
		c0,3.7,0.2,7.8,0.6,12.4c0.3,4.5,1,8.7,2,12.7c1,4,2.3,7.3,3.8,10c1.6,2.7,3.6,4.1,6,4.1c1.9,0,3.7-1.2,5.3-3.6
		c1.6-2.3,3-5.5,4.2-9.8c1.3-4.2,2.3-9,3.2-14.7c0.9-5.6,1.6-11.7,2.2-18.3c0.6-6.5,1-13.3,1.3-20.4
		C143.8,295,143.9,287.9,143.9,280.9z"/>
	<path fill="#FFFFFF" d="M262.5,179.7c-0.1,0.7-0.9,2.4-2.2,5.3c-1.2,2.9-3,6-5.2,9.2c-2.2,3.2-4.9,6.2-8,8.8
		c-3,2.6-6.5,3.9-10.4,3.9c-4.9,0-9.5-1.9-13.6-5.8c-4.1-3.8-7.5-9.2-10.5-16.2c-2.9-7.1-5.1-15.7-6.6-25.7
		c-1.5-10-2.4-21.2-2.4-33.6c0-6.8,0.3-14,0.7-21.5c0.5-7.6,1.2-15,2.3-22.2c1.1-7.3,2.3-14.2,3.9-20.9c1.5-6.6,3.4-12.5,5.6-17.5
		c2.2-5,4.7-9,7.6-12c2.9-2.9,6.1-4.5,9.6-4.5c5.2,0,9,3.2,11.4,9.6c2.4,6.4,3.6,16.2,3.6,29.4c0,7.8-0.6,16.5-1.7,26
		c-1.1,9.6-3,19.4-5.8,29.5c-3.6,12.7-7.4,23.5-11.3,32.4c-4,9-7.3,16.1-10,21.3c1.1,3.7,2.2,7.1,3.4,10c1.3,3.1,2.8,5.7,4.4,7.9
		c1.5,2.2,3.3,4,5.2,5.2c1.9,1.2,4,1.8,6.3,1.8c2.9,0,5.5-0.8,7.9-2.5c2.4-1.7,4.7-3.7,6.6-6c1.9-2.2,3.5-4.6,5-6.9
		c1.4-2.3,2.5-4.2,3.3-5.6L262.5,179.7z M212.3,115.7c0,4,0.1,8.3,0.3,12.9c0.3,4.6,0.6,9.2,1.1,14c0.5,4.7,1.1,9.4,1.8,14.2
		c0.7,4.7,1.6,9.3,2.6,13.5c2-4.1,4.4-9.4,7-15.9c2.8-6.5,5.3-13.9,7.8-22c2.6-8.2,4.7-17.1,6.4-26.6c1.7-9.6,2.6-19.5,2.6-29.7
		c0-6.5-0.2-12.3-0.8-17.7c-0.4-5.4-1.2-10-2.3-13.8c-1-3.8-2.4-6.8-3.9-8.9c-1.6-2.1-3.4-3.2-5.5-3.2c-2,0-3.8,1.4-5.4,4.2
		c-1.6,2.8-3,6.5-4.4,11c-1.3,4.5-2.4,9.7-3.3,15.6c-0.9,5.8-1.7,11.8-2.3,18c-0.6,6.1-1,12.2-1.4,18.2
		C212.4,105.6,212.3,111,212.3,115.7z"/>
	<path fill="#FFFFFF" d="M306.8,161.4c-0.9,0-1.7-0.5-2.4-1.5c-0.7-1-1.6-2-2.8-3.2c-1.1-1.2-2.6-2.2-4.3-3.2c-1.8-1-4-1.5-6.9-1.5
		c-4,0-7.6,1-11.1,3.1c-3.3,2-6.2,4.6-8.7,7.7c-2.5,3-4.3,6.4-5.7,10c-1.4,3.7-2.1,7.1-2.1,10.3c0,5,1.2,9.2,3.8,12.4
		c2.6,3.2,6,4.8,10.2,4.8c3.3,0,6.2-0.7,8.7-1.9c2.5-1.2,4.6-2.9,6.3-5c-0.6-2.5-0.9-5.8-0.9-9.5c0-4.1,0.3-7.4,1-9.9
		c0.6-2.5,1.3-4.6,2.2-6c1-1.4,1.9-2.4,2.8-2.8c1-0.6,1.8-0.8,2.4-0.8c0.8,0,1.6,0.6,2.6,1.5c1,1.1,1.5,2.8,1.5,5.6
		c0,3.2-0.6,6.7-1.8,10.3c-1.1,3.7-2.9,7.1-4.8,10.4c1,2.9,2.9,5.1,5.2,6.4c2.4,1.3,5,2,8,2c2.7,0,5.1-0.6,7.5-1.8
		c2.4-1.1,4.4-2.8,6.5-4.7c2.1-2,4-4.3,5.7-6.9c1.8-2.5,3.5-5.3,4.9-8l0.9,0.6c-1.1,3.6-2.6,7.1-4.5,10.5c-1.9,3.3-4.1,6.4-6.6,9
		c-2.4,2.7-5.1,4.7-7.9,6.3c-2.9,1.6-6,2.4-9,2.4c-2.4,0-5-0.8-7.7-2.4c-2.8-1.5-5.1-4.3-6.8-8.4c-2.9,3.5-6.4,6.5-10.1,8.7
		c-3.7,2.3-7.8,3.5-12.2,3.5c-2.4,0-4.6-0.7-6.7-1.7c-2-1.2-3.6-2.6-5-4.6c-1.4-1.9-2.4-4.1-3.2-6.7c-0.7-2.5-1.1-5.2-1.1-8.1
		c0-4.9,1.1-9.6,3.2-14.4c2.1-4.9,4.8-9.2,8.4-13c3.5-3.9,7.6-7.1,12.2-9.5c4.6-2.4,9.4-3.6,14.5-3.6c3.7,0,6.8,0.4,9.3,1.2
		c2.4,0.8,4.5,1.8,6,2.8c1.5,1.1,2.5,2.2,3.2,3.3c0.7,1.2,1,2.1,1,2.8c0,1.3-0.7,2.2-2.1,2.8C309.2,161.2,307.8,161.4,306.8,161.4z
		 M294.8,180.3c0,3.1,0.3,5.9,0.9,8.1c1.4-2.6,2.4-5.4,3.1-8.2c0.7-2.8,1-5.2,1-7.2c0-2.4-0.4-3.5-1.2-3.5c-0.9,0-1.7,1-2.5,3.1
		C295.3,174.7,294.8,177.2,294.8,180.3z"/>
	<path fill="#FFFFFF" d="M326.4,193.3c3.4-5.1,6.1-10.3,8.7-15.7c2.6-5.4,4.7-10.6,6.4-15.7c-2.3-3.2-4.2-6.5-5.7-9.8
		c-1.5-3.4-2.3-6.8-2.3-10.4s0.3-6.7,1-9.6c0.7-2.8,1.5-5.2,2.6-7.2c1.2-2,2.5-3.5,4-4.6c1.2-1.1,2.7-1.6,4.3-1.6c2.1,0,3.7,1,5.1,3
		c1.2,2.1,1.8,4.8,1.6,8c-0.1,3.8-0.7,7.9-1.5,12.2c-0.7,4.4-1.8,8.9-3.4,13.4c1.8,2.2,3.8,4.3,5.9,6.4c2,2.2,3.9,4.4,5.5,6.5
		c1.7,2.3,3,4.7,4.2,7.3c1,2.6,1.6,5.5,1.6,8.5c0,4.1-0.8,8-2.4,11.5c-1.7,3.5-3.5,6.5-5.7,9.1c-2.2,2.6-4.4,4.6-6.8,5.9
		c-2.4,1.5-4.5,2.1-6.2,2.1c-2.9,0-5.1-0.7-6.7-2.2s-2.4-3.2-2.4-5c0-1.5,0.2-2.9,0.7-4.2c0.4-1.5,1-2.8,1.6-4
		c0.6-1.1,1.3-2.1,1.8-2.9c0.6-0.7,1.1-1.1,1.3-1.1c0.5,0,0.8,0.2,0.9,0.5c0.1,0.3,0.4,0.6,0.4,1c0,0.4-0.2,1.1-0.3,1.9
		c-0.1,0.8-0.1,1.6-0.1,2.1c0,1.6,0.7,2.9,1.6,4c1.2,1,2.9,1.5,5.4,1.5c1,0,2.1-0.3,3.5-0.7c1.3-0.5,2.6-1.2,3.8-2.3
		c1.2-1.1,2.2-2.3,3-3.9c0.9-1.5,1.2-3.4,1.2-5.5c0-2.1-0.5-4.1-1.5-6.3c-0.9-2.2-2.1-4.4-3.7-6.7c-1.5-2.3-3.2-4.6-5.1-6.9
		c-1.8-2.4-3.6-4.8-5.4-7.2c-2.1,5.4-4.6,10.7-7.1,15.7c-2.6,5-5.4,9.7-8.3,13.9L326.4,193.3z M337.2,134.4c0,3.5,0.7,6.8,2,9.6
		c1.3,2.8,3.1,5.5,5.3,8.2c0.7-2.9,1.2-5.7,1.5-8.4c0.3-2.7,0.4-5.3,0.4-7.8c0-6.6-1.5-10-4.4-10c-0.8,0-1.8,0.7-3,2
		C338,129.2,337.2,131.3,337.2,134.4z"/>
	<path fill="#FFFFFF" d="M380.8,189c0-2.5,0.1-6.5,0.4-12.1c0.4-5.4,0.7-12.5,1.1-21c0.3-8.5,0.7-18.4,1-29.7
		c0.2-11.4,0.4-24.1,0.4-38.1c0-7,0-13.6-0.1-20c-0.1-6.4-0.1-12.1-0.2-17c-0.1-5-0.1-9-0.2-12.1c-0.1-3.1-0.1-4.8-0.1-5.1
		c0-0.7,0.1-1.4,0.3-1.9c0.3-0.6,0.7-1.1,1.5-1.5c0.6-0.3,1.2-0.7,2.1-1.2c0.8-0.5,1.6-0.8,2.4-0.8c1.2,0,1.9,0.3,2.5,0.8
		c0.6,0.4,1,1.3,1.3,2.6c0.4,1.2,0.6,3.5,0.7,6.5c0.3,3.1,0.4,7.3,0.4,12.8c0.1,5.4,0.1,12.5,0.1,21.1c0,7.9-0.1,16.1-0.5,24.7
		c-0.4,8.5-0.8,16.9-1.4,25.1c-0.5,8.2-1,16.1-1.7,23.7c-0.6,7.6-1.1,14.4-1.7,20.5c-0.5,6-1,11.1-1.3,15.1
		c-0.4,4.1-0.6,6.6-0.6,7.8c0,0.5,0,1,0,1.7c0,0.7,0,1.3,0.2,1.9c0.1,0.7,0.1,1.1,0.4,1.5c0.1,0.5,0.4,0.7,0.8,0.7c1,0,2-1.5,3-4.6
		c1.1-3.1,2.4-7.2,4-12.2c1-3.2,2.2-6.5,3.5-9.8c1.4-3.3,2.7-6.3,4.3-9c1.4-2.6,2.9-4.9,4.6-6.6c1.5-1.7,3.1-2.5,4.6-2.5
		c1.2,0,2.1,0.3,2.9,0.9c0.8,0.7,1.5,1.5,2.1,2.5c0.6,1,1,2.1,1.2,3.2c0.4,1.1,0.6,2.2,0.7,3.2c0.1,1.1,0.3,2.9,0.4,5.1
		c0.1,2.2,0.4,4.8,0.6,7.8c0.2,3,0.4,6,0.7,9.3c0.1,3.2,0.4,6.3,0.7,9.1c0.4,5.4,1.7,9.2,3.8,11.6c1.9,2.3,4.7,3.5,8.1,3.5
		c1.2,0,2.4,0,3.1-0.3c0.7-0.2,1.5-0.3,2.1-0.3c0.4,0,0.5,0.6,0.3,1.4c-0.1,0.4-1,1-2.4,2c-1.4,0.8-4,1.3-7.5,1.3
		c-3,0-5.6-0.5-7.6-1.5c-2.1-1-3.7-2.5-4.8-4.6c-1.2-2.1-2.1-4.9-2.6-8.4c-0.7-3.4-1.1-7.6-1.3-12.5c-0.1-2.6-0.4-5.5-0.5-8.6
		c-0.1-2.9-0.3-5.6-0.7-8c-0.3-2.5-0.7-4.6-1.4-6.1c-0.5-1.5-1.2-2.3-2.4-2.3c-0.8,0-1.7,1-2.8,2.9c-1,1.9-2.1,4.2-3.1,6.8
		c-0.9,2.6-1.8,5.2-2.7,7.8c-0.8,2.6-1.5,4.6-2,6c-0.4,1.1-1,3-1.7,5.6c-0.8,2.7-1.6,5.4-2.7,8.1c-1,2.8-2.2,5.2-3.3,7.3
		c-1.3,2.1-2.6,3.1-4,3.1c-1,0-2-0.6-2.6-1.9c-0.7-1.2-1.2-2.8-1.5-4.6c-0.4-1.9-0.6-3.7-0.7-5.7C380.9,192,380.8,190.3,380.8,189z"
		/>
</g>
</svg>
