<?xml version="1.0" encoding="utf-8"?>
<!-- Generator: Adobe Illustrator 18.1.1, SVG Export Plug-In . SVG Version: 6.00 Build 0)  -->
<svg version="1.1" id="Capa_1" xmlns="http://www.w3.org/2000/svg" xmlns:xlink="http://www.w3.org/1999/xlink" x="0px" y="0px"
	 viewBox="0 106.1 600 494" enable-background="new 0 106.1 600 494" xml:space="preserve">
<rect y="106.1" fill="none" width="600" height="493.9"/>
<path fill="#821518" d="M402.7,547.8c-1.4-0.1-0.5-0.5-0.9-0.9c-0.3-0.4,0.1-1.4,0.6-1.5c0.2-0.1,1-0.3,1.7-0.5L388,473.6h-21.1
	l-7.5,32.8c0.5,1.1,1.1,1.1,1.7,1.5c0.6,0.4,2.2,1.1,1.6,1.5c-0.6,0.4-0.8-0.4-1.5,0.5c-0.7,0.9-0.6,0.8-0.9,1.7s1.7,2.2-1,1.1
	c-0.6-0.2-1-0.3-1.3-0.4l-9.9,43.2h16.2l1.8-10.1l-1.9-0.1c-0.5,0-2.6-0.6-2.6-0.6l-2.3-1.8c0,0-0.2-0.4,0.7-0.3
	c0.9,0.2,1.5-0.3,1.9,0.5c0.3,0.9,0.5,1.1,0.9,1.1s0.5,0.2,0.5-0.1s0.3-1,0.3-1s1.9-0.4,2.9-0.4l1.3-7.5h3.4c0.1-1,0.2-2.2,0.2-2.2
	l1.1-0.5c0,0-0.2,0.4,0.3,1.4c0.2,0.4,0.4,0.8,0.5,1.2h12l4.6,20.3h16.4l-1.7-7.6C404.2,547.8,403.4,547.8,402.7,547.8z
	 M390.2,517.8c0.1,0.9,0.2,1.5,0.2,1.5s1.8,1.6,1,2.1c-0.7,0.5-0.5,0.9-0.7,0.5c-0.3-0.4-0.3-1-0.3-1c-0.1-0.1-1.6,0-1-1.4
	C389.9,518,390.1,516.8,390.2,517.8z M387.2,492.2c0.8-0.1,2.4-1.1,2.3-0.5c-0.1,0.6-0.2,0.4-0.3,0.9c-0.2,0.5-1.3,0.5-1.3,0.5
	C387.6,493.2,386.4,492.3,387.2,492.2z M388,516.2c-0.9,0.2-1.7-0.4-1.7-0.4l-0.2-0.5c-0.4-0.9-0.4-2.1,0.4-1.9
	c0.7,0.2,0.1-0.1,0.8,1.1C387.9,515.7,389,516,388,516.2z M384.2,499.8l3.5,1.4h-2.3l-1.2,0.5C383.3,500.5,384.2,499.8,384.2,499.8z
	 M382.6,490c-0.1,1.4,0.2,2.2,0.2,2.2L382,493l-0.2-0.9c-0.2-0.6-0.9-1.9-0.6-2.3C381.6,489.5,382.7,488.5,382.6,490z M381.6,484.2
	c0.7,1.1,0.7,1.6,0.6,2.2c-0.1,0.6-1.2,1-1.2,1l-1.2-1.3c-0.1-0.3,0.5-1.3,0.5-1.3S381,483.2,381.6,484.2z M377.8,478.7
	c0.5-0.1,1.3,0.2,1.9,0s1.3-0.4,0.7,0.3c-0.6,0.7-0.8,1.1-0.9,1.1s-0.7,0-0.7,0C377.8,479.5,377.2,478.8,377.8,478.7z M373.7,476
	c1-0.1,2-0.2,2,0c0.1,0.2,0.3,1-0.3,1c-0.5,0-0.8-0.2-0.9,0s-0.7,0.4-0.7,0.4C373.7,477.2,372.6,476,373.7,476z M371.3,485.3
	c0.2-0.4,1-0.7,1-0.7l0.7,1.3v1.4l-0.7-0.2C371.9,487,371.1,485.8,371.3,485.3z M370.5,493.2c1.2-1.3,2.4-1.9,3-2.1s2.1-2.3,1.6-0.5
	s-0.6,1.3-0.9,2s0.1,1-0.7,1c-0.8,0.1-1.3,0.2-1.3,0.2C371.2,493.7,369.3,494.5,370.5,493.2z M362.6,532.8c-0.8,0.4-1.4,0-1.4,0
	c-0.3-0.5-0.9-2.2,0.3-1.9c1.1,0.3,2.5,0,2.5,0S363.4,532.5,362.6,532.8z M366.2,493.8c0.1-0.4,0.7-1.3,0.7-1.3s0.3,0.5,0.8,1.4
	c0.5,0.8,1.2,1.7,0.9,2c-0.3,0.3,0,0-1,0.2s-1.6,1-1.6,1l-1.2-1.7C364.9,495.5,366.2,494.3,366.2,493.8z M367.1,531
	c-0.2,0-1-0.2-0.8-0.2c1.1,0.2-1.8-0.8-1.2-1.4c0.7-0.6,0.8-0.4,0.8-0.4l0.7,0.9C366.7,530,367.3,531,367.1,531z M368.4,513.7
	l-0.3,1.4l-0.7-0.5l-0.3-0.9c0.3-0.7,1.6-1.4,1.6-1.4L368.4,513.7z M369.8,510.2c-0.7-0.3-1.9-1-1.1-1.3c0.7-0.3,0.5-0.8,1.6-0.4
	c1.1,0.4,1.1-0.3,1.2,0.8c0.1,1,1,1.8,0,1.7C370.4,510.8,369.8,510.2,369.8,510.2z M373.2,529.5c-0.9,0-1.1-1-1.1-1
	c-0.9-0.1-1.6-0.9-0.9-1c0.7-0.1,0.5,0.2,1.1,0.6C373.1,528.5,374,529.5,373.2,529.5z M375,525.8c0.3,1.2,0.6,1.4,0.6,1.9
	s-0.6-0.5-0.6-0.5c-0.9-1.2-1-1.3-0.8-1.8c0.2-0.3,0.8-0.7,1.1-0.9c0.2-0.1,0.3-0.2,0.3-0.2s-0.1,0.1-0.3,0.2
	C375.1,524.8,374.8,525.2,375,525.8z M379.7,527c-0.4,0-1.1,0-1.1,0c-1.4-0.8-2.5-0.1-1.6-1.1c0.9-0.9,1.2-1.2,1.2-1.2
	s1-1.1,1.9-0.7c0.9,0.5-0.1,0.4,0.3,1.6C380.8,527,380.1,527,379.7,527z M370.8,523L377,489l6.2,33.8L370.8,523z M382.8,506.2
	c-0.1-0.3-0.2-1.1-0.2-1.1c-0.5-0.8-0.5-2.4,0-2.4s-0.2,1.1,1.4,0.8s2.2-1.7,2.7-0.7s0,2.1-0.9,2.4s-1,0.1-1.5,0.6
	C383.7,506.2,382.9,506.5,382.8,506.2z M386.6,528c-1.1-0.2-2.8-0.7-1.3-1.2s1.5-0.8,1.8-0.3s0.4,0.1,1.4,0.9
	c1.1,0.7,3.6,1.4,1.2,1.4C387.3,528.8,386.6,528,386.6,528z M388.9,531.8c2.6-0.4,3.5-1.2,3.1-0.5c-0.4,0.8-0.9,0.6-0.9,1.5
	c0,0.8-0.8,0.3-0.8,0.3C389,532.5,386.3,532.2,388.9,531.8z M392.7,547c-0.6,0.8-1.3,0.8-1.3,0.8l-1.2-1c-0.1-0.3-0.3-1.4-0.3-1.4
	s0.9-3.3,1.1-3.3s1.8-0.7,1,0.7c-0.7,1.5-1.7,1.3-1,2.3C391.8,546.2,393.3,546.2,392.7,547z M395.1,518.2c-0.1,1.1-0.4,1-0.6,1.3
	s-0.8,0.8-0.8,0.8c-0.8-0.7-0.7-1.4-0.9-2c-0.2-0.7-1.1-0.3-0.7-1.4c0.5-1.1,0.7-1.8,1.4-1.4c0.7,0.4,0.1-0.7,0.6,0.8
	S395.3,517,395.1,518.2z M398.6,548.7c-0.1,0.7-1.5,0-1.5,0c-0.5-0.3-1.7-0.8-0.3-1.3c1.4-0.5,2.4-1.8,2.4-0.6
	C399.2,548,398.7,548,398.6,548.7z M401,536.8c0.7,0,0.4,0.4,0.8,1.1s1,1.2,0.3,1.2s-1.5-0.5-1.5-0.5l0.4-0.8
	C400.6,537.3,400.3,536.8,401,536.8z"/>
<path fill="#FFFFFF" d="M304.7,541.5v-7c-0.2,0-0.4,0.1-0.6,0.1c-0.6,0.1-0.5-0.2-0.5-0.6c0.1-0.4,0.3-0.5,0.2-1.6
	c-0.1-0.9,0.1-0.7,0.9-0.8v-11.8h0.1c0-0.3,0.2-0.7,0.4-0.9c0.4-0.5,0.2-0.2-0.1-0.4c-0.3-0.2-0.9-0.4-0.6-0.8
	c0.3-0.5,0.2-0.1,1.8-0.1c1.6,0,0.4,0.1,1,0.7c0.6,0.5-0.4,0.8-0.4,0.8s-0.8,0.5-1.1,0.8H325c-0.2-0.3-0.4-0.6-0.6-0.7
	c-0.4-0.2-0.4-0.8-0.4-0.8s0.4-0.9,1-0.6s0.5,0.9,1.2,1.5c0.2,0.2,0.4,0.4,0.5,0.6h2.7v-12.9h-24.6v-11.3l-0.4,0.5l-1.6,0.3
	c0,0-0.3-0.6,0-1.6s1.2-1.2,1.5-1.5c0.1-0.1,0.3-0.2,0.5-0.3v-4.3h26.5v-13.5h-1.9c0,0.6-0.1,0.9-0.3,1.9s-0.4,0.6-0.9,1
	c-0.4,0.4-0.9,0.7-2.1,1.2s-1.3,0.3-2.9,0.4c-1.6,0.1-0.7-0.4-0.8-0.8c0-0.4,1.3-1,3.1-2.3c1.6-1.2,0.6-0.5,1.2-1.5h-36v27.5
	c0.7-0.2,1.3-0.5,1.6-0.7c0.8-0.6,1.7-1.6,2-1.1s-1.3,2.5-1.3,2.5s-1.1-1.1-0.9,0.2c0.2,1.4,0.5,1.2,0.7,1.7s1,2,1.6,2.5
	c0.5,0.5,1.8-0.6,1.7,1c-0.1,1.6,0.3,1.5-0.5,1.9c-0.8,0.5-0.6-1.2-1.6,0.8c-1,2.1-2,2.5-2.4,1.9c-0.5-0.6,1.4,0.2-0.9-1.1V555h41.4
	v-13.5H304.7z M326.7,514.3c0,0,0.7,0,1,0.7c0.2,0.7,0.4,1.2,0,1.2s-1-0.3-1-0.3l-0.3-0.7C326.2,514.8,326.7,514.3,326.7,514.3z
	 M318.7,514c0.7,0.9,1.4,0.3,0.9,1.3c-0.5,1.1-0.7,1.1-0.7,1.1l-0.5-0.5l-0.2-0.7C318,514.5,318,513.2,318.7,514z M316.3,509.2
	c1.3,0.2,1.5-0.4,1.8,0.6c0.4,1-0.5,1.6-0.5,1.6s-1.9,1.6-1.5,0.3c0.5-1.2,0.2-1.7,0.2-1.7C315.9,509.5,314.9,509,316.3,509.2z
	 M314.4,518.5c-0.9-0.1-1.2-0.1-1-0.8s0-0.9,0-0.9l-0.9-1.2c0.9,0.2,1.6,0.1,1.8,0.6c0.1,0.4,0.8,1.1,0.9,1.4
	C315.3,517.8,315.3,518.7,314.4,518.5z M311.2,512.3c0.5-0.8,0.9-1.7,1.6-1.5c0.6,0.2,1.8-1,1.6,0.2c-0.1,1.2-0.6,1-0.3,1.5
	s0.4,1.4-0.9,1.3c-1.3-0.1-1.3,0.4-1.6,0C311.2,513.5,311.2,512.3,311.2,512.3z M306.3,510.2c0,0,0.9-0.2,2,0s0.6,0.5,1,0.9
	c0.4,0.5,0,1.7,0,1.7l-1.4-0.1l-1.1-0.9l-0.5-0.3V510.2z M314.5,487.5c-1.2,0.4-1.9,0.4-1.9,0.4l-0.3-0.4c-0.3-0.5,0.3-1.6,0.3-1.6
	s0.3,0.1,1,0.8C314.3,487.3,315.7,487.2,314.5,487.5z M312.6,481l-2.1,0.3c-0.4-0.4-1.2-1.5-0.3-1.4c0.8,0,2.4,0,2.4,0V481z
	 M309.7,476.7c1.3-0.2,1.7-1.5,1.9,0c0.2,1.5,0.5,1.7,0.3,1.9c-0.1,0.2-2.2-0.2-2.2-0.2C309.4,477.5,308.4,476.8,309.7,476.7z
	 M305.1,478.8c0.4-1,1-1.2,1-1.2c0.7-0.5,2-0.7,1.8,0s-0.9,1.5-1.5,1.5C305.8,479.2,304.8,479.8,305.1,478.8z M303.1,486
	c1.2-0.2,1.4,0.6,1.7,0.8c0.3,0.2,0.6,1.2,0.6,1.2s-0.5,0-0.8,0s-0.8-0.4-0.8-0.4C303.2,487,301.9,486.2,303.1,486z M295.1,544.5
	c-0.3,0.1-0.3,0.4-0.6,0.2c-0.3-0.2-0.2-0.9-0.2-0.9l-1.7-0.1c0-0.1,0-0.8,0-0.8s1.9,0.1,2.2,0c0.3-0.1,0.5-0.2,0.4,0.4
	C295.2,543.8,295.4,544.2,295.1,544.5z M295.2,532.2c-0.3,0.4-0.4,0-0.5,0.6c-0.1,0.6-0.6,1.4-0.6,1.4l-1-0.7c0.1-0.2-0.2-1,0.3-1.2
	c0.5-0.3,0.3,0.3,0.8-0.6c0.5-0.9,0.2-2.3,0.8-1S295.5,531.8,295.2,532.2z M299.4,478.3c0,0,0.2-1.2,0.8,0.4
	c0.6,1.6-0.4,2.4-0.4,2.4c-0.7-0.7-0.4-0.6-0.8-1.2c-0.4-0.6-0.8-0.6-0.8-0.8C298.2,479,299.4,478.3,299.4,478.3z M297.4,495.8
	c0.7-1,0.8-0.8,1.4-1.8c0.6-0.9,2-3,1.4-1s-1.3,0.7-0.3,2.6c1,1.9,2.9,1.7,1,1.9c-1.9,0.2-1.6-0.7-2.1,0.3s-1.1,0.7-1.1,0.7
	C297.5,498,296.6,496.8,297.4,495.8z M298.3,544.8c-0.7,0.3-0.4,0.7-0.8,0.7c-0.4-0.1-0.7,0-0.7-0.3s-0.2-0.9-0.2-0.9
	c-0.1-0.2-0.7-0.5-0.2-0.7s0.1,0.2,1.1-0.4c1.1-0.5,1.1-1.1,1.2-0.3s-0.1,1-0.1,1S299,544.5,298.3,544.8z M298.9,532
	c-1.3-0.3-1.4,0.4-1.3-0.3c0.1-0.6,0.4-1.4,0.4-1.4c0.1-0.5,0.5-1.4,0.8-1c0.3,0.4-0.3-0.3,0,0.9C299.1,531.5,300.2,532.3,298.9,532
	z M299.8,510.8c0.2-0.1,0.6-0.7,0.6-0.7s1.9,0.2,2.5,0s1.7-1.2,1,0.1c-0.7,1.2-0.8,1.8-0.8,1.8l-1.3,0.5c0,0-0.3-0.5-0.9-0.8
	C300.3,511.3,299.6,510.8,299.8,510.8z M301.4,544.7c-0.5,0.4-1.2,1.1-1.3,1c-0.1,0,0.2-1.2,0.2-1.2c-0.2-0.3-0.7-0.6-0.3-0.8
	c0.4-0.1,0.5,0.4,0.8-0.3c0.3-0.7-0.2-0.8,0.3-0.7s0,0.6,0.3,0.8s0.8,0.3,0.8,0.3S301.9,544.2,301.4,544.7z M303.4,519.2
	c0.3-0.2,0.7-0.8,0.6,0.3c0,1.1,0,1.6,0,1.6l-0.5,0.5l-0.4-0.5C303,520.5,303.1,519.3,303.4,519.2z M311.8,545
	c-0.1,0.4,0,0.6-0.3,0.6s-1-0.2-1-0.2c-0.2-0.2-0.8-1-0.2-1c0.6,0,0.2-0.2,0.9,0C311.7,544.5,311.8,544.5,311.8,545z M314.4,554.2
	c-0.6-0.4-0.7-1.1-0.3-1.3c0.4-0.2,1.1-1.1,1.2-0.5c0.1,0.6,0,0.9,0,0.9v1.1L314.4,554.2z M314.5,546c-0.2,0.4,0.1,0.3-0.2,0.6
	c-0.3,0.3-0.1,0.4-0.6,0.6c-0.5,0.1-1.1,0.1-1.1,0.1l-0.5-0.5c-0.2-0.4,0-0.7,0-0.7s0.8,0.3,0.8-0.2s-0.3-1,0-1.1
	c0.3-0.1,1.7-0.3,1.9-0.4c0.1,0,0.5-0.2,0.5,0.4C315.3,545.5,314.7,545.7,314.5,546z M321,553c-0.4,0.8-0.1,1-0.6,0.8
	s-1.1-0.8-1.1-0.8c-0.9,0-1.8-0.3-0.8-0.5c1-0.3,1.1-0.1,1.4-0.4s1-1.5,1.1-0.5C321.1,552.5,321.4,552.2,321,553z M321.5,545.5
	c0.8-0.2,1.5,0,1.2-0.4c-0.3-0.4-1.5-1.2-1.5-1.2s0-0.4,1.2-0.3c1.3,0.1,1.6,0.1,1.7,0.2c0.1,0.2,0,0.1,0,0.9s0.6,1,0.7,1.1
	c0.1,0.1-0.1,0.7-0.8,0.7c-0.7-0.1-1.5,0.1-1.5,0.1C321.5,545.7,320.7,545.8,321.5,545.5z M324.1,552.2c0-0.3-0.3-0.9-0.3-0.9
	l-0.4-1l0.7-0.5c0,0,0.9-1.1,1.7-1.1c0.8,0,1.2,0.8,1.2,0.8l-0.5,0.5c0,0-1-0.2-1,0.7s0.3,1-0.1,1.3
	C325,552.2,324.1,552.2,324.1,552.2z M327.8,554.2c-0.9,0.1-2.3-0.3-2.3-0.3c-0.3,0-0.6-0.7-0.6-0.7s0.8-0.1,1.8-0.1
	C327.7,553,328.6,554,327.8,554.2z M328.8,549.2c0,0-0.4,0.1-0.6,0c-0.2-0.1-0.5-0.9-0.5-0.9s0.6-0.6,0.7-0.5c0.1,0,0-0.2,0.4,0.4
	C329.2,548.8,328.8,549.2,328.8,549.2z"/>
<path fill="#FFFFFF" d="M286.3,533.8c0.4-4.3,0.1-7.3,0.1-7.3h-14.6c0,0,1.5,18.9-8.8,18.9c-6.7,0-8.5-9.1-9-14.6l0,0l-1.1-0.3
	l-0.7-1.1l0.2-2.5c0,0,0.4-2.4,0.5-0.9s-0.1,1.1,0.2,1.8c0.3,0.7-0.1-0.1,0.8,0.8l0,0c-0.1-1.2,0-2,0-2v-12.3l-0.2,0.1
	c0,0-0.9,0-1.3-0.7c-0.4-0.7,0.3-1.1,0.6-1.9c0.1-0.3,0.5-0.4,0.9-0.4v-11.6c0,0-0.2-14.8,9.2-14.8c9.2,0,9,14.8,9,14.8h14.3
	c0,0,3.7-27-22.9-27s-24.7,27-24.7,27v3.2h2.5c0,0,0.4,0.7,0,0.8c-0.4,0.1-1.2,0-1.4,0.8s-1,1.1-1,1.2v3.7c0.5,0.2,1,0.5,1.3,0.7
	c0.5,0.4-0.3,0.9,1.3,1c1.6,0,3.6-0.7,1.7,0.4c-1.8,1.2-1-0.7-2,1.4c-1,2.2-0.4,2.2-1.4,2.1c-0.4,0-0.7-0.1-0.9-0.2v11.8
	c0,0-0.2,1.7-0.2,4.3c0.8,0.1,1.1-0.3,1.2,1.1c0.1,1.5,1.1,2.7,1.1,2.7s-0.6,0.1-0.8,0.9c-0.1,0.7-0.3,2.5-0.6,2.8
	c-0.1,0.1-0.2,0.2-0.3,0.4c0.4,2.3,1.1,4.7,2.2,7c0.8-0.7,1.6-1.7,2.1-1.5c0.8,0.3,1.1,0.9,1.5,1.3c0.3,0.4,0.7,1.9-0.6,1.6
	c-1-0.2-1.5,0.2-2,0.5c3.3,5.6,9.2,10.1,19.7,10.1c9.6,0,15.4-3.8,19-8.7c-0.5-0.2-1.1-0.5-1.3-0.8c-0.2-0.5,0.3,0.1,1.1-0.7
	c0.7-0.8,0.7-0.5,1.1-0.9c0.2-0.2,0.4-0.1,0.7-0.1c0.3-0.5,0.6-1.1,0.8-1.6c-0.2-0.1-0.6-0.3-0.9-0.7c-0.5-0.7,0.9-1,0.9-1
	s0.3,0,0.7,0c0.7-1.8,1.2-3.7,1.5-5.5l-0.4-0.2c0,0-0.3-0.8-0.3-2.4C285.1,534,285.7,533.8,286.3,533.8z M283.9,494.5l0.9-0.5l0.9,1
	l-0.9,0.8l-1-0.2L283.9,494.5z M278.5,482.8c1.4-0.1,1.7,0.3,1.9,0.7c0.2,0.4,0.7,0.5,0.3,1c-0.4,0.5-1.3,0.4-1.3,0.4l-0.3-0.6
	C278.3,483.2,277.1,482.8,278.5,482.8z M277.4,498.2c0.4-0.5,1.3-1.2,1.3-1.2c-0.4-0.2,0-1.3,0-1.3h2.6c0,0,0.1,0.3,0.2,1.3
	s0.8,1-0.6,1.1c-1.4,0.1-1.5,0.3-2.3,0.4C277.9,498.5,277.1,498.8,277.4,498.2z M270.2,480.5c0.2-1.1,1.7-2.4,1.7-2.4
	c0.4-0.6,0.9-1.9,2-1.7s1.2,0,1.2,1.2s-0.5,1-1.6,1.3s-0.3-0.3-1.6,0.7S270,481.7,270.2,480.5z M252.8,519.8c0.2,0.6,0.3,0.9,0.3,1
	c0.1,0,0,0.1,0,0.1s0,0,0-0.1c0,0-0.1,0-0.3,0c-0.5,0.1-0.8-0.1-0.8,0.5c0,0.5-0.8,0.5-0.8,0.5c0.1-1.1-0.7-1.7,0.2-1.9
	C252.4,519.5,252.4,519,252.8,519.8z M250.5,497.2l-0.3,1.1l-0.5-0.9c-0.3,0-1.7,0-1.4-0.6c0.3-0.6,0.3-0.8,1.1-1.3s1-1.1,1.6-1.3
	c0.5-0.2,0.4-0.9,1.2-0.3c0.7,0.6,0.7,1.2,0.6,1.8c-0.1,0.6-2.2,0.5-2.3,0.6C250.5,496.3,250.5,497.2,250.5,497.2z M247.2,512.7
	c-0.2-0.7,2.2-1,2.2-1l0.3,1.4l-1.6,0.5L247.2,512.7z M247.2,518l-1.1-1c0-0.5,0.4-1.6,0.9-1.3c0.4,0.3,0.5,0.3,0.8,1.3
	C248,518,247.2,518,247.2,518z M252.3,503.5c-0.3-0.6-0.3-1.7,0-2.8l0.3,0.9l0.5,1.9C253.1,503.5,252.6,504.2,252.3,503.5z
	 M256,478.2c1.2-0.6,0.7-1.2,1.6,0.3s1.6,1.9,0.9,1.9s-2.3-0.6-2.3-0.6C255.7,478.8,254.9,478.8,256,478.2z M255.4,483l0.8-1.4
	c0,0,2.6,0,2.4,0.3c-0.2,0.4-1.2,1-1.2,1s0.3,1.3-0.9,0.9C255.3,483.3,255.4,483,255.4,483z M253.7,478.5c0,0,0.4,0.1,0.4,0.9
	s-0.8,0.9-0.8,0.9h-0.2c-0.9-0.6-1-1-1-1L253.7,478.5z M251.7,489.5c0,1-0.5,0.8-0.5,0.8s-0.6-0.5-0.6-1.6l-1.2,0.2
	c0,0-0.1-0.5-0.5-1.4c-0.4-0.9,0,0,2.9,0.3C254.6,488,251.6,488.3,251.7,489.5z M248.1,481.5c0,0,0.3,0,0.9,0.7
	c0.6,0.7,1.1,0.5,0.7,1c-0.4,0.5-1,0-1.3,0c-0.4,0-0.6-0.3-0.6-0.3C247.2,482.2,248.1,481.5,248.1,481.5z M248.5,505.3
	c0,0,1.5,1.3,0.4,1.1c-1-0.2-2-0.9-2-0.9c0-0.7,0.5-2,0.5-2L248.5,505.3z M244.8,534.2c-0.2,0.4-1.1-0.2-1.1-0.2l-0.3-0.9l-1-0.9
	c0.9-0.1,2.1-0.9,2.3,0C245,533,245,533.7,244.8,534.2z M245,499.8c0,0-0.6-0.3-0.9-0.3c0,0.2-0.1,0.3-0.1,0.3
	c-0.1-0.2,0-0.3,0.1-0.3c0.1-0.4,0.1-1.2-0.1-1.2c-0.3-0.1-1.8-0.8-1-1.1c0.7-0.3,0.9,0.6,1.7-0.2s0.3-1.5,1-1.7
	c0.7-0.1-0.2,0.3,0.5,1.5s1.1,1.5,0.9,1.9c-0.2,0.4-0.9,0-1.4,0.4S245,499.8,245,499.8z M246.7,546.2c-0.7-0.7-1.3-1.1-0.6-1.3
	c0.7-0.2,1,0.2,1.3,0.4c0.3,0.2-0.1,0.1,0.5,0.6s1.1,1.2,1.1,1.2S247.4,547,246.7,546.2z M249.4,523.8c-0.7-0.6-0.1-1-0.1-1v-1.5
	c0,0,0-1.1,0.5-0.8s0.4,1.1,0.6,1.7c0.2,0.6,0.5,1.6-0.2,1.6S250.1,524.3,249.4,523.8z M250.7,539c-0.4-1.7-0.7-1.9-0.3-3.5
	c0.4-1.6,0.1-3.1,0.3-1.8c0.2,1.3,0.3,2.4,0.3,2.4s1.2,0,1.2,1.3s0.4,1.7-0.2,1.6C251.3,538.8,250.7,539,250.7,539z M252.3,544.3
	c0.7,0,0.4,0,0.9,0.9c0.5,0.9,0,1.3,0,1.3l-1.6-0.9C251.6,545.2,251.6,544.3,252.3,544.3z M254.5,552c-0.6,0.1-0.8,0-0.8,0l-0.3-0.7
	c0,0-1.2-0.5-0.6-0.6c0.7-0.1,0.7-0.2,1.3,0C254.8,551,255.1,552,254.5,552z M257.7,547.2c-0.5,0.4-0.7,0.8-1.1,0.6
	c-0.5-0.2-0.2-1.1-0.2-1.1c0.1-0.2,1-0.6,1.2-0.3C257.8,546.5,258.2,546.8,257.7,547.2z M260.7,548.5c-1-0.1-1.3,1.1-1.3,1.1
	l-0.3-0.8c-0.2-0.3-1.3-0.2,0-1.2s0.9-1.7,1.8-1.6c0.9,0.1,0.4,0.4,1,1.4C262.4,548.3,261.7,548.5,260.7,548.5z M266.4,549.5
	c-0.9,0.1-1.5-0.7-1.5-0.7c-0.4-1.2-1.1-1.4,0-1.7c1.1-0.3,1.3,0.3,1.5,1C266.5,548.8,267.2,549.5,266.4,549.5z M269,548.7
	c-0.7-0.2-1.6-1.1-1.1-1.2c0.4-0.1,1.1-0.8,1.1-0.8v-1.8c0,0,0.8-1,0.9,0.7s-0.3,1.9,1.1,1.9s2.1,1,0.8,1c-1.3,0-2.2,0.4-2.6,0.6
	C268.8,549.3,269,548.7,269,548.7z M274,550.5c-0.7,1.2-0.4,0.5-1.2,1.3c-0.7,0.8-1.2,0.2-1.4,1.5s-0.2,1.8-1.4,1.5
	c-1.2-0.3-0.8-1-0.8-1c0.1-1.5,0.8-2.3,0.8-2.3s-0.9,1.5,1.3,0C273.6,550,274.7,549.3,274,550.5z M276.5,549.8
	c-1,0.2-0.6-0.3-0.6-0.7c0-0.4,0.2-0.4,1.2-0.3c0,0,0.8,0.4,0.7,0.7C277.7,549.8,277.5,549.8,276.5,549.8z M280.2,540.2
	c-0.9,0.2-0.7,0.3-1.4,0.2c-0.6,0-0.9-0.9-0.9-0.9c0.4-0.1,1.2-0.1,1.7,0C280,539.7,281.1,540,280.2,540.2z M281.7,532.3
	c-0.7-0.6-0.8-1.2-0.4-1.1c0.4,0.1,1.4,0.5,1.4,0.5L281.7,532.3z M283.3,531c-0.6,0-1.2-0.7-1.2-0.7c0-0.4,0.4-1.8,0.4-1.8
	s0.2,0.2,0.5,1.1C283.2,530.5,283.9,530.8,283.3,531z"/>
<path fill="#FFFFFF" d="M220.2,475.3V555h14.7v-79.8L220.2,475.3L220.2,475.3z M230.6,502.2c1.5-1.2,2.1-1.8,1.8-0.9
	c-0.4,1-0.9,0.8-0.9,1.1c0,0.3,0.6,0.6-0.1,1c-0.7,0.4-1.5,0.9-1.5,0.9c-0.8-0.7-1.4-1.6-1-1.6C229.4,502.5,229.1,503.3,230.6,502.2
	z M226.3,492.5c0.8-0.9,0.4-2.4,1.3-1c0.9,1.4,2,1.3,1.8,1.7s-0.6,0.7-1,0.7s-1.2,0-1.2,0C226.5,493.5,225.6,493.5,226.3,492.5z
	 M222.1,512.8c1.6-0.5,2.6,0.4,2.6,0.4s-0.2,0.6-0.9,0.7c-0.7,0.2-0.7,0.6-0.7,0.6l-0.9-0.2C221.9,513.5,220.5,513.2,222.1,512.8z
	 M225,542.8c0,0-0.2,0-0.6,0.7s-1.1,0.9-1.3,0.3c-0.1-0.6-0.2-1.1-0.5-1.1s-0.8-0.5-0.8-0.5l1.2-0.3c0,0,1.7,0.1,2.1,0.1
	C225.7,542,225,542.8,225,542.8z M225.4,531.8l-1.5-0.5c0-0.6-1.7-1.9,0-1.7c1.7,0.1,1,0.3,1.5,0.9
	C226,530.8,225.4,531.8,225.4,531.8z M227.6,522.5c-0.2,0.3-1.3,0.2-1.3,0.2c-0.5-0.3-1.3-0.7-0.3-0.9c0.9-0.2,1.7-0.2,1.7-0.2
	S227.8,522.2,227.6,522.5z M229,511.7c-0.1-0.2,0.4-1.7-1.6-1.6c-2.1,0.1-2.8,1.1-2.1,0.1c0.8-1,1-0.8,1.9-0.9
	c0.9-0.2,2.3,0,1.5-0.6c-0.8-0.5,1.4-0.5-1.2-0.6c-2.6,0-2.7-0.1-3,0c-0.3,0-1.4-0.1-1.4-0.1c-0.1-0.1,0.6-1.1,0.6-1.1
	s1.1-1.1,2.3-1c1.2,0.1,1.7,0.8,1.7,0.8l2.8,0.6l1.5,1.6c0,0,1.3,0.9,1.2,1.5c-0.1,0.6,0.2-0.1-0.9,0.7c-1.1,0.8-0.1,1.4-1.5,1.6
	C229.5,512.8,229.1,511.8,229,511.7z M232.2,544c-0.9-0.3-0.9-0.3-0.9-0.3l-0.4-0.9c-0.1-0.1,1.6-1.2,1.8-0.6
	c0.2,0.7,0.8,1.7,0.8,1.7S233.1,544.3,232.2,544z M233.6,533.7c-1.6,0.1-2.4-0.3-2.4-0.3l0.2-1.2c0.9-0.2,1-1.5,1.4-1.4
	c0.4,0.1,0.5,1,0.5,1S235.1,533.5,233.6,533.7z"/>
<path fill="#FFFFFF" d="M210.7,475.3c-0.3,0.8-0.9,2-1.2,2.4c-0.5,0.5-2.8,1.2-2.8,1.2s-1.5,1-2.3,1.4c-0.8,0.3-0.9-0.5-0.9-0.7
	s1.4-1.3,1.7-1.6s1.7-0.6,2.3-0.9c0.6-0.2,1.6-1.5,1.6-1.5l0.1-0.3h-41.5v13.5H185v5c1-0.6,2.1-1.3,2.1-1.3s1-1.1,1.5-1
	c0.5,0.1,1-1.1,0.8,0.4s-0.7,2.1-0.7,2.1s-0.5-0.2-1.1,0.5c-0.6,0.6-1.4,0.8-2.6,1.1V519c0.5-0.2,1-0.4,1.4-0.5
	c0.7-0.3,1.8-0.6,1.8-0.6s1.2,0.2,0.6,0.7s-0.6,0.1-1,0.6c-0.3,0.4-0.8,0.9-0.8,0.9l-0.8,0.9l-1.2,0.3V555h14.7v-66.3h17.2v-13.5
	L210.7,475.3L210.7,475.3z M170.7,485.3l-1.2-0.2c-0.6-0.5-1.6-1.5-0.4-1.6c1.2-0.2,1.3-0.5,1.5,0.3
	C170.9,484.5,170.7,485.3,170.7,485.3z M186.7,487.5c-0.4-0.2-1.8-1.1-1.2-1.3c0.6-0.2,1.7,0,1.7,0l0.5,1.3H186.7z M197.3,493
	c0,0.3-1.8,0.3-1.9,0.5c-0.1,0.2,0-3,0-3.2l0.9,0.2v1.4C196.4,492,197.3,492.8,197.3,493z M197.8,519.8c-0.7,0.8-0.2,1.7-0.8,0.7
	s-0.8-1.4-0.8-1.4c-0.2-1-0.3-2,0-2.2c0.3-0.3,0.9,0,0.9,0v1.2C197,518.2,198.5,519,197.8,519.8z M195.6,537.8
	c0,0.8-0.1,0.9-0.1,1.1c0,0.1-0.5,0.3-0.5,0.3c-0.1-0.7,0.6-1.3,0-1.8s-0.9-0.9-1.1-0.8c-0.3,0-0.7,1.1-0.8,0
	c-0.1-1.1-0.9-0.6,0-1.5c0.9-0.8,0.6-2.1,1.3-0.9c0.7,1.1,0.9,1.6,0.9,1.6s0.9-0.2,0.7,0.7C195.8,537.2,195.6,537,195.6,537.8z
	 M192.6,506.2c-0.6-0.9-1.1-2.1-1.1-2.1s1.3,0,2.1,0s0.9-0.2,1.1,0.6c0.3,0.8,0.6,2,0.7,2.5c0.1,0.5,0.6,1.4-0.3,1.5
	c-0.9,0.1-0.3,1.3-1.4,0c-1-1.3-1-0.9-1-1.5C192.7,506.7,193.2,507.2,192.6,506.2z M190.4,496l-0.6-0.6l0.7-1.7c0,0,1.5,0.1,1.5,0.5
	c-0.1,0.3-0.2,1.3-0.2,1.3L190.4,496z M192.3,498.5c0,0,1.1-0.8,1.6-0.2s0.4,1.4,0.5,1.5c0.1,0.1-0.5,0.7-0.5,0.7l-1-0.3
	C192.3,499.8,192.3,498.5,192.3,498.5z M193.8,512.2c0.1-0.2,0.8-0.5,1.3-0.3c0.5,0.3,1.2-0.6,1.2-0.1s0.2,0.6,0,1.3
	c-0.2,0.8-1,0.6-1,0.6c-0.2-0.2,0-0.5-0.8-0.8C193.8,512.7,193.7,512.3,193.8,512.2z M195.4,486.3l1-0.4c0,0,0,0.5-0.4,1.5
	c-0.5,0.9-0.4,1.2-1,1s-0.6-1-0.6-1C194.4,487.2,195.4,486.3,195.4,486.3z M192,480c1.9-0.1,2.7-0.6,2.6,0c-0.1,0.6-0.3,1.5-0.3,1.5
	l-1,0.2l-1.3-0.2C192,480.8,190.1,480,192,480z M188.6,479.2l0.5-1.2l-0.5-0.5c0,0,0,0,0.8,0s0,0,0.9,0.5s-0.3,0.2-0.8,0.6
	C189,479,188.6,479.2,188.6,479.2z M187,532.2c0,0,0.9-0.3,0.9,0s-0.2,0.3-0.2,2c0,1.6,0.5,1.9,0.5,1.9s0.6,0,0.3,0.4
	c-0.3,0.5-0.7,0.9-0.7,0.9H187C187,536.8,187,532.2,187,532.2z M189.5,545.2c-0.5,0.1-1.1,0-1.1,0l-0.6-1.1c0-0.1-0.4-2.1-0.2-2.2
	c0.2-0.1,1.4-0.2,1.3,0c-0.1,0.2-0.7-0.4-0.4,0.9c0.4,1.3,0.8,1.3,1,1.6C189.7,544.5,190,545,189.5,545.2z M189.7,512.2
	c-0.8-1-0.8-1-0.8-1V510c0,0,0.7-0.7,1.1,0c0.3,0.7,0.5,0.8,1.2,1.3s1.6,1.8,0.3,1.5C190.1,512.5,190.5,513.2,189.7,512.2z
	 M192,525.8c0.4-0.3,0-0.7,0.6-1.7s0,0,0.8,0.4c0.8,0.4,0.7,1.6,0.7,1.6l-0.9,0.4l-1.4,0.5c0,0-0.5-0.2-0.7-0.6
	C190.8,526,191.6,526.2,192,525.8z M193.9,549l-2.5,0.2l-0.3-0.9c0.3,0,2.6-0.1,2.8,0C194.1,548.3,193.9,549,193.9,549z
	 M194.1,545.2c-0.3,0.4-1.5-0.1-1.5-0.1c-0.6-0.2-1.8-0.3-0.7-0.4c1.1-0.1,0.9,0.2,1.6,0S194.4,544.8,194.1,545.2z M197.9,544.5
	c-0.4,1.1-0.6,1.3-0.6,1.3s0.6,0.6-0.2,1c-0.7,0.4-1.2,0.4-1.2,0.4l-1-0.4c-0.1-0.1,0-0.9,0-0.9s0.6-0.2,0.8-0.8
	c0.1-0.6,0.2-0.9,0.9-0.8C197.4,544.5,198.3,543.5,197.9,544.5z M198.7,504.7c-0.3,1.3-0.2,1.7-0.2,1.7l-0.8,0.9l-0.8-1.1
	c-0.1-0.2-0.6-0.6,0-1.2c0.6-0.6,0.4-1,1.1-0.8C198.7,504.3,199.1,503.3,198.7,504.7z M215.9,482.5l-1.1,0.7l0.3-2.4
	c0,0,0.8-0.3,0.8,0C215.9,481.2,215.9,482.5,215.9,482.5z"/>
<path fill="#FFFFFF" d="M163.6,547.5c-0.3,0-1.3,0-1.6,0c-0.5,0-0.6-0.3-0.6-1c-0.1-0.8,0.2-0.8,0.3-1s1.4,0,1.5,0c0,0,0,0,0.3-0.1
	c0-2.8,0-13.3,0-20.2c0-8.1-10.1-11.3-10.1-11.3s9.6-3.5,10-16.8c-1,0.6-1.4,0-1.4,0s-1,0.1-1.5,0c-0.5-0.1-0.8-0.8-0.8-2
	c0.1-1.2,1.5-0.8,1.5-0.8s1.2-0.6,2.1-1c-0.7-7.9-4.6-12.3-8.8-14.8c-0.1,0.1-0.1,0.1-0.2,0.2c-0.3,0.4-0.4,0.1-2,0.5
	c-1.7,0.4-0.9,0.3-1.4,0.9c-0.5,0.6-0.3,0.4-0.8,0.5c-0.4,0-0.5-0.7-0.6-1s0.8-0.8,1.5-0.8s1-0.5,1.3-0.8c0.1-0.1,0.3-0.2,0.4-0.3
	c-5.1-2.4-10-2.2-10-2.2h-29v30.9c0.4-0.1,0.7-0.1,1-0.2c0.8-0.3,2.3-0.4,3,0c0.7,0.4,0.7,0.3,2,0.4c1.3,0.1,1.3-0.4,2.2,0.9
	s2.5,1.9,2.2,3c-0.3,1-2.2,1.9-2.2,1.9l-1.5,2c0,0-3.4-0.3-2.7-1.7c0.7-1.4,0.7-2.3,0.7-2.3s-4.7,0.4-3.1-0.6s3.2-0.6,2.6-1.4
	s-1.1-1.1-2.7-1c-0.6,0-1.1,0.1-1.6,0.2v22.5h0.4l0.5-0.2c0,0-0.1,0.2,0.5,0.5c0.6,0.2,1.6,0,0.8,0.7c-0.8,0.7-0.3,0.8-0.8,0.7
	c-0.5-0.1,0.4-0.1-0.9-0.2c-0.2,0-0.3,0-0.4,0v10.3c0.5,0,1.1,0,1.2,0c0.2,0.1,0.6,0,0.3,0.5c-0.3,0.5-0.2,0.8-0.6,1
	c-0.2,0.1-0.6,0.2-0.9,0.3V555h14.4v-33.3v-1.3h2.7c0-0.4-0.1-0.9,0.2-1.1c0.4-0.3,0.9-0.4,1.1-0.5c0.2-0.1-0.1-0.3,0.7-0.5
	s0.2-0.3,1-0.2s1.1,0.3,1,0.5s-0.7,0.4-0.9,0.4s0-0.2-0.4,0.3s-0.6,0.4-0.8,0.5c-0.3,0.1-0.6,0.1-0.5,0.3c0,0.1,0.1,0.1,0.1,0.2h7.5
	h0.2c8.6,0,8,13,8,13s0,7.4,0,13c0,5.6,1.7,8.6,1.7,8.6h18.4C165.3,555,164,550,163.6,547.5z M154,519.7c0.5,0.5,1,1.1,1,1.1
	s-0.7,0.8-1,0.4c-0.3-0.5-0.6-0.8-0.6-0.8l-0.4-0.6c-0.1,0,0-0.9,0-0.9S153.6,519.2,154,519.7z M154.8,532.7
	c-0.3,0.2-0.6,0.3-0.9,0.3c-0.3,0-1-0.4-1-0.4c-0.1-0.4,0.4-1,0.4-1s1.4-0.3,1.5,0C154.8,531.8,155,532.5,154.8,532.7z M151.9,503
	l2.1-1.3c0,0,0.4-0.5,1.7-1.5s1.3-1.5,2.6-1.4c1.3,0.1,2.9,0,2.9,0.3s0.1,1.8-1.5,1.8s-1.3-0.8-2.2,0s-0.6,0.7-1.5,1.5
	c-1,0.8-0.3,1.2-1.7,1.1c-1.4-0.1-1,0.2-1.7,0C151.6,503.3,151.9,503,151.9,503z M136.8,480c0.4,0.2,4.2,0.2,4.2,0.2l-0.5,0.9
	l-2.5,0.4l-1.5-1.2L136.8,480z M117.1,494.8c-0.5,0-0.3-0.7-0.3-0.7c-0.4-0.7-1.5-1.7-0.3-1.8s1.7,0.2,1.7,0.2l0.5,1.2
	C118.7,493.7,117.6,494.8,117.1,494.8z M123.6,502.8c-1.9,0.4-1.3-0.2-2.3,0.6c-1,0.7-1.9,0.7-2.2,0.5c-0.4-0.2,0-0.8,0-0.8
	s0.6-0.7,1.4-1.2s1.3-0.7,2.1-0.5C123.5,501.8,125.5,502.5,123.6,502.8z M123.9,543.2c-0.3,0.7-0.3,0.7-0.4,1s0.3,0.8-0.8,0.3
	c-1.1-0.5-0.7-0.5-1.6-0.6c-0.8-0.1-0.6-0.9-0.6-0.9c1-0.1,1.1-0.2,2.1-0.2C123.6,542.8,124.1,542.3,123.9,543.2z M124.5,532.8
	c-0.5,0.2-1.7,0.2-1.7,0.2l-0.6,0.7l-0.7-0.2v-1.3c0.1,0,1.1,0.1,1.1-0.1s-0.8-0.6,0-0.7c0.8-0.1,1,0,1.4-0.1c0.4,0,0.6-0.4,0.6,0.4
	C124.5,532.5,125,532.5,124.5,532.8z M127.6,544.2c-1,0.5-1.6,0.5-1.7,0.7s-0.5,0.3-0.9,0.3s-0.2-1.1-0.2-1.1c0.1-0.1,0-0.6,0.9-0.7
	c0.9-0.1,0.5-0.3,1.2,0C127.7,543.5,128.6,543.8,127.6,544.2z M136.4,510.8c0.3,0.4,0.7,0.6,0.7,0.9s-0.7,0.6-1.1,0.5
	c-0.4-0.1-1.1-0.7-1.1-0.8c0-0.2,0-1.6,0-1.6s0.1-0.1,0.1-0.2h-2.6c-0.2,0.2-0.9,0.8-1,1s0.3,1-0.8,0.9c-1.1-0.1-1.1,0.6-1.6-0.3
	c-0.5-0.9-0.3-1-0.1-1.3c0-0.1,0.1-0.2,0.1-0.3h-1.4v-12.8c-1.4,0.1-0.5,0.4-0.8,0.8c-0.3,0.3-0.5,1.8-0.5,1.8l-1.2,0.5l0.4-2.9
	l1.1-1.6c0,0,0.5-0.4,1-0.8V487c0,0,7.1,0,10,0c2.3,0,7.4,0.3,9.5,6c0.7,0,1.3,0.1,1.3,0.1c0.1,0.1,0.3,1.4,0.6,1.5
	c0.3,0.1-0.8,0.3-0.8,0.3l0.9,0.7l0.5,0.8l-0.8,1.8H148c0,0.3,0,0.6,0,0.9c0,11.6-11,10.8-11,10.8h-0.6c-0.1,0.1-0.3,0.2-0.5,0.5
	C135.6,510.5,136.1,510.5,136.4,510.8z M140.7,513.8c-1-1.2-1.5-2-1.5-2c0.1,0,1.4-0.6,1.8-0.8c0.3-0.2,1.1-0.7,1.1,0s0,1.3,0,1.8
	s0.3,1.2-0.2,1.2C141.3,514.2,141.7,515,140.7,513.8z M142.5,519.2c-0.4-0.1-1,1.1-0.6-0.3c0.4-1.4-0.7-2.7-0.7-2.7
	c0.5,0,1.2-0.4,1.3,0c0.1,0.4,0.2,1,0.2,1s0.6,1.5,0.6,1.7S142.9,519.3,142.5,519.2z M144.3,509c1.4-0.9,3-1.3,3-1.3v2.3l-0.7,0.3
	l-1.5,1.3C144.7,510.7,142.9,510,144.3,509z M147.8,516.2h-1c-0.4-1.1,0-1.9,0-1.9s1.8-1.1,2.1-0.5c0.3,0.6,0,1.1,0,1.1L147.8,516.2
	z M148.6,520.8c0.3-0.6,0.8-1.2,0.8-1.2l-0.1-0.9v0.2c0.2-0.1,0.5-0.4,0.8-0.2s-0.2,0.1,0.4,1c0.7,0.9,1.7,1.7,1.7,1.7
	s-0.3,0.8-0.9,0.4c-0.6-0.4-1.4-1-1.8-1C149.2,521,148.3,521.5,148.6,520.8z M150.4,546.8c-0.7-0.3-1.2-0.1-0.8-0.5
	c0.4-0.4,0.1-0.8,0.1-0.8c0.3-0.2,0.7-0.3,0.7-0.5c0.1-0.2,0.3-1.2,0.5-1.4c0.2-0.2,0.1-1.6,0.4-0.5c0.3,1.2,0.2,1,0.2,1.4
	c0,0.4-0.1,0.5,0.3,0.6c0.3,0.1,0.8,0.3,0.4,0.5c-0.4,0.2-0.4-0.3-0.9,0.3C151,546.5,151.1,547,150.4,546.8z M155.5,549.5
	c-0.4,0.6-0.8,0.9-1,1.2c-0.2,0.3-0.6-0.3-0.7,0.4c-0.1,0.7,0.1,0.8-0.1,1.1c-0.2,0.3-1.3,0.6-1.3,0.6c0-0.1,0.1-0.9-0.3-1.3
	c-0.4-0.5-1.1-0.5-0.4-0.8c0.6-0.4,1.7-0.7,2.1-0.9c0.4-0.3,0.3-0.6,0.9-0.7C155.3,548.8,155.9,549,155.5,549.5z M160.6,537.5h1.5
	l0.2,1l-2.5-0.2L160.6,537.5z"/>
<path fill="#FFFFFF" d="M81.1,493.8c0.2-0.2,1-1.4,1.1-1.6c0,0,0.1-0.1,0.2-0.1v-3.2H109v-13.5h-1.5c-0.2,0.6-0.7,1.8-0.7,1.8
	l-1.7,1.5l-2.4,0.7c0,0-1.6,0.3-2.3,0.6c-0.7,0.3-0.5-0.6-0.5-0.6l3.1-2.5c0,0,0.7-0.8,1.3-1.5H67.6v31.1c0.7,0,2.8,0,2.8,0l0.5,1.4
	l1.8,1.2l1.5,1.2l-1,1.6c0,0-1.9,1.2-1.9,1.3s-0.8,0.7-0.8,0.7s-0.5-0.8-0.9-1.3s-1.1-1.1-1.1-1.1s-0.4-0.1-0.9-0.1V555H109v-13.5
	H82.5v-3.8c-0.4,0.1-0.6,0.1-0.8,0.1c-0.3,0.1-0.4-1-0.4-1.6c0-0.5,0.6-1.3,0.8-1.7c0-0.1,0.2-0.2,0.4-0.3v-14.1
	c-0.3,0.3-0.8,0.9-0.8,0.9s-0.8-0.1-1,0c-0.2,0.1,0.3-1.1,0.3-1.1c0,0.2-1.1-0.6-1.1-0.6s-1.1-0.7,1.1-1c2.2-0.2,3.5-0.6,3.5-0.6
	s-1,1.6-1.4,2.1h8.7l-0.8-2.3l-0.6-1.3l2.3-0.3l0.3,3.9h6.6l-0.4-0.4c0-0.1-0.3-1.1,0.2-1c0.5,0,1.4,0.3,1.4,0.3v1.2h6.6v-13H92.1
	c-0.5,0-1.3,0.8-1.4,1.1c-0.1,0.4-1,0.5-1,0.5l-1.9-0.3c0,0,0.1-0.7,0.1-1.3h-5.5v-11.3c-0.3,0.1-0.6,0.3-0.6,0.3s-1.1,0.6-1.3,0.6
	c-0.2,0-0.6,0-0.9-0.2c-0.4-0.2,0.5-1.5,0.5-1.5S80.9,493.8,81.1,493.8z M72.2,502.3c-0.2,0-1.2,0.4-1.4,0.7c-0.2,0.2-1.1,1-1.1,1
	h-1.3l-0.2-0.6l2.3-2.1c0,0,0.2-0.9,0.8-0.6c0.6,0.2,0.9,0.2,0.9,0.2S72.4,502.2,72.2,502.3z M103.5,549c0.4-0.3,0.6-0.5,1.7-0.3
	s-0.2,0.6-0.3,0.7c-0.1,0.1-0.5,0.9-0.5,0.9s-0.8-0.1-1.4,0.4c-0.6,0.4,0.2,1.2,0.2,1.5s-1.8,0-1.8,0s0.1-0.5,0.5-1.1
	c0.3-0.6-0.5-1.3-0.5-1.3s0.5-0.2,0.9-0.3C102.8,549.5,103.1,549.3,103.5,549z M100,544.5c0.1-0.1,0.7-0.8,1.3-0.6
	c0.6,0.2,0.4-0.1,0.9,1.1c0.4,1.2,0,1.8,0,1.8s-1-0.2-2-0.3c-1,0-1.3-1-1.3-1C99.1,545.3,99.9,544.7,100,544.5z M96.1,552.8
	c0.1-0.3,1-0.4,1.2-0.9s0.5-1,1-0.7s0.9,0.5,0.8,0.9c-0.1,0.4-0.5,0.7-1,0.8s-0.3,0.6-1,0.6s-0.7,0.3-1,0
	C95.8,553.2,96.1,552.8,96.1,552.8z M93.2,554c-0.7,0-1.3,0-1.3,0h-1.2c0,0,0.2-1.1,0.9-1.4c0.7-0.3,1.4,0.1,1.4,0.1
	S93.9,554.2,93.2,554z M90.8,544.7c1.4-0.3,1.7-0.8,2-0.3s0.6,0.6-0.3,1c-0.9,0.4-0.8,0.5-0.8,1s0.6,1-0.4,1s-0.9-0.7-0.9-0.7
	c-0.3,0,0.5-1,0.5-1.1C90.9,545.5,89.4,545,90.8,544.7z M87.8,545l1-0.8l0.3,0.8l-1.2,1v-1H87.8z M95.9,509.3l-0.9,3.1l-0.8-0.3
	l0.1-1.3l-0.7-1.5C94,509.2,95.9,509.3,95.9,509.3z M89.2,511.8c0.3-0.1,0.4-0.9,1.9-1.3c1.4-0.4,1.8-0.7,1.5,0s-0.9,1.1-1.1,1.3
	c-0.2,0.2-1.1,0-1.1,0.5s-0.7,0.8-0.7,0.8s-1.1,0-1-0.5C88.9,512.2,89,512,89.2,511.8z M85,510.7c1,0,1.4-0.3,1.6,0
	c0.3,0.3,0.5,0.8,0.2,1.3s-0.3,0.9-1.2,0.6c-0.9-0.4-1.2-1.1-1.2-1.1S84,510.7,85,510.7z M77.9,494.2c0,1,0.8,2.7,0.8,2.7
	s0.3,1-0.7,1.3c-1,0.4-1.6,0.7-1.8,0.4c-0.2-0.3-0.6-2.2-0.6-2.2c-0.1-0.2,0.2-1.8,0.3-2c0.1-0.2,0.9-0.7,1.3-0.8
	C77.5,493.7,77.9,493.2,77.9,494.2z M79.1,513.8c0.4-0.1,0.5,0.8,0.5,0.8l-1.6,0.8c-0.2-0.2-0.8-1.6-0.8-1.6
	C77.3,513.8,78.7,514,79.1,513.8z M75.6,480.3c0.2-0.4-0.2-2,0.3-2s1.2,0,1.2,0s-0.6,1.2-0.6,1.4c0,0.3-0.2,2-0.2,2l-0.8-0.3
	L75.6,480.3L75.6,480.3z M72,544.3l-1.3-0.5l-0.4-1.2c0.1,0,2.8-0.2,2.8-0.2L72,544.3z M72.8,533.3c-0.5,0.2-1.1,0.5-1.1,0.5h-0.3
	c0-0.4-0.6-1,0-1.1c0.6-0.1,1.2-1.1,1.3-1.3c0.1-0.2-0.3-2.6,0.3-0.6c0.7,2,0.8,2.6,0.4,2.6C73.1,533.5,73.2,533.2,72.8,533.3z
	 M76.6,543.7c0,0-0.8,0.8-1.1,0.9c-0.2,0.1-0.3,1.1-1.1,0.8c-0.8-0.3-1.2-0.7-1-0.8s0.7-0.9,0.7-0.9s0.8-1,1-1s1.5,0,1.5,0V543.7z
	 M77.2,531.7c-0.1,0.1-0.9,1.2-1.1,0.3s-0.5-0.9-0.5-1.1s0.2-0.8,0.2-0.8s1.2-0.3,1.2,0C77,530.3,77.3,531.5,77.2,531.7z
	 M80.1,543.8c-0.4,0.5-0.6,0.5-0.7,0.9c-0.1,0.4-0.1,1.2-0.5,0.9c-0.4-0.3-0.9-0.9-0.9-0.9c0-0.1-0.3-0.9,0.2-1.3
	c0.4-0.4,0.9-0.6,1.3-0.6C80,542.8,80.5,543.2,80.1,543.8z M80.1,509.3l1.7,1.2c0,0,0.2,1.4,0,1.3c-0.2-0.1-2.6-0.7-2.6-0.7
	l-0.7-1.5L80.1,509.3z M89.8,486.7c0.9-0.4,1.7-0.7,1.8-0.6c0.1,0.1,0,1,0,1l-0.6,1.2l-0.8-0.7C90.2,487.5,88.9,487,89.8,486.7z
	 M89.5,482.2h-1.2l-0.7-0.7l0.2-1c0-0.1,0.3-0.5,0.7-0.4c0.4,0,0.7,0.4,0.9,0.7C89.7,481,89.5,482.2,89.5,482.2z M87.4,476.5
	c0,0,1.7,1,1.8,1.2c0.1,0.2-0.5,0.8-0.9,1.1c-0.4,0.3-0.9-0.2-0.9-0.2V476.5z M83.5,478c0.2-0.1,1.3-0.4,1.3-0.4s0.7-0.1,0.9,0
	c0.2,0.1,0.1,0.9,0,1.3c-0.1,0.3-0.8,1-0.8,1L84,479C83.8,478.8,83.3,478,83.5,478z M81.1,486.7L83,486c0,0,0.5,0.4,0,0.9
	s-1.7,2-1.7,2l-1.2-0.7L81.1,486.7z"/>
<path fill="#FFFFFF" d="M58.7,500.3c0.1-0.1,0.6-0.3,1.1-0.5l5.2-24.5h-3.9c-0.1,0.3-0.2,0.7-0.2,0.7s-0.2,0.8-0.9,1.8
	c-0.7,1.1-1.1,0.4-1.1,0.4s-2,0.4-2.7,0.5c-0.6,0.1-1.1,0.4-1.5,0.5c-0.4,0.1-0.6-0.5-0.6-0.5l1.3-0.6c0,0,1.9-0.8,2.3-0.9
	c0.5-0.1,0.4-1.4,0.4-1.4s0.1-0.3,0.1-0.6h-9.1l-5.2,27.6c0.3,0.3,0.5,0.5,0.5,0.5l2.4,0.7l1.9,0.6v1.4c0,0-0.7,0.9-1.1,0.9
	s-1.9,0.6-2.1,0c-0.1-0.6,0.6-0.7,0-1.5c-0.6-0.7,0.1-0.8-0.9-0.9c-0.4,0-0.7,0-1,0l-1.3,6.9c0.3,0.1,0.5,0.2,0.9,0.1
	c0.6-0.2,0.9-0.5,1.8-0.9c0.9-0.4,1.6-0.8,1.3,0s-1.1,2.3-1.1,2.3s0.6,1.5,0,1.4c-0.6-0.1-1.9-0.7-1.9-0.7l-1.4-0.1L38,535.8
	l-7.5-39l-0.6,0.2l0.3,1.2l-1.3,1.5h-1l0.2-0.9l1.1-0.3c0,0-0.1-1.7-0.1-1.8c0-0.1-0.5-1.4-0.5-1.4l0.9-0.3l0.6-0.1l-3.8-19.6H11
	l6.7,30.9c0.5,0,1-0.2,1.3-0.1c0.5,0.1,1.5,0.3,1.5,0.3s1.2,0.4,1.8,0.4c0.7,0,1.7,0.1,1.9,0.5c0.2,0.5,1.9,1.7,1.9,1.7
	s1.4,0.7,1.3,1c0,0.3-0.2,1-0.5,1.7c-0.3,0.6-1.5,1.7-1.5,1.7s-0.5,0.5-2.4-0.9c-1.9-1.3-1.9-1.3-1.9-1.3s0.7,0.1,0.5-0.6
	s0.6-1.1,0.5-1.4c-0.2-0.4-1.4-0.6-1.4-0.6s-1.3-0.7-1.9-0.8c-0.3-0.1-0.6-0.1-0.8-0.2L28.4,555H48l11.2-52.7
	c-0.4,0.1-0.7,0.2-0.8,0.3c-0.2,0.2-1.6,0.4-1.6,0.4v-1.2C56.8,502,58.4,500.5,58.7,500.3z M19.8,484.5l-0.8,0.7l-0.1-0.3
	c-0.4-0.5-1-1-0.6-1.1c0.4-0.1,1.5-0.2,1.5-0.2V484.5z M21.6,493c-0.1,0.1-0.8,0.7-0.8,0.7l-0.3-0.5c0,0,0-0.9,0-1
	c0-0.1,0.1-0.3,0.6-0.2C21.6,492.2,21.7,492.8,21.6,493z M25.9,501.7c-0.4,0.8-0.8,1.2-0.8,1.2l-0.8,0.9c-0.5,0-0.8,0.1-1.2,0
	c-0.3-0.1-0.8,0.3-0.5-0.6c0.3-0.9,0.9-1.3,1-1.3s1.1-0.3,1.1-0.3S26.3,500.8,25.9,501.7z M27.5,532.5c-0.1,0.5-0.2,0.2-0.5,0.9
	c-0.3,0.7-1.5,0.6-1.5,0.6s-0.2-1.3-0.3-1.7c0-0.3,0.4-0.8,0.6-1.1c0,0,0.8,0,1.1,0s0.2,0,0.5,0.2C27.6,531.8,27.7,532,27.5,532.5z
	 M48.8,503.5l-0.9-0.3l-1.3-1.2c0.1,0.2,1.8,0,1.8,0s-0.3-0.6-0.2-0.7c0.1-0.1,1.1,0,1.1,0v1.5L48.8,503.5z M44.9,516.8
	c0.2-0.1,0.7-0.3,1-0.4c0.3-0.1,0.4,0.9,0.4,0.9l-0.5,2.1l-1.1-0.4l0.6-0.8C45.2,518.2,44.7,516.8,44.9,516.8z M44,534l0.4,0.5
	c0,0,0.3,0.9,0.5,1.1c0.2,0.1,0.3,1.8,0.3,1.8l-0.9,1.5l-1.1-0.9c0,0,0.4-1,0.3-1.3c-0.1-0.4-0.7-1.1-0.7-1.1l-0.7-1l0.8-0.2L44,534
	z M41.7,525.5c0.8-0.4,1.7-0.7,1.9-0.4c0.2,0.3-0.4,2-0.4,2l-1.8-0.4C41.4,526.5,40.9,526,41.7,525.5z M29.3,530.5
	c0.1-0.1,0.6-0.4,0.7-0.3c0.1,0.1,0.3,0.2,0.2,0.5c-0.1,0.3-0.6,0.7-0.6,0.7l-0.6-0.2L29.3,530.5z M30.8,543.5
	c-0.3,0.4-0.5,1.3-0.5,1.3h-1.1c-0.4-0.4-2.2,0.5-0.2-0.8c1.2-0.8,1.4-1,1.4-1.1c-0.1,0-0.1,0-0.1,0h0.1
	C30.5,542.8,31,543,30.8,543.5z M32.1,513.5c1-0.1,1,0,1.1,0.8s0,1.2-0.6,0.9c-0.6-0.3-1-0.9-1-0.9C31.6,514,31.2,513.5,32.1,513.5z
	 M34.1,544.5c0,0-0.7,0-0.8-0.1c-0.1-0.1-0.4-0.6-0.4-0.6L32,546c0-0.2-0.3-3.4-0.2-3.4c0.1,0,1.5,0.3,1.5,0.3l0.7,0.6v0.9H34.1z
	 M36.8,537.3c0,0.2-0.1,1.6-0.2,1.9c-0.1,0.3-1.2-1.3-1.2-1.3s0.1-1.8,0.5-2.5c0.4-0.8,0.3-1.1,0.4-1.9c0,0,0.5,0.6,0.6,0.8
	c0,0.2,0.3,0.6,0.3,1.2C37.2,536.2,36.8,537.2,36.8,537.3z M38,550l0.2-0.7l0.2-0.7l0.7,0.1l0.2,1.1L38,550z M41.4,549.2l-0.9-0.8
	l0.4-0.5l1-0.2l0.6,1L41.4,549.2z M41.9,545.3l-0.6-0.7c0.2-0.1,2.3-0.2,2.3-0.2l-0.4,0.9H41.9L41.9,545.3z M47.6,545.5h-1.9
	l-0.3,1.5l-1,0.3l-0.8-0.8c0.2,0,0.7-0.1,0.8-0.2c0.1-0.1,0-0.8,0.4-1.1c0.3-0.3,0.9-0.4,1.3-0.4c0.4,0,1.8-0.2,1.8-0.2L47.6,545.5z
	 M47.5,510.8l1-0.8l-1-0.9c0.3,0,2,0,2,0v1.3c0,0,1.5,1.3,0,1.3s-1.5,0-1.5,0L47.5,510.8z M50.2,514.5l0.5,0.9l-1.4,0.3v-1.2H50.2
	L50.2,514.5z M51.2,528.8l-1.5-0.8l-1.7-1.1l2.8-0.3l0.9,0.9L51.2,528.8z M52,494.2h-1.9l0.4-1.1h1.8L52,494.2z M53.7,480.5h-0.8
	l-0.1-0.6l-0.2-0.3l0.8-0.3l0.8,0.5L53.7,480.5z M54.9,503.8l-0.4-0.8h1.1l0.4,0.8H54.9z"/>
<path fill="#999999" d="M298.2,114.5c-96.3,0-174.4,78.1-174.4,174.4s78.1,174.4,174.4,174.4s174.4-78.1,174.4-174.4
	S394.5,114.5,298.2,114.5z M298.4,445c-86.6,0-156.7-70.2-156.7-156.7c0-86.6,70.2-156.7,156.7-156.7s156.7,70.2,156.7,156.7
	C455.1,374.8,385,445,298.4,445z"/>
<path fill="#821518" d="M301.6,151.1c0.1,1.3-0.1,1.3,0,2.7c0.1,1.5-0.7,0.6-2.5,2.4c-1.8,1.9-2.5,1.5-3.8,2.4
	c-1.3,0.9-1.8,1-2.2,1.2c-0.3,0.2-1.9-0.3-2.7-1c-0.8-0.7-0.3-1.2,0-2.1s2.1-2.7,2.5-3.2c0.2-0.2,0.9-1.3,1.6-2.4h-30.1l-8.7,46.8
	c0.7,0.2,2.5,0.6,2.4,1.1c-0.1,0.6-0.5,2-0.5,2s-1.3,0.6-1.4,0s-0.2-0.9-0.3-1.2c0-0.2-0.2-0.8-0.3-1.3l-7.9,43
	c0.5,0.1,1,0.1,1.3-0.1c1-0.5,1.2-1.4,2.4-1.6c1.3-0.2,2.2-0.8,2.2,0s-1.1,1.9-1.9,2.3s-1.8,1.2-3.4,1.4c-0.4,0.1-0.8,0.1-1.1,0.1
	l-0.7,3.6c0.8-0.5,1.3-1,1.7-0.9c0.5,0.1,1.2,1,2.3,1.2s1.9-0.1,2.9-0.7s2.5-1.5,3.2-1c0.7,0.5,3.6,3,2.9,4.2s-2.7,4.7-2.7,6.1
	c0.1,1.4-0.7,3.9-1.9,3.7c-1.1-0.1-1.8-0.9-0.9-1.7c0.9-0.7,2-0.8,1.7-1.7s-1.3-1.4-2.4-1.3c-1.1,0.1-2.1,0.6-2.8-0.3
	c-0.8-0.9-1.2-1.4-0.3-1.5s1.8,0.3,1.9-0.9c0.1-1.2-0.9-1.9-1.3-2.7c-0.3-0.8-2-1-2.6-0.7s-0.7,1.3-2.2,1.7l-0.9,5.1l0,0
	c1,0.9,1.2,5.5,1.2,6.5c-0.1,0.9-0.9,4.5-1.6,3.8c-0.8-0.7,0.3-2.1-0.9-2.9l-1.7,9c1.2,0.2,0.4,0.3,0.9,0.3c0.6,0,0.5-1.3,1.2-1.8
	s2.1-0.5,2.9-0.5c0.8,0.1,0.4,0.3,1.2,0.8s1-1.5,1.2-2c0.3-0.5,1.6-1.8,2-2c0.4-0.2,1.1-0.6,2.1,0c1,0.6-0.4,1.9-0.9,2.6
	c-0.5,0.8-1.8,1.1-2.5,1.5c-0.7,0.4-1.8,1.6-2.5,1.7c-0.7,0.1-1.1-0.1-1.8,0.5c-0.7,0.5,0.5,1.5,1.4,1.9c0.8,0.3,1.9,3.8,1.9,4.7
	c0,0.9-0.9,1.6-2.1,1.5c-1.2-0.1-2.2-4-3.8-4.6c-0.5-0.2-1.3-0.2-2.1-0.1l-5.2,28.3c0.1,0.3,0.1,0.4,0.2,0.5
	c0.5,0.3,2.1,0.8,2.6,1.5c0.5,0.6,0.6,2.9,0,3.6s-2.1,3.7-2.4,2c-0.3-1.7,0.4-3.4-0.3-3.3c-0.5,0-0.7-0.3-0.8,0l-2.5,13.5
	c0.5-0.4,0.9-1,1.2-1.7c0.8-1.5,3.5-6.6,4.3-7.6s1.6-1.6,1.6-0.9s-1,2.2-1.3,3.1c-0.3,0.8-0.3,2.7,0.2,3.1c0.4,0.5,1.6,0.9,1.5,2.1
	s-0.9,4.1-1.8,4.1c-0.9,0-0.8,0.6-1.6-0.6c-0.9-1.2-0.9-1.5-1.6-1.3c-0.4,0.1-2.1,2.3-3.3,4l-4.2,22.7l1.8-0.5c0,0,0-0.4,0.3,1
	c0.4,1.4,1.3,2.2,0.3,2.7s-0.9,1.7-1.4,0.3s0.3-0.9-0.4-1.4c-0.4-0.3-0.7-0.4-1-0.5l-2.3,12.3L209,270.4l-4-1.3l-0.5-0.2l0.3-1.3
	l0.8-0.2c0,0,1.4,0,2.8,0l-7.5-43.5c-1.4,1-2.4,1.8-2.6,2.1c-0.3,0.5-1.8,0.8-2.6,0.7s-0.3-1.4,0.7-2.4s1.1-2.5,0.9-3.6
	c-0.2-1.1-1.4-2.9-1.6-3.7s2.5-2.3,2.5-2.3l0.9-1l-2.8-16c-0.2-0.2-0.4-0.3-0.5-0.3c-0.9-0.3-0.9,1.5-1.3,1.9
	c-0.4,0.5-0.8-0.4-1.1-1.6c-0.3-1.2,1.6-0.9,2.1-2.4s-0.9-2.8-1.6-3.8c-0.8-0.9-1-1-1.6-1.6s-0.6-2.1,0-2.5s0.5,0.1,0.6,0.3
	s0.7,1,1.2,1.8c0.5,0.7,0.6,0.7,0.6,0.7l0.1-1.5l-6.8-39.1l-54-0.5l22.2,104.9c1.9-1.7,5-4.4,6.3-4c1.9,0.5,1.3,3.1,1.5,3.6
	c0.3,0.5,2.3-0.3,4.2,0.4s4.7,0.5,5.6-0.3c0.9-0.8,3-1.9,4.3-0.2s0.4,4.7,0.7,5.3c0.3,0.7,0.7,1.4,3.2,1.7c1.5,0.2,1,1.3,0.6,2.2
	s-1.1,2.9,0.4,3.3c1.5,0.4,2.2-0.5,3-1.6c0.8-1,2.1-1.7,3-1.9c0.9-0.2,1,0.2,1.2,0.5c0.2,0.3,0.5,1.9-0.8,2.4s-1.3,1.3-0.9,1.8
	c0.4,0.5,1.5,3.4,0.7,3.4c-0.9,0-1.8-0.2-2.7-1.2c-0.9-0.9-1.9-1.6-2.9-1.6c-0.9,0-1.7,0.2-2.1,0.8c-0.4,0.5-0.5,2.7,0.7,3.8
	c1.2,1-0.1,4.4-1,4.2c-0.9-0.1-2.3-1.3-3.6-2.1s-2.4-0.1-3.2-0.9s-0.6-2.2-1.4-3.1c-0.8-0.9-1.2-2-2.6-2.8c-1.4-0.8-5.5-0.7-6.2-0.6
	c-0.7,0.1-0.5-0.9-1.2-0.9s-2.7,0.2-3.4,0.5c-0.2,0.1-0.4,0.2-0.8,0.4l32.4,152.8h54.4c-0.4-0.2-0.4-0.3,0.3-1.2
	c0.8-1.1,1-1.4,1.4-1.2c0.4,0.2,0.4,1,0.4,1s1.4,1.3,0.4,1.4c-1,0.1-1.3-0.2-1.6-0.1c-0.1,0-0.2,0.1-0.2,0.1h10.6l7-31.5
	c-0.1,0-0.2,0-0.3,0c-0.5-0.1-1-0.9-1.2-1.8c-0.2-0.9-0.1-2.5,0-3.5c0.1-1.1,0.4-0.6,0.7-0.7c0.3-0.1,0.6,0,0.6,0l0.6,2.6
	c0,0,0.2-0.1,0.5-0.3l8.4-37.7c-0.2-0.1-0.3-0.1-0.5-0.2c-1.3-0.6-0.9-1.1-0.9-1.1l-0.9-1.4c0,0,0.7-0.8,1.7-0.9c1-0.1,0-1.3,0-1.3
	v-5l1.2-0.7l0.6,2.3c0,0,0.4-0.6,0.9-1.6l8.1-36.4c-0.4-0.3-0.6-0.5-0.7-0.6c-0.1-0.3,0.7-1.1,1.3-2.1l1-4.3
	c-0.3,0.1-0.9,0.8-1.5,2.2c-0.7,1.7-0.5,0.4-0.9,0.4s-1.1-2-1.1-2.3s2-2.5,2.1-2.7c0-0.1,1.1-1.1,2.4-2.4l10.8-48.5h-0.1
	c-1.7,0.7-4.2,2.7-5.5,3.5s-1.9-0.1-2.7,0.3c-0.8,0.3-2,0.1-2.5-0.4s0.6-2,1.6-2.2s7.2-6.7,8.5-7.4c0.4-0.2,1.4-1.3,2.6-2.6
	l18.3-80.4H301.6z M251.7,236.6c-0.2,0-0.9,0.1-0.9,0.1l0.1-0.5l0.3-1l0.6-0.5l0.2,1C251.9,235.7,251.9,236.4,251.7,236.6z
	 M252.7,232.1l-0.8,0.5v-0.8v-0.5c0,0-1.1-0.1-1.1-0.2s-0.2-0.7-0.2-0.7l0.5-0.2h1.7L252.7,232.1L252.7,232.1z M142.2,167.6
	l-0.3,0.7c0,0-0.5,0.2-0.9,0.2c-0.4,0.1-0.5-0.5-0.4-0.8c0.1-0.3,0.2-0.5,0.4-0.5h0.2c0,0,0.6-0.4,1,0
	C142.4,167.6,142.2,167.6,142.2,167.6z M146.1,174c-0.5,0.2-0.8-0.7-0.8-1c0-0.2,0.3-0.4,0.5-0.6c0,0,0.7-0.1,1,0s0.4,0.6,0.4,1.1
	C147.3,174,146.5,173.8,146.1,174z M149.8,183.6c-0.9-0.1-0.8-1-0.8-1.5s0.3-0.8,0.8-1c0,0,1.6-0.1,2.1,0.8s-0.6,0.8-0.7,1.5
	C151,183.9,150.7,183.7,149.8,183.6z M154.1,221.2h-1l-1.9,0.2l0.2-1c0.1,0,2.3,0,2.3,0l0.5,0.3v0.5H154.1z M160.8,163.2
	c0,0,0.9,0.3,0.9,0.8c0,0.4-0.3,0.3-0.5,0.6c-0.3,0.4-0.6-0.2-0.7-0.4c-0.1-0.2-0.4-0.4-0.3-0.7
	C160.2,163.4,160.4,163.4,160.8,163.2z M158.3,246.2h-0.8v-4.5l0.8,0.1V246.2z M159.5,217.2h-1.4l-0.4-0.7l1.3-1.2h0.7
	c0,0,0.3,1.2,0.3,1.3S159.5,217.2,159.5,217.2z M162.6,180.1c-0.4,1.6-1.5,1.7-1.5,1.7c-0.8,0-1-0.5-1.1-1.2
	c-0.1-0.8,1.1-1.2-0.1-3.2c-1.3-2.1-1.2-4.4-1-4.8s1,0.4,2.4,2.6C162.7,177.4,163,178.4,162.6,180.1z M171,191.8c0,0,0.5-0.2,1,0
	s0,0.2,0,0.7c0,0.4-0.2,0.7-0.4,1c-0.1,0.2-0.9-0.1-0.9-0.2c-0.1-0.1-0.3-0.5-0.3-0.7C170.5,192.4,171,191.8,171,191.8z M165,247.4
	l-0.4-2c0,0,1.7-0.1,1.7,0L165,247.4z M165.4,210.8c-0.2-0.6,0.7-0.9,1.3-0.9s0.8-1.1-0.2-2.5c-1-1.3-1.4-1.9-1.6-2.5
	c-0.2-0.6,0.8-0.9,0.8-0.9c1.1-0.2,1.5,0.6,2.7,2s0.9,3.8,0.6,5.2s-1.8,0.9-2.5,0.8C165.8,211.9,165.5,211.4,165.4,210.8z
	 M168.2,246.2l-0.2,2l-0.6,0.1l-0.5-1.4l0.3-1.3l0.4-0.5l0.6-0.7l2,0.2l1,1.7h-3V246.2z M171.5,224.6v0.4h-0.8c0,0-0.1-1.2-0.2-1.4
	s0.4-0.7,0.4-0.7l0.6,0.7V224.6z M171.6,230.4c-0.4-0.6,0.6-0.9,0.6-0.9s1-0.2,1.5,0.3c0.4,0.4-0.1,0.7-0.9,1.4
	C172.1,231.9,172,231.1,171.6,230.4z M179.8,243.9c-0.4,0.5-3.4,3.2-5.8,1.2c-2.4-2-0.4-4.6-0.4-4.6s3.5-2.5,5.5-3.7
	c2-1.1,2.8-2.4,4.3-1.2C184.9,236.8,180.2,243.4,179.8,243.9z M166.9,299.4l0.2-1.4h1.1h0.5l0.2,1.2l-0.3,0.8h-1L166.9,299.4z
	 M170.7,302.5h-2.2l0.6-0.9h1.6L170.7,302.5L170.7,302.5z M176.9,335.2l-0.7,0.8l-0.8-0.2l-0.2-1.6l1.7-0.4V335.2z M177.6,290v1.3
	l-1.4-0.2l-0.2-0.8l0.4-1h1.2V290z M194.6,332.2c0.7,0.6,2.7,2.7,3.5,3.1c0.7,0.4,0.5,2.1,0.4,2.7c0,0.6-1.4,0.7-1.6,0.8
	c-0.3,0.2-1.9-0.3-2-0.5s-0.3-1.6-0.3-1.6L194.6,332.2L194.6,332.2z M191.2,228.8c0.3-0.8,0.9-1.8,0.9-1.8c0.6,0.6,0.5,0.5,1.2,1.4
	s1.2,1.1,0.9,1.6c-0.4,0.4-0.9,0.6-1.4,1s-1.5,0.9-1.6,0C191.1,230.1,190.9,229.7,191.2,228.8z M190.4,338.8l-0.2,0.8h-1.9l0.3-2.2
	l0.5,1.1L190.4,338.8z M188.4,319.5c0.1-0.2,0.1-0.4,0.4-0.4c0.3-0.1,0.7-0.6,0.6,0.4c-0.1,1-0.2,1.3,0,1.9c0.2,0.6,0.7,1,0,0.9
	c-0.7-0.1-1.1-0.7-1.1-0.7C188.2,321.3,188.3,319.7,188.4,319.5z M184.1,331.3c0,0,0.4,0.6,0.5,1c0.1,0.3,0.7-0.1,1.6,0
	c0.9,0.1-0.2,1.4-0.6,2.6c-0.1,0.4-0.1,0.7-0.1,0.9c0,0,0,0.1,0.1,0.1c0.2,0.1,0,0.2-0.1-0.1c-0.3-0.3-0.6-0.8-0.6-1.2
	c-0.1-0.4-0.5-0.2-0.7-0.2s-0.3-1.2-0.4-1.7S184.1,331.3,184.1,331.3z M178.7,293.7c0-0.1,0-1.7,0-1.7v-0.8h1.6v1.4v1.1
	C180.3,293.7,178.8,293.7,178.7,293.7z M179.6,337h1.9l-0.2,2.3l-1.8,0.2L179.6,337z M185.2,341c-0.8-0.1-0.7-0.8-1.2,0
	s-0.8,1.8-0.9,2.3c-0.1,0.5,0,1.9-0.6,2.3c-0.6,0.4-1.3,1.2-1.5,0s0-1.6-0.7-1.9s-1-1-0.6-1.1c0.5-0.2,1.1-0.8,1.7-1.5
	c0.6-0.7,1.4-1.8,1.8-2.4c0.5-0.5,1.1-1.5,2.1-1.6c1-0.2,1.8-0.5,1.8,0.7c0.1,1.1,0.1,2.6,0.4,3.3c0.3,0.7,0.4,2.9-0.5,2
	C186.1,342.2,186,341,185.2,341z M187.2,384.5c0,0,0.1-2.5,0-2.7c0,0,1.2,2.6,1.3,2.7C188.5,384.5,187.2,384.5,187.2,384.5z
	 M189.2,349.8c-0.5,0.2-1.1,1.7-1.2,0.2c-0.1-1.5-0.1-1.5-0.4-1.9c-0.4-0.4-0.8-0.2-0.8-1.3c0-1.1-0.1-2.5-0.1-2.5
	c0.3,0.1,1.2,0,1.3,0.5c0.2,0.5,0.5,1.7,0.5,2.2s0.1,0.6,0.4,0.8C189.1,348.2,189.7,349.7,189.2,349.8z M191.8,404h-1l0.3-2h0.6
	L191.8,404L191.8,404z M194.8,399.5c0,0-1.4,0.1-1.6,0l0.8-2.2l0.8,0.7V399.5z M193,383.8c-1,0.5-1.8,0.1-3-1.4s0.1-3.2,0.4-3.5
	c0,0,1.3-0.8,1.9-1.3c0.6-0.4,1.1-0.4,1.9,0c0.9,0.4,0.5,0.6,1.6,0.8s2.8-0.3,4,0.5c1.2,0.7-1.4,1.7-2.3,2.6
	C196.6,382.2,194,383.3,193,383.8z M199.1,392.2c-0.5,0.1-0.8-0.1-1.2-0.3c-0.4-0.3,0.1-1.6,0.3-1.8c0.2-0.2,0.8-0.5,0.9-0.6
	c0,0,1.4,1.4,1.4,1.7C200.5,391.3,199.7,392,199.1,392.2z M215,332.7c0.5-1.3,0.5-0.3,0.7-2s0.9-1.5,0.2-2.2
	c-0.7-0.8-0.6-1.8-0.6-1.8c0.1-0.1,1-0.2,1.3-0.2s0.8-0.9,0.7,0.2c-0.1,1.1,0,2.9,0,2.9s0.1,3.1,0,3.3c-0.1,0.2-0.7,0.8-1.7,0.6
	C214.6,333.2,214.5,334,215,332.7z M213.4,381.8l-0.5,1.1l-1.5,0.3l-0.5-1.4H213.4z M208.6,287.5l0.4,0.2v0.8l0.8,0.2l-0.2,0.6
	l-2.7-0.1c0.1-0.1,0.9-0.7,0.9-0.7V288l0.4-0.4h0.4V287.5z M207.2,277l0.9,1.2l-0.4,0.7h-0.8l-0.3-1L207.2,277z M202.4,253.6
	l0.7-0.8l0.9,0.2c0,0,0.3,0.6,0.4,0.8c0,0.2-0.7,0.7-0.7,0.7l-1.2,1.3L202.4,253.6L202.4,253.6z M202,279.4l1.3-0.7l1.9,0.3
	c0,0,0.8,1.3,0.7,1.5s0,1.2,0,1.2l-0.7,1.1c0,0.1-1.2,0.3-1.2,0.3h-1l-1.2-1l-0.5-1.1L202,279.4z M203.6,375.5
	c-0.5,0.3-1.1,0.4-1.2-0.2c-0.2-0.5,0.1-0.9,0.4-1.1c0,0,1,0.2,1.6,0.3C205,374.5,204.1,375,203.6,375.5z M208.6,383
	c-0.4,0.3-0.7,1.3-1.3,0s-0.2-1.7-1.2-1.4c-1,0.3-1.5-0.3-1.2,1.5s1.2,3.3,0.1,3.6c-1.1,0.3-0.8,0.7-2,0s-1.8-0.7-1.7-1.3
	s0.4-0.4,0.8-1.6c0.4-1.2,0.8-1.7,0.1-1.8c-0.7-0.2-1.3,0.9-1.3-0.6s0.3-1.8,0.8-2c0.6-0.2,0.6-0.2,0.6-0.2c-0.1-0.2-0.5-1.6,0-1.8
	s1,0,1.7-0.9c0.7-0.8,2.6-1.3,2.8-0.6c0.2,0.6-0.1,1.3,0.3,1.8c0.3,0.5,0.7,1.5,1.2,1.9c0.5,0.4,1,0,0.9,1.1
	C209.3,381.8,209,382.8,208.6,383z M206.9,371.5V370l1.1,0.5L206.9,371.5z M209.2,306.4l-0.7-0.1l-0.3,0.8c-0.1,0-2.4,0.2-2.4,0.2
	l0.2-1.9c0.1,0,0.9-0.1,0.9-0.1l0.9-0.8l0.8-0.1l1,0.5l0.2,0.5L209.2,306.4z M209.7,295.7l-0.2-0.8v-1.1l0.9-0.3v0.7l-0.2,1.5
	L209.7,295.7L209.7,295.7z M211.6,407.5l-1.3-0.3l0.8-1.5l0.6-0.3c0,0,0.2,0.7,0.2,0.9C211.9,406.5,211.6,407.5,211.6,407.5z
	 M213.2,405h-0.6v-2.1c0.2-0.1,0.8-0.7,0.8-0.7l0.3,1.5L213.2,405z M215.3,384.8l-1.2-0.4l0.7-1l-0.1-1.4c0.1,0,1.5,0.7,1.5,0.7
	l0.3,1.3L215.3,384.8z M217.5,358.3c-0.8-0.8-2.3-0.8-1.7-2.3s1.1-2.4,1.1-2.4c0.5-0.6,1.5-0.2,1.2-1.5c-0.3-1.2-0.5-3-1.2-4.5
	c-0.6-1.5-1-4.1-0.8-5.6s0.5-1.9,1.2-1.7c0.7,0.1,1.2,1.8,1.1,2.8c-0.1,1-0.5,3.9,0.6,5.2c1.2,1.3,1.6,4.3,1.6,5.1
	c0,0.8,0.1,2.8-0.7,3.4C219.3,357.5,218.3,359.2,217.5,358.3z M219.9,362.3h1v2.9h-1.5C219.4,365.2,220,363.2,219.9,362.3z
	 M222.2,382.5l-1.1-0.9h-0.4c0,0,0.1-6.3,0.2-6.6l1,1.9l0.5,1.4l0.8,1.8c0,0,0.4,1.4,0.4,1.7c0.1,0.3,0.5,0.6,0.5,0.6v1.3h-0.7
	L222.2,382.5z M225.8,399.5c0.1,0.1-1.6,0.4-1.6,0.4l-0.7-1v-2c0,0,0.4-0.5,0.8-0.6c0.4-0.1,0,0,0.4,0.1c0.4,0.1,0.9,0.8,1.1,1.5
	C226,398.5,225.7,399.2,225.8,399.5z M289.5,260.5c0.3-0.3,1.2-0.7,1.6-0.4c0.3,0.3,1,0,0.7,0.8s-0.8,1-1.1,1.1
	c-0.3,0.1-1.2,0-1.2,0V260.5z M283.3,215.2c0.1,0,0.3-0.2,0.9,0c0.7,0.2,0.6,0.2,1.1,0.6c0.5,0.4,1.6-0.2,0.8,0.7
	c-0.8,0.9-0.5,1-1.5,0.8c-1.1-0.1-1.1,0.6-1.3-0.4C283.2,215.9,283.3,215.2,283.3,215.2z M283.3,230.2l-0.7,1.2c0,0-1.1-0.1-1-0.2
	c0-0.1,0-1.7,0-1.7h1L283.3,230.2z M282,193.2c0,0.4,0.2,1.2-0.7,1c-0.9-0.1-1.2,0-1.8,0c-0.6,0-1.1,0.1-1.2,0s0-1,0-1
	c0.3,0,2-0.1,2.4-0.1C281.2,193.2,282.1,192.9,282,193.2z M275.4,163.8c0,0,2.2-0.1,2.5,0c0,0,2.5,0.6,1.9,1.4
	c-0.6,0.8-0.2,0.4-1.4,1.7c-1.2,1.3-2,0-2,0s-1.3-0.4-1.5-1.2C274.7,164.8,275.4,163.8,275.4,163.8z M270.8,219.4
	c-0.2-0.5-0.8-0.3,0-0.9c0.8-0.6,1.3-1.4,1.5-1.1c0.3,0.4,1.3,0.2,0.9,0.9s-0.8,0.8-0.9,1.2s0.1,0.8-0.6,0.7
	C271,220.2,270.8,219.4,270.8,219.4z M271.7,320.5c0,0-0.8,0.6-0.9,0.6s-1,0-1,0l-0.2-1.6c0,0,1-0.2,1.2-0.2
	C270.9,319.2,271.7,320.5,271.7,320.5z M271.6,240.9c0.6-0.2,1.4-0.6,1.5,0s0.8,1,0.5,1.4s-0.7,0.7-1.2,0.5s-0.1-0.3-0.5-0.7
	C271.5,241.6,271.4,240.9,271.6,240.9z M270.8,210.4c0.7-0.1,1.6-0.2,1.8,0.2c0.3,0.4,0.9,0.5,1,1.2c0,0.6,0.1,1.3-0.1,1.7
	c-0.3,0.4-0.2,0.3-1.1,0.1c-0.9-0.1-1.2-0.3-1.7,0.2s-0.7,1-1.2,1.7s-0.6,1.2-1.3,1c-0.6-0.2-0.8-0.9-0.8-0.9
	c0.3-0.7,0.8-1.1,0.9-1.7c0-0.6,0.1-2.1,0.6-2.5C269.4,210.9,270.2,210.4,270.8,210.4z M263.8,284.9c-0.1-0.3-0.9-0.6-1-1.1
	c-0.2-0.6,1-1.1,1.4-1.2c0.5-0.1,0.6-0.7,0.6-1.3s-0.8-0.5-1.7-0.8c-0.9-0.3,0.1-0.8,0.8-0.8s1.9,0.9,2,1.8c0.1,0.9,0.3,0.8,0.8,2.1
	c0.5,1.4,0,1.4-0.5,2.7c-0.5,1.4-0.8,0.8-1.3,1.1c0,0-0.9-0.1-1.1-0.2c-0.2-0.1-0.1-0.6,0.3-1C264.4,285.9,263.8,285.2,263.8,284.9z
	 M259.7,273.4c-1.1,0-1.8-0.8-1.6-1c0.2-0.2,0.3-0.7,0.3-0.7c0.9-0.8,0.6-1,1.3-1.2c0.7-0.2,1.2-0.3,1.6,0s0.9,2,0.6,2
	C261.6,272.5,260.8,273.4,259.7,273.4z M259.8,288.5c0,0-0.8-0.8-0.8-0.9c0-0.1,0.2-1.1,0.4-1.2c0,0,0.2,0.4,0.7,1.2
	C260.5,288.5,259.8,288.5,259.8,288.5z M262.3,251.2c-0.2-0.3-0.5-0.6-0.5-0.6c-0.2-0.6-0.7-2.3-0.2-2.5s1.1-1,1.3-0.2
	s0.5,1.3,0.9,1.5s0.6,0.9,0.4,1.3c-0.2,0.3-0.5,1.6-0.9,1.5C262.9,251.9,262.5,251.4,262.3,251.2z M263,264.7
	c-0.1,0.4-0.3,0.1-0.6,0c-0.4-0.1,0.1-2,0.2-2.6c0.1-0.6,0.3-0.7,0.5-0.8c0,0,0.2,1.2,0.3,1.8C263.4,263.7,263.1,264.2,263,264.7z
	 M261,274.2c0.4,0.1,0.8,0,1.2,0c0.4,0,0.8-0.1,0.6,0.8c-0.3,0.9,0,1.3-0.8,1.2c-0.8-0.2-1.2-0.1-1.1-0.6
	C260.8,275.2,261,274.2,261,274.2z M264.3,292.7c0.6-0.7,0.6-1.7,0.2-1.7s0.2-0.6,0.2-0.6c0.4-0.1,1.3-0.8,1.7-0.2
	c0.4,0.6,1.1,1.1,1.3,1.2c0.2,0.1,2.7,1,0.6,1.5s-1.6,0.4-2.6,0.4C264.8,293.4,263.7,293.4,264.3,292.7z M268.2,250.9
	c-0.2,0.2-0.3,1-0.9,0.8c-0.7-0.2-1,0-0.8-0.8c0.3-0.8-0.6-1-0.2-1.5c0.5-0.5,0.3-0.7,0.8-1s0.9-0.4,1.2-0.2
	c0.3,0.3,1.1,1.4,1.1,1.5S268.4,250.8,268.2,250.9z M267.1,173.6c1-0.6,0.6,0,1.2,0.4c0.6,0.4,0,0.7,0,1.4s-1.1,0.4-1.6,0.4
	c0,0-0.6-0.6-0.8-1.2C265.7,174,266.1,174.1,267.1,173.6z M266.9,212.7c-0.5,0.1-0.8,0.6-0.9-0.4c0-0.9-0.2-1.4,0.2-1.9
	c0.4-0.5,0.7-1.5,0.9-1c0.3,0.5,0,0.6,0.3,1.7C267.6,212.2,267.3,212.6,266.9,212.7z M264.9,241.9c0.3-0.3,1.1-1.3,2-1.4
	c0.9-0.2,1.5-0.7,1.7,0s0.1,1.5,0,2.2s0,1.3-0.7,1.7s-1,0.5-2.3,0.8s-1,0.5-1.9,0.6c-1,0.1-1.1,0.6-1.5-0.3c-0.4-0.9-0.5-1.8,0.3-2
	C263,243.4,264.5,242.2,264.9,241.9z M263.7,212.4c-0.1,0.3-0.1,0.5-0.5,0.5s-1.2,0.6-1.3,0c0-0.6,0.1-1,0-1c-0.5,0,0.5-0.3,1-0.1
	C263.5,211.9,263.8,212.1,263.7,212.4z M260.8,199.1c0.4-0.3,0.5-0.7,0.6-1.2c0.2-0.5,0.5-0.3,0.7-0.4c0.3,0,0.3,0.2,0.4,1
	s-0.2,0.4-0.3,1.6c-0.1,1.2-0.7,0.2-1.2,0c0,0-0.4,0-0.6-0.2C260.3,199.8,260.4,199.4,260.8,199.1z M255.2,231.2l-1.7,0.2v-1.9
	l1,0.1l0.1,0.8l0.7-0.1L255.2,231.2z M259,241.2c-0.1,0.5-0.2,2.4-0.9,2.3c-0.7-0.1-0.3-0.5-1.2-0.8c-0.9-0.3-1.6,0.3-1-1.1
	c0.7-1.4,0.8-2.2,0.8-2.2c0.5-0.7,0.6-1.8,1.8-1.8c1.2,0,1.5-0.5,1.8,0c0.2,0.5,0.6,1.2,0,1.8S259.1,240.7,259,241.2z M255.4,266
	c0.2-1.1,0.8-2.8,0.8-2.8c0.8,0.6,1.4,1.2,1.9,0.9s0.3-0.6,1.2-0.4c0.9,0.2,1.2,0.3,1.7,1.4s1.1,1.2,0.6,2.3c-0.5,1-0.2,1.5-1.2,1.5
	s-1.2,0.1-1.9,0.5c-0.6,0.4-0.5,1.9-1.1,0.4s0.2-1.2-0.6-2.2C256.1,266.5,255.3,267.2,255.4,266z M254.5,348.7
	c0.2,0.6,1.2,0.9,0.3,1.2c-0.9,0.3-0.9,0.2-1.8,0.3c-0.9,0.1-1.4-0.8-1.4-0.8c0.9,0,1.3-0.4,1.3-0.7c0.1-0.4-0.3-0.6,0.4-0.6
	S254.2,348.2,254.5,348.7z M254.1,317.2l-0.8,3.6h-0.8v-3.3C252.6,317.3,254.1,317.2,254.1,317.2z M247.6,284.9c0,0,2.9,4.5,3.5,4.9
	s1.8,0.7,1.1,1.3c-0.7,0.6-1.9,1.2-1.5,2.2c0.4,0.9,0.7,3.1,1.2,3.6c0.5,0.6,1.1,1.2,1,2.8c-0.1,1.5-0.7,2.5-1.7,2.4
	c-1,0-2.2,0.6-2-0.4s0.7-0.9,1-1.6s1.1-1.6,0.3-1.7s-1,1.1-1.2,0s0-1.9-0.4-2.7c-0.4-0.8-0.6-4-1.2-4.8c-0.6-0.7-0.6-2.7-0.4-3.9
	C247.5,285.9,246.8,284.9,247.6,284.9z M243.6,323.2l-1.1-1v-2h2.2v1.5L243.6,323.2z M244.5,328v0.9l-1.6,0.3l0.3-1L244.5,328z
	 M240.6,308.9c0.3-0.2,1.3-0.7,1.5-0.3c0.2,0.4,1.2,2.2,1.4,2.5c0.3,0.3,1.6,1.3,1.1,1.8s-1.2,2.7-1.7,1.7c-0.5-1.1-0.3-0.8-0.8-1.9
	c-0.5-1.1-1.2-1.7-1.5-2.1C240.2,310,240.6,308.9,240.6,308.9z M238.8,328c0,0,0.8-0.2,0.8,0s0,0.9,0,0.9h-1.2L238.8,328z
	 M235.8,332.8h0.7l1.2,0.6l0.7,1l-1,1c0,0-1,0.6-1.2,0.4c-0.1-0.2-0.7-0.2-0.9-0.5s-0.5-1-0.5-1.2C235,334,235.8,332.8,235.8,332.8z
	 M231.5,372c0,0,0.9-0.1,0.9,0c0,0.1,0,2,0,2H231L231.5,372z M231.2,397.5c0.1-0.9,0.2-0.5,0.8-1.6c0.6-1.1,0.7-1.8,0.9-1.8
	c0.1,0,0.7,0,0.7,0c0.1,0,1,0,1.1,0.3s0.2,0.8,0.3,2s0.4,1.8,0,1.9c-0.4,0.1-1.2-0.9-1.9-0.9S231.1,398.5,231.2,397.5z M235.7,404.8
	c0,0-0.9,0.5-0.9,0.3s0-1.8,0-1.8c0.1,0,1.2-0.2,1.2-0.2L235.7,404.8z M240.6,397.5c-0.4,0.7-1,1-1,1l-1.1-0.8c0,0-1.4-0.8-1.3-1.1
	c0.1-0.3,1.2-1.4,1.2-1.4l0.6-0.2l-0.2,0.2c0,0,1.3,0.9,1.5,1.1C240.5,396.3,241.1,396.7,240.6,397.5z M239.7,384.8
	c-0.4,0.5-1.1,0.5-1.5,0.6c-0.3,0.1-2.2-0.2-2.2-0.2c-0.3-0.1-0.7-1.7-0.5-2s0.4-0.6,1.3-1.2c0.8-0.6,1.4-0.5,2.6,0
	c1.2,0.5,0.6,0.1,1.3,1.4C241.3,384.8,240.1,384.3,239.7,384.8z M242.8,358c-0.5-1-1-2.9-1.9-3.4c-0.8-0.5-1.1-0.3-2.1-0.2
	c-1,0.1-1.8,0.4-3-0.2c-1.1-0.6-1.7-1.4-1.2-1.4s2.2,0.3,3.2-0.4c1-0.8,2.8-2.1,3-2.4s1.4-1.7,1.8-1.3c0.4,0.3,0.8,2.4,1.1,2.9
	s1.5,2.4,1.7,3c0.2,0.7,1,2.8,1.3,3.5c0.3,0.8-0.6,2.3-0.9,3.5c-0.3,1.2-0.2,5.2-0.7,5.2s-0.9,0.1-1.2-1.5c-0.3-1.6-0.4-1.3-1-2.9
	C242.4,360.8,243.3,359,242.8,358z M246.8,374.8c-0.2,0-2.2,0.1-2.2,0.1v-1.2h1.8C246.5,373.8,247,374.8,246.8,374.8z M254.7,385.2
	L254.7,385.2c0.1,0.4-0.9,1-1.9,1.2s-1.5,0.6-2.1,1.1c-0.7,0.5-2.3,1.8-2.5,2.1c-0.2,0.3-1.3,2.7-1.3,3.1c0,0-1.3-0.9-2.1-1.6
	c-0.9-0.7-1.2-0.6-1.6-1.2c-0.4-0.6,0.2-0.8,1-1.3c0.9-0.6,0.9-0.6,1.8-2c0.9-1.3,0.3-2.1,0.1-2.7c-0.1-0.7-0.1-0.7,0.3-1.1
	c0.4-0.4,1-0.2,1.9,0.7s1.1,0.1,2.4,0.8c1.3,0.7,0.5,0.3,3.2,1C254.3,385,254.5,385,254.7,385.2C254.7,385,256.2,385.5,254.7,385.2z
	 M255.5,320.2c0.5-0.8,1.1-1.8,1.1-1.8c1-0.4,1.6-1.4,2-0.5c0.4,0.9,1.7,0.5,0.6,1.7s-0.5,1.3-2.1,1.2
	C255.7,320.8,255.1,321,255.5,320.2z M258.3,350.2h-2.9v-2.9l0.1-1.9h0.2c0,0,0.9,0.3,1.4,0.6s0.2,0.4,0.3,1.3c0.1,0.9,1,0,2.3-0.2
	s0.9,0.4,1,1.5c0.1,1-1.1,0.5-1.9,0.8C258.1,349.8,258.3,350.2,258.3,350.2z M261.6,381.8L260,382l-0.4-2.2c0.1,0,2.1,0.2,2.1,0.3
	C261.6,380.2,261.6,381.8,261.6,381.8z M267.6,346.8c-0.4,1.1-0.7,2.1-1.5,1c-0.8-1.1-1.1-0.7-0.5-1.4c0.6-0.7,0.9-1,0.9-1
	C267.5,346.2,268,345.7,267.6,346.8z M269,332.2c-0.3-0.1-0.1-0.5-1.2-1.6c-1.1-1.1-1.9-3.1-3-3.1s-0.9-0.2-1.8,0.1s0.2,1.4-1.1,1.2
	c-1.2-0.2-1.5,0.8-1.8-0.5s0.5-0.9-0.8-2.1s-1.9-1.1-1-2.1c0.9-0.9,1.8-2.4,1.8-2.4c0.5,1,1.1,1.8,2.4,1.7c1.2-0.1,1.6,0.4,2.3,0
	c0.7-0.4,2.7-1.3,2.8-0.2c0.2,1.1,0.8,2.9,0.8,2.9s1.6,2,1.8,3.1C270.4,330.3,269.3,332.2,269,332.2z M271,338.5c0,0-1.7,0.1-1.7,0
	c0-0.1,0.2-2.9,0.2-2.9c0.1,0,1.8-0.2,1.8-0.2L271,338.5z M272.9,330.8c0,0-1.4,0-1.7,0v-1.2l0.2-1.1l0.7-0.4h0.9v2.7H272.9z
	 M274,247.7c-0.9,0.2-1.4,0.3-1.9,0.5s-0.7,0.3-0.8-0.2c-0.2-0.5,0-1.2,0-1.2c0.6,0.2,2.1,0.3,2.4,0.4
	C274.1,247.2,274.9,247.4,274,247.7z M274,168.8v-1.3l2,0.7l-0.6,0.7L274,168.8L274,168.8z M279,304.7c0,1.1-0.1,2.9-0.8,2.7
	c-0.7-0.3-1,0.1-1.4-1c-0.3-1.1,0.1-1.2,0.4-1.8c0.3-0.6-0.1-1.1-0.1-1.1c0.1-1.1,0.2-1.2-0.8-2.3s-2.2-1.6-1.5-2.9
	c0.7-1.2,1.7-2.4,2.3-1.7c0.6,0.7,0.8,1.9,0.9,2.6c0,0.7,0.2,1.8,0.5,2.2C278.9,301.7,279.1,303.5,279,304.7z M279.8,239.2
	c-0.6,0.5-0.3,0.5-1,0.8c-0.7,0.4-1.1,1.7-1.5,0.4c-0.3-1.3,0.3-1-0.2-1.5s-0.2-1.6-0.2-1.6c0.3-0.4,0.7-1.3,0.9-1.3
	c0.2,0,0.6,0.3,0.8,0.7c0.2,0.4,0.9,1.2,1.1,1.4C280,238.2,280.4,238.9,279.8,239.2z M281.3,245.6c-0.2-0.8-0.3-1-0.7-1.1
	c-0.3-0.1,0-1.1,0-1.1c1.1-0.3,0.7-1,1.9-0.5c1.1,0.5,2.4,0.1,2.1,0.9c-0.3,0.9,0,1.2-0.9,1.5C282.8,245.6,281.6,246.4,281.3,245.6z
	 M286.5,272.9c-0.2,0.4-0.2,0.8-0.7,1s-0.3,1.3-1,0.8c-0.6-0.4,0.2-0.7-0.6-0.9c-0.8-0.2-1.3-0.3-1.1-0.6c0.1-0.3,0.7-0.3,0.7-0.3
	s1.2-0.2,1.8-0.3C286.2,272.4,286.7,272.5,286.5,272.9z M286.9,238.2c-0.6,0.3-0.7,0.5-1.1,0.3s-0.7-0.3-0.5-0.7s0.5-0.6,0.5-0.6
	c0.3-0.4,0.5-1,0.8-0.9s0.6,0,0.5,0.6C287,237.7,287.5,238.1,286.9,238.2z M288,222.2c0,0-0.2,1.2-0.4,1.3c-0.2,0-1.5,0-1.5,0v-1.5
	l0.3-0.7l-0.3-1.4l2,0.7L288,222.2z M288.4,176.4c-0.2,0.6-0.2,0.9-0.5,1.1c-0.3,0.2-1.4,0-1.4,0v-1.1c0.5-0.1,0.6-0.6,1.2-0.6
	C288.1,175.8,288.6,175.9,288.4,176.4z M288.1,158.8c-0.3,0.3-0.9,2.1-1.5,3.1s-0.3,1.4-0.5,2c-0.2,0.5-1.1-0.5-1.4-0.9
	c-0.2-0.3-0.1-1.5-0.7-1.9l-0.4-0.6c0,0,0.7-0.3,1.9-0.5c1.2-0.2,1-1.1,1.5-2.1s1.2-1,1.9-0.8C289.6,157.1,288.4,158.5,288.1,158.8z
	 M291.4,217.4c0,0.7-0.3,1.1-1.4,0.8s-0.7-0.9-0.7-0.9c0.3-0.2,1-0.4,1.2-0.9s0.8-1.5,0.9-0.5C291.6,216.8,291.5,216.7,291.4,217.4z
	 M293.7,213.4c-0.8,0.5-0.8,0.5-0.8,0.5s-0.5-1.1-0.5-1.3s0.4-0.4,1-0.3h1.1C294.6,212.2,294.5,212.9,293.7,213.4z M294.8,210.7
	c-0.7,0.2-1.8,0-1.8,0c0-0.6,0-1.2,0.7-1.4c0.6-0.2,1.2-1,1.1,0C294.7,210.2,295.5,210.4,294.8,210.7z M295.2,190.1
	c-0.3,0.4-0.6,0.4-1,0.5s-1,0.4-0.8-0.1s0.7-1.1,0.7-1.1c0.7-0.1,0.9-0.6,1.1-0.2C295.4,189.4,295.5,189.8,295.2,190.1z
	 M294.8,178.8c-0.3,0.7-1.1,0.3-1.6,0s-0.2-1,0-1.3s1.4-0.8,1.6-0.8c0,0,0.3,0.8,0.5,1.2C295.5,178.2,295.2,178.1,294.8,178.8z
	 M297.8,206.4c-0.3,0.6-0.2,1.4-0.5,1.9s-0.9,1-1.3,0.4c-0.3-0.3-0.4-0.4-0.3-1.8c0.1-1.4,0.7-1.9,0.7-1.9s1.1-1,1.5-0.3
	C298.2,205.4,298.1,205.9,297.8,206.4z M301.2,199.9c-0.1,0.7,0,1,0,1.5s-0.4,0-0.9,0s0-0.7,0-1.3c0.1-0.5-0.7-1.4,0-1.5
	C301.2,198.4,301.3,199.2,301.2,199.9z M307.2,187.8c-0.5,0.2-0.6,0.2-0.7,0.4c-0.2,0.3,0.1,0.7-0.5,0.5s-0.8-0.1-0.6-0.5
	c0.2-0.5,0.1-1,0.1-1s1.3-0.3,1.6,0C307.3,187.4,307.7,187.6,307.2,187.8z"/>
<g>
	<path fill="#FFFFFF" d="M38.2,574.3c-2-1.5-2.7-2-2.9-2.2c-0.5-0.5-0.8-0.9-1-1.3c-0.2-0.4-0.3-0.8-0.3-1.2c0-0.7,0.2-1.2,0.7-1.6
		c0.5-0.5,1.1-0.7,1.8-0.7c0.6,0,1.2,0.1,1.7,0.5c0.5,0.3,1.2,1,2,2.1l0.3,0.5l2.7-2.1l-0.3-0.4c-1.1-1.5-2.1-2.5-3.1-3.1
		c-2-1.1-4.4-1.1-6.3-0.1c-0.9,0.5-1.7,1.2-2.2,2.1c-0.5,0.9-0.8,1.9-0.8,3c0,1.4,0.4,2.6,1.3,3.8c0.5,0.7,1.7,1.7,3.6,3.2
		c1.8,1.4,3.1,2.5,3.7,3.5c0.4,0.6,0.7,1.3,0.7,1.9c0,0.6-0.1,1.1-0.4,1.6c-0.3,0.5-0.7,0.9-1.3,1.2s-1.2,0.5-1.9,0.5
		c-1.5,0-2.9-1.2-4.2-3.4l-0.3-0.5l-2.9,1.7l0.3,0.5c1,1.8,2.1,3.1,3.3,3.9c1.2,0.8,2.6,1.2,4,1.2c1.9,0,3.6-0.7,4.9-2
		c1.4-1.3,2-2.9,2-4.7c0-1.2-0.4-2.5-1.2-3.7C41.6,577.1,40.2,575.8,38.2,574.3z"/>
	<path fill="#FFFFFF" d="M58.8,563.8c-2.2,0-4.3,0.6-6.2,1.6c-1.9,1.1-3.4,2.6-4.5,4.6c-1.1,1.9-1.6,4-1.6,6.3
		c0,3.4,1.2,6.3,3.6,8.7c2.4,2.4,5.4,3.6,8.9,3.6c3.4,0,6.4-1.2,8.8-3.6c2.4-2.4,3.6-5.4,3.6-8.8c0-3.5-1.2-6.4-3.6-8.8
		S62.3,563.8,58.8,563.8z M67.9,576.2c0,1.7-0.4,3.3-1.2,4.6c-0.8,1.4-1.9,2.5-3.3,3.3c-1.4,0.8-2.9,1.2-4.6,1.2
		c-2.5,0-4.6-0.9-6.3-2.6c-1.8-1.8-2.6-3.8-2.6-6.4c0-1.7,0.4-3.3,1.2-4.6c0.8-1.4,1.9-2.5,3.3-3.3c1.4-0.8,2.9-1.2,4.5-1.2
		s3.1,0.4,4.5,1.2s2.5,1.9,3.3,3.3C67.5,573,67.9,574.5,67.9,576.2z"/>
	<polygon fill="#FFFFFF" points="90.6,580.8 76.4,564.5 75.1,564.5 75.1,588.1 78.6,588.1 78.6,572 92.6,588.1 94,588.1 94,564.5 
		90.6,564.5 	"/>
	<rect x="98.3" y="564.5" fill="#FFFFFF" width="3.4" height="23.7"/>
	<path fill="#FFFFFF" d="M118.8,565.2c-1.6-0.6-4.1-0.8-7.5-0.8H106v23.7h7.7c2.9,0,5.2-0.4,6.8-1.3c1.6-0.9,3-2.2,4-4
		s1.5-3.9,1.5-6.2c0-2.7-0.7-5.1-1.9-7.1C122.9,567.5,121.1,566,118.8,565.2z M109.3,567.8h1c3.2,0,5.5,0.2,6.8,0.6
		c1.7,0.5,3.1,1.5,4.1,3c1,1.4,1.5,3.2,1.5,5.3c0,1.9-0.5,3.6-1.4,4.9c-0.9,1.3-2.1,2.2-3.7,2.8c-1.1,0.4-3.3,0.6-6.3,0.6h-2V567.8z
		"/>
	<path fill="#FFFFFF" d="M150,567.5c-2.4-2.4-5.4-3.6-9-3.6c-2.2,0-4.3,0.6-6.2,1.6c-1.9,1.1-3.4,2.6-4.5,4.6
		c-1.1,1.9-1.6,4-1.6,6.3c0,3.4,1.2,6.3,3.6,8.7c2.4,2.4,5.4,3.6,8.9,3.6c3.4,0,6.4-1.2,8.8-3.6c2.4-2.4,3.6-5.4,3.6-8.8
		C153.6,572.8,152.4,569.8,150,567.5z M150.2,576.2c0,1.7-0.4,3.3-1.2,4.6c-0.8,1.4-1.9,2.5-3.3,3.3c-1.4,0.8-2.9,1.2-4.6,1.2
		c-2.5,0-4.6-0.9-6.3-2.6c-1.8-1.8-2.6-3.8-2.6-6.4c0-1.7,0.4-3.3,1.2-4.6c0.8-1.4,1.9-2.5,3.3-3.3c1.4-0.8,2.9-1.2,4.5-1.2
		s3.1,0.4,4.5,1.2s2.5,1.9,3.3,3.3C149.8,573,150.2,574.5,150.2,576.2z"/>
</g>
<g>
	<polygon fill="#FFFFFF" points="490.9,581 483.8,564.5 480.1,564.5 490.3,588.1 491.5,588.1 501.8,564.5 498.1,564.5 	"/>
	<rect x="504.1" y="564.5" fill="#FFFFFF" width="3.4" height="23.7"/>
	<path fill="#FFFFFF" d="M524.7,565.2c-1.6-0.6-4.1-0.8-7.5-0.8H512v23.7h7.7c2.9,0,5.2-0.4,6.8-1.3c1.6-0.9,3-2.2,4-4
		s1.5-3.9,1.5-6.2c0-2.7-0.7-5.1-1.9-7.1C528.8,567.5,527,566,524.7,565.2z M515.2,567.8h1c3.2,0,5.5,0.2,6.8,0.6
		c1.7,0.5,3.1,1.5,4.1,3c1,1.4,1.5,3.2,1.5,5.3c0,1.9-0.5,3.6-1.4,4.9c-0.9,1.3-2.1,2.2-3.7,2.8c-1.1,0.4-3.3,0.6-6.3,0.6h-2
		L515.2,567.8L515.2,567.8z"/>
	<polygon fill="#FFFFFF" points="535.6,588.1 549.6,588.1 549.6,584.8 539,584.8 539,577 549.6,577 549.6,573.8 539,573.8 
		539,567.8 549.6,567.8 549.6,564.5 535.6,564.5 	"/>
	<path fill="#FFFFFF" d="M573,567.5c-2.4-2.4-5.4-3.6-9-3.6c-2.2,0-4.3,0.6-6.2,1.6c-1.9,1.1-3.4,2.6-4.5,4.6
		c-1.1,1.9-1.6,4-1.6,6.3c0,3.4,1.2,6.3,3.6,8.7c2.4,2.4,5.4,3.6,8.9,3.6c3.4,0,6.4-1.2,8.8-3.6c2.4-2.4,3.6-5.4,3.6-8.8
		C576.6,572.8,575.4,569.8,573,567.5z M573.2,576.2c0,1.7-0.4,3.3-1.2,4.6c-0.8,1.4-1.9,2.5-3.3,3.3c-1.4,0.8-2.9,1.2-4.6,1.2
		c-2.5,0-4.6-0.9-6.3-2.6c-1.8-1.8-2.6-3.8-2.6-6.4c0-1.7,0.4-3.3,1.2-4.6c0.8-1.4,1.9-2.5,3.3-3.3c1.4-0.8,2.9-1.2,4.5-1.2
		s3.1,0.4,4.5,1.2s2.5,1.9,3.3,3.3C572.8,573,573.2,574.5,573.2,576.2z"/>
</g>
<g>
	<rect x="208.5" y="564.5" fill="#FFFFFF" width="3.4" height="23.7"/>
	<polygon fill="#FFFFFF" points="220.8,564.5 217.4,564.5 217.4,588.1 229.5,588.1 229.5,584.8 220.8,584.8 	"/>
	<path fill="#FFFFFF" d="M246.2,578.6c0,2.1-0.1,3-0.2,3.4c-0.2,0.7-0.5,1.3-0.9,1.8s-0.9,0.9-1.5,1.2c-1.3,0.6-2.8,0.6-4.2-0.1
		c-0.8-0.4-1.3-0.8-1.7-1.3s-0.6-1.2-0.7-2c0-0.3-0.1-1-0.1-2.9v-14.2h-3.4v14.2c0,2.4,0.1,4,0.4,4.9c0.5,1.6,1.4,2.8,2.8,3.8
		c1.4,0.9,3.1,1.4,5,1.4c1.8,0,3.4-0.5,4.6-1.5c1.3-1,2.1-2.2,2.6-3.5c0.4-1.3,0.6-3,0.6-5.1v-14.2h-3.4L246.2,578.6L246.2,578.6z"
		/>
	<polygon fill="#FFFFFF" points="276.6,564.5 267.8,582.2 259,564.5 257.8,564.5 254.4,588.1 257.7,588.1 259.8,573.2 267.2,588.1 
		268.4,588.1 275.8,573.3 277.8,588.1 281.2,588.1 277.8,564.5 	"/>
	<rect x="285.6" y="564.5" fill="#FFFFFF" width="3.4" height="23.7"/>
	<polygon fill="#FFFFFF" points="310,580.8 295.8,564.5 294.5,564.5 294.5,588.1 298,588.1 298,572 312,588.1 313.4,588.1 
		313.4,564.5 310,564.5 	"/>
	<path fill="#FFFFFF" d="M328.1,564.5l-11.2,23.7h3.8l3.5-7.4h9l3.5,7.4h3.7l-11-23.7L328.1,564.5L328.1,564.5z M331.7,577.5h-5.9
		l3-6.3L331.7,577.5z"/>
	<path fill="#FFFFFF" d="M363.4,582c-2,2.4-4.5,3.5-7.5,3.5c-2.7,0-5-0.9-6.7-2.6c-1.8-1.7-2.7-3.9-2.7-6.5c0-1.7,0.4-3.3,1.2-4.6
		c0.8-1.4,1.9-2.5,3.4-3.3c1.4-0.8,3-1.2,4.7-1.2c1.6,0,3,0.3,4.3,0.9c1.3,0.6,2.4,1.5,3.3,2.7l0.3,0.4l2.7-2l-0.3-0.4
		c-1.1-1.6-2.6-2.8-4.4-3.7c-1.8-0.9-3.8-1.3-6-1.3c-3.6,0-6.7,1.2-9.1,3.5c-2.4,2.4-3.6,5.3-3.6,8.7c0,3.3,1,6.1,3,8.4
		c2.4,2.7,5.7,4.1,9.8,4.1c2.1,0,4.1-0.4,5.9-1.2s3.2-2,4.4-3.5l0.4-0.5l-2.7-2L363.4,582z"/>
	<rect x="370.7" y="564.5" fill="#FFFFFF" width="3.4" height="23.7"/>
	<polygon fill="#FFFFFF" points="397.1,558.8 393,558.8 389.5,562.8 393,562.8 	"/>
	<path fill="#FFFFFF" d="M390.9,563.8c-2.2,0-4.3,0.6-6.2,1.6c-1.9,1.1-3.4,2.6-4.5,4.6c-1.1,1.9-1.6,4-1.6,6.3
		c0,3.4,1.2,6.3,3.6,8.7s5.4,3.6,8.9,3.6c3.4,0,6.4-1.2,8.8-3.6c2.4-2.4,3.6-5.4,3.6-8.8c0-3.5-1.2-6.4-3.6-8.8
		C397.5,565,394.5,563.8,390.9,563.8z M400.1,576.2c0,1.7-0.4,3.3-1.2,4.6c-0.8,1.4-1.9,2.5-3.3,3.3s-2.9,1.2-4.6,1.2
		c-2.5,0-4.6-0.9-6.3-2.6c-1.8-1.8-2.6-3.8-2.6-6.4c0-1.7,0.4-3.3,1.2-4.6c0.8-1.4,1.9-2.5,3.3-3.3s2.9-1.2,4.5-1.2s3.1,0.4,4.5,1.2
		s2.5,1.9,3.3,3.3C399.7,573,400.1,574.5,400.1,576.2z"/>
	<polygon fill="#FFFFFF" points="424,564.5 424,580.8 409.8,564.5 408.5,564.5 408.5,588.1 411.9,588.1 411.9,572 426,588.1 
		427.3,588.1 427.3,564.5 	"/>
</g>
<path fill="#FFFFFF" d="M444,319L444,319c-1.5,0.2-2.2,0.9-2.2,0.9s-1.3,1.3-2,2.2s-0.8,0.8-1.4,1.2s-2.2,0.2-3.1,0
	c-0.8-0.2-1.3-1.3-1.8-3s-3.2-0.7-5.3-1.2c-2.1-0.5-2.6,3.1-2.6,3.1s-4-1.7-4.4-2.1c-0.5-0.4-1.7-2.1-1.7-3.3c0-1.2,1.4-1.6,1.4-2
	c-0.1-0.3-1.9-1.1-2.5-1.1c-0.7,0-1.9-0.8-2-1.8s0.1-1.5,0.1-2.3c0.1-0.8,0.4-0.7,0.7-2.3c0.3-1.6-2.5-0.2-3,0s-2.5,1.7-3.6,3.1
	c-1.1,1.4-1.7,0.5-2,0.5c-0.3-0.1-0.3-1.8,0.3-2.5c0.7-0.7,1.5-1.8,1.8-2.5c0.3-0.8-0.9-1.4,0-2.9s1,0.3,2.7,1.9
	c1.7,1.6,2.1,0,2.1,0s1.8-0.1,2.5-1c0.7-0.9-0.3-2.9-0.3-3.7s-0.2-2,0-3.8c0.2-1.9,1.3,0,2.8,0.9c1.5,0.9,0.8,1,1.4,1.7
	s1.4,0.1,2.9,0.5c1.6,0.4,0.7,0.6,1.8,2.6c1.1,2,1.7,1.4,3.1,3.4s0.6-0.1,4.4,0s0.9-0.1,1.8,1.8c0.8,1.9,0.7,0.2,1.2,0.4
	c0.5,0.2,0.3-0.5,2.4-1s1.2,1.6,0.5,2.3s-1.1,0.4-2.5,1c-1.4,0.6-2.7,0.5-5.1,1c-2.5,0.5-2.4,0.2-3.6,0.5s-1.3,1.4-2,2.7
	c-0.7,1.2,0.2,1,1.8,1.7c1.6,0.7,0.5,0,1.5-1.2s0.7-1.1,1.6-1c1,0.1,1.4,1.3,3.6,2.6c2.2,1.3,0.5,0.6,2.3,2c1.8,1.4,2.9-1.2,4-2
	c0.3-0.2,0.9-0.7,1.6-1.3l-33.9-162.2L343,152l-17.1,76.4c0.3,0.3,1.9,0.5,1.9,0.5s1.1-1.3,0.7,0s0,0.4-0.7,1.6
	c-0.7,1.1-1.3,4.8-1.4,5.3c-0.1,0.6-0.8,2.2-1.5,1.8c0,0-0.1,0-0.1-0.1c-0.1,0-0.2-0.1,0,0c0.1,0,0.1-0.3-0.5-1.5
	c0-0.1-0.1-0.1-0.1-0.2l-9.9,44.1c0.7-0.3,0.9-0.2,1.3-1.3c0.4-1.3,0.7-2,0.9-1.5c0.2,0.5,0.4,1.4,0.6,1.8c0.2,0.4,0.8,0.5,0,1.6
	c-0.8,1.1-1.7,1.9-1.7,1.9l-1.4,0.3c0,0-0.1-0.1-0.3-0.3l-11.1,49.8c1.5-0.7,2.7-1.2,2.9-1.5c0.7-0.7,4.2-2.1,5.3-1.5
	c1.1,0.6,3.1,1.6,1.4,2.8s-5.4,4.5-6.7,5.6c-1.1,0.9-3.5,2.8-5.1,4.4l-17.6,78.7l14.4,0.2c0.2-0.5,0.4-1,0.6-1.2
	c0.3-0.6-0.3-0.1,1.2-1.3c1.4-1.3,4.3-2.6,4.8-3c0.5-0.4,1.4-1.3,2.4-1.4c1-0.1,1.2-0.5,2.3,0.4c1.1,1,2.2,2,1.8,2.4
	c-0.4,0.4-1.1,0.7-1.7,1.1c-0.4,0.2-1.9,1.9-2.9,3.2l29.8,0.3l16.7-89.6c-0.1,0-0.1,0-0.2,0c-1-0.2-1.8,0.4-2.9,1
	c-1.1,0.6-1.1,0.7-2,1.8s-1.7-0.1-1.8-1.1c-0.2-1,0.8-1,2.3-2.4c1.5-1.4,1-0.8,2.6-1.1c1.7-0.2,0.8,0.4,2,0.6h0.1l0.5-2.4
	c-1.8,0.8-1.9-0.3-2.9-0.5s-1.9-1.2-1.9-1.2s-1.3-0.5-1.8-0.4c-0.5,0-1.7,1.2-2.4,1.6c-0.7,0.3-1.6-0.5-2-0.8
	c-0.4-0.2-1.6-1.9-1.8-2.2c-0.2-0.3,0.1-3.1,0.3-3.9c0.2-0.7,1-1.2,1.3-2.7c0.3-1.4,0.9-2.2,1.6-3.5c0.6-1.3,1-0.7,1.8-0.8
	c0.8-0.1,0.4,1.2,0.2,1.7c-0.2,0.6-0.9,1.5-1.4,2.2c-0.5,0.6,0.5,0.6,3.8,1.4c3.3,0.9,0.6,0.4,0.4,2.1s-0.2,2.2,0.5,3
	c0.7,0.9,0.7,0.1,2.1,0.3s1.9-1.6,1.9-1.6s0.7-0.9,1.5-1.9l0.7-3.6c-0.6,0.2-1.1,0.4-1.4,0.2c-0.7-0.3-0.3-1.5-0.3-2.3
	c-0.1-0.8-0.3-3.5-0.3-4.8c0-1.2,0.3-2,1-3.1c0.7-1.1,1-0.1,1.9,0.1s0,0,0.3,1.4c0.2,0.7,0.2,1,0.1,1.2l1.8-9.7
	c-0.3-0.1-0.7-0.3-1.4-0.4c-1.7-0.4-0.6,0.9-1.8,2.6c-1.3,1.7-0.8,0.4-1.6,0.8c-0.8,0.4-1-0.4-1.3-0.8c-0.3-0.5-1.3,1-1.9,1.6
	c-0.6,0.5-1.7,1.4-2.4,2.2c-0.8,0.8-1.1,1.2-1.5,1.2s-0.6-0.2-0.8-0.8c-0.2-0.6-0.1-1.3,0.9-2.3s0.8-1,1.9-1.8
	c1.1-0.8,2.6-2,2.9-2.6c0.3-0.6,1-0.4,1.3-1.8s-0.9-0.8-1.3-2.1s-0.5-2.5,0-4s2,0.4,2.3,0.6c0.3,0.2,0.8,1.3,1.4,2.5s1,1.5,2.4,1.7
	c0.5,0.1,1.1,0.1,1.6,0l5.3-28.5c-0.6-0.1-1.2-0.2-1.5-0.4c-0.7-0.4-1.2,0.6-1.4-1.3c-0.2-1.9-1.6-1.9-0.3-3.5
	c1.2-1.6,3.3-4.4,3-2.4c-0.3,2.1-0.1,3-0.1,3s0.5,1.6,1,0.7l0.5-2.5c0.1-2.3-0.4-3.7,0.1-5c0.6-1.3,1.1-2.2,1.3-2.7l0.6-2.9h-0.1
	c-1.7,0.3-1.8,0.4-2.5,2.3c-0.7,1.9-1.1,3.2-1.3,3.7c-0.2,0.6,0.6,0.8-1.3,1.7c-1.9,0.9-3.6,1.9-3.1,1.1c0.5-0.8,3.3-1.5,2.2-3.3
	c-1.1-1.8-1.5,0.4-1.5-2.1s-0.3-3.2,0.5-4.4s2.2-3.1,2.6-1.7c0.4,1.4,0.7,2.4,1.7,1.8c0.9-0.7,1.4-0.1,2.2-2.9
	c0.8-2.8,1.3-4.3,2.2-4.6l3.1-16.5c-0.2-0.3-0.5-0.6-0.8-1.1c-0.8-1.2-0.6-0.7-1.5-1.2s-0.4-0.9-0.7-1.4c-0.3-0.5-0.7-0.7-0.4-2
	c0.3-1.3,0.9-0.7,2-0.4c1.1,0.2,0,0,1,1.5s0.5,0.6,1.1,1.3l0.1,0.2l2.6-14l16.3,94.9l1.5,0.4c0,0,1.8-1.5,1.8,0
	c-0.1,1.5,0.8,1.2-0.5,2c-0.7,0.4-1.5,1-2.1,1.5l7.1,41.3c0.6-0.2,1.2-0.5,2-1c1.6-1.1,2-1.9,2.2-1.2s0,2.9,0,2.9s-0.8-0.5-0.9,0.8
	c-0.2,1.3-0.2,1.9,0,2.5c0.2,0.6,1,2.2,1,2.2s1,1.8,0.5,2.2c-0.4,0.3,0.2-0.1-1.3,0.6c-0.5,0.2-1.1,0.5-1.8,0.9l2.7,15.8
	c0.2-0.1,0.4-0.2,0.5-0.2c0.3-0.2,1.7,0.1,2.1,0.6s1,1.9,0,2.3c-1,0.4-1.2,0.3-1.6,0.5c-0.2,0.1-0.3,0.1-0.4,0.2l0.2,1.4
	c0.6,1.2,1.9,3,1.9,3s1.9,0.2,1.6,1.7c-0.3,1.6,0.1,3-1,2.5s0.3-0.4-1.5-1.5l3.4,19.7c1-0.2,1.3-0.7,2,0.1c0.7,0.9,0.7,1.6,0.7,2.3
	c0,0.7,0.9,1.6-0.6,1.9c-0.5,0.1-0.9,0.2-1.3,0.2l2.3,13.7h53.9L444,319z M431.8,273.7l1.6,0.9l-1.4,1.6l-1.4-0.7
	C430.8,274.5,431.8,273.7,431.8,273.7z M428.8,271c0.6-0.6,2.1-1.4,2.2-0.8c0.1,0.7,0.8,0.8,0,1.3s-0.9,0.9-1.6,0.8
	C428.8,272,428.8,271,428.8,271z M310.1,313.2c-0.8,0.2-1.4-0.3-1.4-0.3c-0.3-0.1-0.8-0.8-0.4-1.3c0.5-0.5,1.1-0.5,1.5-0.6
	c0.4,0,0.2,0.5,0.3,1.2C310.2,312.8,310.9,313,310.1,313.2z M294,385.7c-0.4,0.5-0.2,0.5-0.5,0.9c-0.3,0.4-0.8,0.3-1.1,0.2
	c-0.1,0,0-1.4,0-1.4s0.2,0.3,0.5,0s0-0.4,0.6-0.8c0.6-0.4,1.2-0.6,1.1,0C294.5,385,294.4,385,294,385.7z M299.7,373
	c-0.2,0.9,0.3,2.2-0.5,2.3c-0.8,0-0.9-0.7-0.9-0.7c0-0.3-0.3-2.2,0-2.3s1.5-0.3,1.5-0.3S299.9,372.2,299.7,373z M304.7,362.2
	c0,0,0.7-0.3,0.7,0s0.2,1.6,0.2,1.8s-0.2,0.7-0.5,0.5s-0.5-0.1-0.5-0.7C304.6,363.1,304.7,362.2,304.7,362.2z M303.8,368.5
	c0.1,0-2.2,0-2.2,0s-0.6-0.5-0.6-1.2s0.3-0.3,1-0.4c0.7-0.1,0.3-0.2,0.5-0.8c0.2-0.7,0-0.8,0.7-1.7c0.7-0.9,0,0,0.7,0.5
	s0.1,1,0.1,1.5C304,366.8,303.8,368.5,303.8,368.5z M306.3,395.5c-0.2,1.4-0.2,0.5-0.4,0.9c-0.2,0.4-1.4-0.3-1.7-0.5
	c0,0,0.5-1.1,0.8-1.9c0.2-0.8,0.2-0.2,1.1-0.3C307,393.7,306.5,394,306.3,395.5z M306.5,383.7c-0.9,0.2-0.9-0.5-1,0.2
	c-0.2,0.8-0.2,1-0.6,0.8s-0.6-0.3-0.6-0.3c0-0.2-0.3-1.4,0-1.4c0.3-0.1,0.8-0.1,1.6-0.2C306.7,382.5,307.4,383.5,306.5,383.7z
	 M307,361.5c-0.1,0-0.8,0.7-1.1,0c-0.3-0.7-0.5-0.9-0.5-1c0-0.1,0.5-0.7,0.5-0.7h0.8l0.6,0.8C307.3,360.5,307.1,361.5,307,361.5z
	 M309.6,357.2c-0.5,0.2-0.1,0.3-0.8,0.7c-0.6,0.4,0,1-0.8,0.3c-0.9-0.6-1-0.7-0.5-1.1c0.5-0.4,0.8-1.7,0.8-1.7s1.9-0.4,1.7,0
	C309.8,355.8,310.1,356.8,309.6,357.2z M348.1,336.8c0.7-0.4,1.2-0.4,1,0c-0.2,0.4-0.5,0.8-0.5,1.2s0.1,0.7-0.3,0.7
	c-0.3,0-0.7-0.5-0.7-0.5C347.7,338,347.3,337.3,348.1,336.8z M347,341.8c0.3-0.6,0.5-1,0.6-0.5s-0.2,0.7,0.2,0.8
	c0.3,0.1,0.8-0.5,0.8,0.2s0,0.9-0.4,0.9s-0.9,0-0.9,0C347.2,343,346.7,342.5,347,341.8z M344.8,342.7c0,0,0.3-0.4,0.6-0.1
	c0.3,0.3,0.2,0.3,0.3,0.8c0.2,0.5,0.4,0.8-0.2,0.8c-0.5,0-1.3-0.4-1.3-0.4C344.3,343.5,344.8,342.7,344.8,342.7z M363.6,169.1
	c0.5-0.6,1.3-1.9,1.1-0.7c-0.2,1.2,0,1.8,0,1.8s1.2,0.7,0.6,0.9c-0.7,0.2-1.2-0.4-1.2-0.4C363.7,170.4,363.1,169.8,363.6,169.1z
	 M359.3,176.8c0.2-0.9,0.3-1.3,0.9-1.4c0.6-0.1,0.6,0.2,0.6,0.7s-0.2,0.7,0.4,0.9s1,0.7,0.7,1.2s-0.2,0.7-0.8,0.5
	c-0.6-0.2-0.8-0.3-0.8-0.3l-0.2-0.6C360.1,177.8,359.1,177.6,359.3,176.8z M358.6,191.4c0.7-1.2,1.5-2.3,1.5-2.3
	c0-0.8,0.2-1.9,1.2-1.7s1.6-1.1,1.8,0.6c0.2,1.7,1.4,1.8,1.1,2.5s-2,1.8-2,1.8l-2.5-0.8C359.8,191.6,358,192.6,358.6,191.4z
	 M343.5,187.9c0,0,3.3-0.8,3.5-0.9c0.2-0.1,2.6-0.2,3.3-1.8c0.7-1.6,0.8-2.6,1.8-3.5c1-0.9,1.7-1.3,2.1-0.6s2.9,2.2,2.5,2.7
	s-0.6-0.9-1.8,1.4c-1.2,2.3-1.5,0.8-1.1,3.5s1.9,3.5,0.4,3.3s-0.3,0.5-1.9-0.9c-1.5-1.3-0.6-1.8-2.1-1.7c-1.6,0.1-0.1,0.3-3,0.1
	c-2.9-0.1-3.6-0.9-3.6-0.9L343.5,187.9L343.5,187.9z M355.2,198.7c-0.2,0.5-0.1,1-0.4,1.6s-0.6,0.9-1.3,0.6
	c-0.7-0.3-1.2-0.4-0.8-0.9c0.4-0.4,0.4-1.3,0.4-1.3S355.4,198.2,355.2,198.7z M338,192.1c1-0.9,1.2-1.5,1.8-0.6
	c0.6,0.9,1.2,1.9,0.7,2s-0.1-0.6-0.8,0s-1.4,0-1.4,0S337,192.9,338,192.1z M337.4,244.4c1.3-0.2,2.4-1.1,2.4,0.5s-0.2,1.9,0.3,2.5
	s1.6,0.6,0.6,1.8s-1.1,1.7-1.8,2.1s-1.7,0-1.7,0s-0.2-1.4-0.9-1.5c-0.6-0.1-0.5-0.7-0.5-0.7c-0.9,0.1-0.8-0.1-1.7,0.4
	c-0.9,0.5-0.5,2.1-1.5,0.7c-1-1.5,0,0.3-0.9-2s-1.1-2.4-1.4-3s-0.8-0.6-0.6-1.9c0.2-1.3,0.4-2.5,0.9-2.3c0.5,0.1,0.5,0.6,1,2
	s1.4,2.9,2.1,3.2s3,0,3.1-0.3C336.8,245.7,336.1,244.7,337.4,244.4z M337.2,310.8c0,0,1.1,1.2,0.5,1.5s-0.6,0.3-0.8,0.3
	s-0.6-0.9-0.6-0.9s0-0.4,0-1.2c0-0.7,0-1.6,0-1.6s0.8-1.2,0.7-0.4C337,309.5,337.2,310.8,337.2,310.8z M336.9,325.5l-0.9-0.9
	c-0.2-0.5-0.7-0.9-0.2-1.8c0.5-0.9,1.4-1.3,1.6-1s0.5-1,0.6,1c0.2,2.1,1,2.4,0.4,2.7C337.7,325.8,336.9,325.5,336.9,325.5z
	 M338.2,361.3c-0.2,0.6-0.4,0.9-0.7,1c-0.3,0.1-1.3-0.1-1.3-0.1c-0.2-0.1-0.2-0.3-0.2-0.6c0-0.4,0.2-1.1,0.2-1.1s1.4-0.2,1.6,0
	C338.1,360.8,338.4,360.8,338.2,361.3z M335.7,295c-1.6-1.6-1-1.3-2.2-1.9c-1.2-0.6-1.4-0.2-1.3-1.3c0.2-1.1-0.1-0.7,0.3-1.4
	s0.5-1.5,0.4-1.9c-0.1-0.5,0.4-0.9,0.4-0.9c1.2-0.8,0.9-2.3,1.7-0.4c0.8,1.8,1.4,1.1,1.2,2.3c-0.2,1.1-1.1,1.8-0.9,2.1
	c0.2,0.3,0.1,0.7,0.2,1.4c0.1,0.7,0.7,0.3,0.8,1.3C336.4,295,337.3,296.5,335.7,295z M335.2,283.2c-0.9-0.2-0.3-0.2-1.9-0.5
	c-1.5-0.2-1.7,0-1.7-1.3c0-0.4-1.5-0.9,0-1c1.5,0,2.8,0,2.8,0s1.4,0.4,1.3,1.3C335.6,282.5,336,283.4,335.2,283.2z M331.2,322.5
	c0.4-0.2,1.1-1,1.6-0.6c0.5,0.4,0.5,0.2,1,0.9c0.5,0.7,0.3,1.1-0.2,1.5c-0.5,0.5-0.5,0.7-0.8,0.6c-0.3-0.1-0.6-0.3-0.6-0.3
	c-0.5,0-1,0.8-1.3-0.3C330.7,323.2,330.8,322.8,331.2,322.5z M337.7,301.4c2.6-0.2,2.6-0.7,3.5-0.4s1.2,0.3,0.4,0.8
	c-0.9,0.5-0.7,0.6-1.2,0.9c-0.5,0.4-0.2,0.9-1.1,0.4s-1.6-0.4-1.6-0.4C337.4,301.8,335.1,301.5,337.7,301.4z M339.6,298.7
	c-0.5,0.5-1.2,0.3-1.5,0.3s-0.5-0.3-0.5-0.3c-0.4-0.5,0-1.2,0-1.2s0.2-0.3,0.8,0.3C338.9,298.2,340.1,298.2,339.6,298.7z M340,285.4
	c0.8-0.2,1-0.8,1.2,0s0.2,1.2,0.2,1.2s0,1.3-0.3,0.8s-0.6-0.5-0.6-0.5C340,286.4,339.2,285.5,340,285.4z M341.5,255.4
	c-0.4,0-0.9-0.6-0.9-0.6c-0.2-0.7,0.2-2.3,0.2-2.3s0.6-0.6,1-0.4c0.4,0.1,0.2,0.4,0.8,0.8c0.6,0.4,1.2-0.5,1.2,0.5s0.1,1.2-0.7,1.6
	C342.3,255.4,341.9,255.4,341.5,255.4z M331.4,227.4c0.3-0.4,0.7-1.7,0.7-1.7c0.1,0,1.7-2,1.7-0.3s0.4,3,0.3,3.5c0,0.5-1,0.4-1,0.4
	s0.2-1-0.6-1.4C331.7,227.4,331.2,227.8,331.4,227.4z M328.6,236.6c0.1-1.1,0-1.7,0.5-2c0.5-0.2,1.5-1.5,1.4,0s0,1.6,0.3,2.3
	s-0.4,1.3-0.7,1.2c-0.3,0-1.2-0.7-1.2-0.7C328.7,237.4,328.4,237.7,328.6,236.6z M328.3,252.4c0.6-0.3,1.2,0,1.2,0l0.8,1.2
	c0,0,0.5,0.6,0.3,0.7c-0.2,0.1-1.5,0-1.5,0C328.3,253.4,327.7,252.7,328.3,252.4z M326.4,354.3c0.1-0.3,0.4-0.7,1-0.8
	s1.7-0.5,1.8-0.2s0.2,0.7,0,1.1c-0.2,0.4-0.4,0.6-0.6,1c-0.2,0.4-0.9,1-0.9,1l-0.9-0.3C326.7,356,326.2,354.7,326.4,354.3z
	 M326.3,332.2c-0.5-0.5-0.7-0.4-0.6-0.8c0.1-0.5,0.3-0.8,0.3-0.8c0.1,0,1-0.2,1,0s0.2,0.6,0.2,0.6s1.2,0.5,1.1,0.8s-0.5,0.5-0.8,0.4
	C327.1,332.5,326.7,332.8,326.3,332.2z M326.2,242.9c0.6-0.9,1.4-1.8,1.4-0.7s-0.2,1.9,0,2.4s0.5,1.1,0,1s-1.4-1.2-1.4-1.2
	C326.2,243.9,325.6,243.8,326.2,242.9z M327,325.5c0.5-0.1,1.1-0.7,1.3,0c0.2,0.7,0.7,0.8,0.2,1.3c-0.4,0.5-0.8,0.7-1.2,0.5
	c-0.4-0.2,0-0.2-0.6-0.5s-1.5-0.5-1.5-0.5l-0.2-0.8C325.3,325.5,326.6,325.7,327,325.5z M321.6,266.4c0.9-0.4,1.3,0.8,1.5,1
	c0.3,0.3,0.2,1.2-0.3,2s-0.6,0.9-0.6,2.7c0,1.8,1.3,0.9,2.3,1.7s0.6,0.9,0.6,1.7c0,0.7-0.9,1.2-1.7,1.3c-0.9,0.1-1.3-0.1-1.8-0.4
	c-0.6-0.3-0.4-1.3-0.4-2.8s-0.1-1.5-0.5-2c-0.3-0.5-0.1-1.8,0-2.1c0,0,0-1.3-0.2-1.7C320.3,267.2,320.7,266.8,321.6,266.4z
	 M320.2,334c0.3-0.3,0.2-1,1-1s0.8-1.1,0.9,0.5c0.2,1.6,0,1.2,0,2.5s1.3,2.2-0.3,1.5c-1.6-0.6-1.6-1.5-1.8-1.5
	c-0.2,0-0.8-1.1-0.8-1.1C319.5,334.7,319.9,334.2,320.2,334z M317.9,328.2c0.5,0,1.1-0.3,0.9,0.6c-0.2,0.9,0.9,1.8-0.5,1.8
	s-0.9,1.1-1.6,0c-0.7-1.1-0.2-0.9-0.7-1.1s-0.6-1.2-0.6-1.2S317.4,328.2,317.9,328.2z M315.1,356.8c0.1,0.2,1.3,0.4,1.3,0.4
	s0.4,0.7-0.2,0.8c-0.7,0-0.7,0-1.6,0.2c-0.9,0.1-0.9,0.3-1.1,0.1s0-0.7,0-0.7v-1.2l1.8-0.2C315.3,356.2,314.9,356.7,315.1,356.8z
	 M316.7,342.8c0.8-0.8,1-1.1,1.3-0.8c0.3,0.3,0.3,0.1,0.2,0.8c-0.1,0.7-0.5,1.3-0.5,1.3l-0.8-0.4
	C316.7,343.2,315.9,343.7,316.7,342.8z M312.9,300.5c0,0,0.7-0.2,1.1-0.4c0.4-0.2,0-0.4,0-0.6s-0.2-0.4,0.5-0.8
	c0.7-0.4,0.4-0.1,0.9,0.6c0.5,0.7,0.3,0.1,0.9,0.2c0.6,0.1,0,0.4-0.4,1.2c-0.5,0.8-0.9,0.2-0.9,0.2l-1.8-0.4H312.9z M312.5,335.2
	c0.5-0.2,1.2-0.6,1.6-0.5c0.4,0.1,0.8,0.8,0.3,0.9c-0.5,0.1-0.6-0.5-0.8,0.2c-0.2,0.7-0.2,1.1-0.6,1c-0.4,0-0.5-0.3-0.5-0.3
	C312.4,336.2,311.9,335.3,312.5,335.2z M312.2,350c0.4-0.1,0.5-0.7,0.5,0.3s0,1.6,0,1.6l-0.7,1l-0.2-0.4c0-0.2,0.1-1.5,0-1.6
	C311.7,350.8,311.9,350.2,312.2,350z M311.8,395.8c0.1,0,1.1-0.2,1.5-0.2s1.1-0.2,0.5,0.5s-0.8,0.3-0.9,0.8s0,0.8-0.3,0.9
	c-0.3,0-0.8-0.2-0.8-0.2S311.6,395.8,311.8,395.8z M312.4,415.8c-0.1,0.5-0.1,1.4-0.7,1c-0.5-0.4-0.2,0-0.6-0.7s-0.4-1.3-0.4-1.3
	c0.5-0.5,0.7-1.4,1-0.4C311.9,415.2,312.5,415.2,312.4,415.8z M315.7,413.8c-1.6,0.5-1.7,1-2.4,0.5c-0.7-0.5-1.2,0.3-0.8-1.1
	c0.4-1.4,1-2.8,1-2.8c0.6-0.1,0.5-1,1,0s0.5,1.4,1,1.8C316,412.5,317.4,413.2,315.7,413.8z M317.7,413c-0.2,0-0.1-0.2-0.7-0.8
	c-0.6-0.6-0.8-1.4-0.8-1.4c0.3-0.2,0.7-0.4,1.1,0c0.4,0.4,0.4,0.9,0.4,1.2C317.8,412.2,317.9,413,317.7,413z M318.4,380.3
	c-0.4,0-0.6-1.2-0.6-1.2c0.1,0,3.6,0,3.6,0s0.6,1.1,0.2,1.2c-0.4,0-1.7,0-1.7,0S318.7,380.3,318.4,380.3z M322.7,410
	c-0.3,0.4-2.6,0.2-2.7,0.2c0,0-0.7-0.4-1-1c-0.2-0.6,0.4-0.7,1-0.7c0.5,0,0.7-0.2,1.9-1.7c1.3-1.4,0.9-0.5,1.1-0.3
	c0.2,0.1,0.6,0.7,0.8,2.4C324.1,410.5,323.1,409.5,322.7,410z M325.6,406.8c-0.9-0.8-0.4-0.8-1-1c-0.5-0.2-0.2-0.9-0.2-0.9
	c0.1-0.1,0.9-0.7,1.1-0.3c0.2,0.4,0.1,0.2,0.3,1C326,406.5,326.4,407.5,325.6,406.8z M329,363h-1.8c0,0-0.8-0.6-1.1-0.8
	c-0.3-0.1-1-0.2-0.7-0.7c0.2-0.6,0.4-1.4,0.4-1.4c0.1,0,1.1,0.5,1.1,0.5s1.2,0.7,1.6,0.2s1.1-0.8,1.2-1.2s0.8-1.6,1.1-1.9
	c0.3-0.3,0.4-0.9,0.9-0.5c0.5,0.5,0.8,1.1,0.4,1.6s-0.5,0.1-0.6,0.9c-0.1,0.9-0.8,2-0.8,2L329,363z M332.5,399.7
	c-1-0.1-1.1,0.1-1.1-0.5c0-0.6,0.1-1.5,0.1-1.5c0.1,0,1.1,0,1.1,0s0.2,0.8,0.3,1.1C333.1,399,333.6,399.8,332.5,399.7z M334,361.8
	c-0.7,0.8-1.1,0.6-0.8,1.2c0.3,0.6,0.9,0.6,0.3,1c-0.6,0.4-0.8,0.4-1.1,0.4c-0.3,0-0.5-0.3-0.5-0.3c0-0.1,0-1.3,0-1.7
	s0.1-1.3,0.3-1.3c0.2-0.1,0.6-0.2,0.9-0.2C333.6,361,334.7,361,334,361.8z M334.1,332c-0.6,0.2-1.9,0.9-2.5,0.9s-1.6-1-1.3-1.4
	c0.3-0.4,0.3-0.4,0.5-1.4s-1-1,0.9-1.6c1.9-0.5,2.8-0.8,3.5-0.7c0.8,0,1.9,0.3,2.3,0.4c0.4,0.1-0.3,1.2-0.3,1.2s-0.9,0.8-1.2,0.9
	c-0.2,0.1-0.2,0.1-0.2,0.1C335.7,330.7,334.7,331.8,334.1,332z M338.9,375.2c-0.9,0.4-0.9,0.3-1.4,0.7c-0.5,0.4-0.5,0.7-1.1,0.3
	s-1.1-0.4-0.5-0.8c0.6-0.4,1-1,1-1s0.4-0.8,0.6-0.9c0.3-0.1,0.8-0.1,0.9,0c0.1,0.1,0.2,0.3,0.4,0.8
	C339,374.7,339.8,374.8,338.9,375.2z M343.8,373.5c-0.1,0.6,0.6,1.4-0.7,1.6c-1.4,0.1-1.4,0.7-1.6,0.1c-0.2-0.6,0.4-0.7,0.4-0.7
	c-0.3-0.4,0-1.5,0-1.5s1.6-0.5,1.8-0.5C343.8,372.5,343.9,372.8,343.8,373.5z M340.2,331.8c0,0,0.1-0.6,1.7-1.8
	c1.6-1.3,0.8-0.1,1.4,0.6s0.1,0.8,0.1,2.4c0,1.6-0.9,1.2-1.5,1.8c-0.6,0.7-1.2,1.3-1.2,1.3h-1.9l-0.3-2.6L340.2,331.8z M343.9,307.2
	c-0.1,1.3-0.4,1-0.4,2c0.1,1.1-1.5,1.3-1.5,1.3s0-1.7-1.2-1.6c-1.2,0.1-1.3,1-2,0.8c-0.6-0.2-0.9-0.9-0.9-0.9l-0.2-1.7l-1.3-1.2
	l0.4-0.9l1.2-0.9c0.2,0.3,1.4,0.4,1.4,0.4s0.8-0.8,1.1-1c0.3-0.2-0.6-0.9,0.5-0.3c1.1,0.6,0.6,0.1,1.3,1.3
	C343.3,306,344,306,343.9,307.2z M345.1,224.7c-0.5-0.2-0.3-1.1-0.8-0.3s-0.5,1.3-0.5,1.6c0.1,0.3,1,1.7,0.5,1.8
	c-0.4,0.1-0.7,0.3-1.5,0s-0.7,0.9-1.1-0.8s0.4-2.3-0.8-1.5c-1.2,0.8-2,0.6-2,0.5s0.3-1.3,0.3-1.3c0.3-0.2,1.9-0.3,2.5-0.9
	c0.7-0.6,0.2-0.4,1.3-0.7c1.1-0.3,3.5-0.4,4-0.3c0.4,0.1,1.9,1.7,1.9,1.7s-1.4,0.5-1.9,0.6s-0.7,0.9-1.2,0.8
	C345.2,225.9,345.7,224.9,345.1,224.7z M346.2,256.9c-0.2-0.4-0.3-0.7-0.3-1.8c0-1.1-0.2-1.7,0.3-2.1c0.5-0.3,0.9-0.7,0.8,0.4
	s0,2.2,0,2.2s0.9,1,0.4,1.2C346.9,257,346.2,256.9,346.2,256.9z M352,288c-0.5,0,0.3,1.3-1.3-0.9c-1.6-2.2-1.2-1.3-2.5-2.4
	c-1.3-1.1-1.5-2.1-1.2-2.1c0.2,0.1,0.3-0.5,0.3-0.5c0.1-0.1,1.6-0.2,1.6-0.9c0-0.7,0.6,0-0.4-1.7s-1.5-3.1-1.5-3.9s-1.4-1,0.2-2.5
	c1.6-1.6,1.8-2,2.4-2.2c0.6-0.2,1.7,0.8,0.8,1.5c-0.9,0.7-1.3,0.9-1,1.9s0.8,1.4,1,2.5c0.2,1,0.4,2.4,0.8,3.4s0.9,3.2,0.9,4
	C352,285.2,352.5,288,352,288z M355,244.4c0.5-0.5,0.3-1.5,1.1-0.7c0.8,0.8,0.3-0.1,0.8,0.8c0.5,0.9,0.4,1.1,0.4,1.1h-1.2
	C354.8,244.8,354.5,244.9,355,244.4z M355.1,252.7c-0.4-0.6,0-1.9,0-1.9s1.4-0.9,1.8-0.5c0.4,0.5,0.4,1.9,0.4,1.9v1.1
	c0,0-1.1-0.8-1.2-0.6C355.9,252.9,355.1,252.7,355.1,252.7z M360,281.8c0,0.5-0.2,0.7-0.4,0.9c-0.1,0.2-0.8,0.2-0.8,0.2
	c-0.1-0.3-0.8-1-0.3-1.1C359,281.8,360,281.2,360,281.8z M358.9,263.5c-0.5,1.2,0.3,1.8-0.9,1.6c-1.2-0.2-1.6-1.3-1.6-1.3
	c-0.3-0.2-1-0.9-1-1.9s0.1-1.9,0.5-2.2c0.4-0.3,0.4-1,0.8,0s0.5,0.9,1.3,1.8C358.9,262.2,359.4,262.2,358.9,263.5z M360,222.8
	c-0.5,0.6-1,0.7-1.3,1.2c-0.4,0.5-1.1,1.5-1.6,1.4c-0.6-0.1-1.4,1.6-1.4-1s-0.3-3-0.3-3s-0.4-0.3-1-1.4c-0.6-1.1-0.9-0.7-1-1.6
	c0-0.9-0.7-1.5-1.1-1.8s-1.3-0.9-0.7-1.2c0.5-0.3,1.1-1.4,1.1-1.4s1.4-0.8,1.4-1.8s-1.2-1.6-0.3-3c0.9-1.4,1.6-1.9,1.6-1.9
	s0.3,0,0.5,1.9s0.7,3.1,1.1,4.8c0.5,1.7,0.7,3.9,1.2,4.2c0.4,0.2,0.3,0.3,2,0.7c1.7,0.3,2.3-0.1,2.9,0.7c0.5,0.8,3.6,1.1,1.2,1.8
	C361.7,222.1,360.5,222.2,360,222.8z M361,245.2h-0.4c-0.5-0.2-0.6-0.8-0.3-0.7c0.3,0,0.2,0,0.7,0s0.8,0.2,0.8,0.2L361,245.2z
	 M365.1,240.2c-0.9,1,0.2,2-1.2,0.9c-1.4-1.1-0.8-0.5-1.4-1.1s-0.6-1.4-0.6-1.4c0.1-0.5,0-1.2,0.7-1.2s0.7-0.1,1.4,0.6
	C364.7,238.7,366,239.2,365.1,240.2z M368.3,201.4c0,0,0,0.6-0.8,0.6c-0.8-0.1-0.8-0.8-0.8-0.8l0.2-0.2c-0.2-1-0.4-1.4,0.3-1.6
	c0.7-0.2,1-1,1.1,0C368.4,200.4,368.3,201.4,368.3,201.4z M368.6,176c-0.8,1.4-1.1,1.2-1.4,1.8s0.9,1.3-0.1,1.7
	c-1,0.3-0.9,0.4-1.4,0.3c-0.5-0.1-0.9-1.1-0.9-1.1c-0.1-0.3,0-2.8,0-3s0.7-0.4,1.7-0.3S369.4,174.6,368.6,176z M408.9,230.6
	c-0.1-0.4,0.6-1.4,0.6-1.4l0.2,0.7v1.6h-0.4L408.9,230.6z M411.7,253.8c-0.1,0.5-1.4,0-1.4,0c-0.4-1,0-1.6,0-1.6s1.4-0.5,1.4,0.2
	C411.7,253.2,411.7,253.2,411.7,253.8z M416.1,241.1c-0.7,1.2-1.3,0.8-1.3,0.8c-0.7-0.5-1.2-1.2-1.2-1.6c0-0.4,0.2-1,0.8-1.4
	c0.6-0.4,1.3-1.2,1.3,0C415.8,240.1,416.8,239.9,416.1,241.1z M417.2,238.9c0-0.6,0.1-1.2,0.2-1.3c0.2-0.1,0.6,0,0.6,0
	c0.1-0.3,1.1,0,1.1,0s0.4,1.1-0.3,1.3C418.1,239.1,417.2,239.4,417.2,238.9z M422.3,237.6c0.5-0.4,0.8-1.6,1.3-0.5s0.8,0.4,0.8,1.5
	s0.8,0.7,0,1.1c-0.8,0.3-1.1-0.7-1.1-0.7C422.9,238.7,421.8,237.9,422.3,237.6z M424.7,282.2v0.7c0,0-0.3,0.3-0.9,0.8s-1.4,0-1.4,0
	l-0.9-0.8C421.5,282.9,422.1,282,424.7,282.2z M421.5,280.5c-0.3,1.7-1.3,2.7-1.3,2.7l-0.7-1.6c-0.5-0.8-1.2-2.3,0-2.2
	C420.6,279.5,421.8,278.8,421.5,280.5z M420.8,236.4c-0.2,0.3-0.1,0.6-0.7,0.6c-0.7,0-0.9-1.1-0.9-1.1s-1.4-1.1-0.4-1.5
	c0.9-0.4,1.6,0.3,1.6,0.3S421,236.2,420.8,236.4z M418.1,218.9c0.5-0.4,1.1-0.7,1.4-0.7s0.8-0.2,0.8,0.4c0,0.7-1.1,2-1.1,2
	C418.9,220.6,417.6,219.4,418.1,218.9z M416.9,231.2c0.1-2.1-0.3-2.8,0.3-3.1c0.6-0.3,2.1,1.1,2.4,1.4c0.3,0.3,1.2,1.5,0.3,2
	c-0.9,0.5-5,4.2-5.3,4.6c-0.4,0.3-1.9,1.5-1.9,1.5s0.8-1.4,0.3-3.1c-0.5-1.8-0.3-3.2-0.3-3.2s1.9,1.1,2.4,1.1
	C415.5,232.4,416.8,233.2,416.9,231.2z M411.7,189.1c0.8,0.2,0.5,0.6,0.6,1.2s0.7,1.7,0.4,1.8c-0.3,0-0.3,0.5-0.9-0.2
	s-0.9-1.1-0.9-1.1C411.1,189.9,411,188.9,411.7,189.1z M411.1,222.8c1,2.2,0.5,1.8,1.3,3.2s1.8,1.6,1.1,2.5
	c-0.7,0.9-1.9-0.7-1.9-0.7c-0.8-1.6-0.8-1.1-0.8-2.8S410.1,220.6,411.1,222.8z M411,233.9c0,0.3,0,1.8,0,1.8l-0.5,1
	c0,0-0.5-0.2-0.7-0.3c-0.3-0.1,0-1.3,0-1.3c0-0.7,0.4-1.2,0.4-1.2S411,233.6,411,233.9z M407.9,169.6c0.6-0.1,0.5,0.3,0.9,0.9
	c0.4,0.6,1.3,1.4,0.7,1.8c-0.6,0.4-1,1-1.3,0.2c-0.3-0.8-0.3-1.7-0.3-1.7C407.4,170.1,407.2,169.6,407.9,169.6z M403.8,174
	c0.7-0.3,0.9-1.1,1.5-0.6s1.4-0.9,1.6,0.6s-0.7,1.6-1,1.7c-0.3,0.1-0.2,0.6-0.7,1c-0.5,0.4-0.7-0.6-0.7-0.6
	C403.5,174.1,403.2,174.4,403.8,174z M399.4,181.4c0.9-0.6,1.5-1.3,1.9-0.4c0.4,0.9,0.6,1.4,0.7,1.5c0.1,0.2,0.3,1.9-0.3,1.9
	c-0.6,0.1-1.4-0.6-1.7-0.7c-0.2-0.2,0.2-0.5,0.2-0.5C399.3,182.4,398.5,182.1,399.4,181.4z M391,194.1c0.4-1.9,0.3-1.7,0.3-1.7v-1.3
	l0.8,0.8c0,0,1.4,0.5,1.8,0s-2.2,0.1-0.7-0.8c1.5-0.9,2-0.1,1.8-1.3c-0.2-1.1-0.3-1.1-0.4-1.7c0-0.6-0.3-1.5,0.2-1.6s1-0.4,1.4,0.3
	c0.3,0.7,1.9,0.9,1.5,1.8c-0.4,0.9-0.7,0.2-0.9,1.2c-0.2,1-0.5,1.7,0.2,1.8c0.8,0.1,1.2-1.4,1.3,0.3c0.1,1.7,1.5,0.1-0.5,2.2
	c-2,2-2.2,2.7-2.4,2.8c-0.2,0.2-1.3,1.7-2.1,1.3c-0.8-0.4-1-1.2-1-1.2v-1.2l-0.5-0.4C391.7,195.4,390.6,195.9,391,194.1z M397,199.6
	c-0.8,0.1-0.5,0.6-0.8,0.1s-0.5-0.7-0.5-0.7c-0.2-0.2,0-1,0-1s1.4-0.9,1.6-0.2c0.1,0.7,0.6,1.5,0.3,1.6
	C397.3,199.4,397.8,199.4,397,199.6z M393.6,203.8c0,0-0.3,0.5-0.6,0.5c-0.4,0-0.9-0.5-0.9-0.5c-0.4-0.9,0.3-2.3,0.5-2.3
	s1.3-0.6,1,0.4C393.3,202.9,393.6,203.8,393.6,203.8z M391.6,265.7c0,0,2.2-1.7,2.3,0c0.1,1.7-0.3,2.7-0.3,2.7l-0.7-0.6
	c-1,0.2-2.3,1.2-2.5,0C390.2,266.7,391.6,265.7,391.6,265.7z M387.4,167.1c0-1.2,0.4-1.5,0.8-1.6c0.4,0,1.2,0.2,1.3,0.5
	c0.1,0.3,0.5-0.1,0,0.9s-0.1,1-0.9,1.1c-0.9,0.1-1.1-0.2-1.2-0.4C387.3,167.5,387.4,167.1,387.4,167.1z M386,169
	c0.4-0.1,0.7,0.2,0.9,0.6c0.2,0.4,1.2,1.1,1,1.3c-0.2,0.2-0.3-0.1-1.3,0.3s-1.3-0.3-1.3-0.3C385.2,169.6,385.6,169.1,386,169z
	 M379.6,207.6c0.1,0.8,0,0.7,0.1,1.3s0,2.2,0,2.2c-0.3-0.3-1-0.7-1.1-0.9c0-0.2,0.1-1.2,0.2-1.9
	C378.9,207.7,379.5,206.8,379.6,207.6z M374.7,176.1c-0.3-0.4-1.7-0.6-0.3-1.6c1.4-1,1.5-1.8,1.9-0.8s0.1,1.5,0.5,1.8
	s1.2-0.3,0.7,0.6c-0.4,0.9,0,0.6-0.9,1.1s-0.5,1.1-1.2,0.5S374.7,176.1,374.7,176.1z M377.5,198.2c-0.3-0.4-1-0.6-1.2-2.4
	c-0.2-1.8-0.5-1.4-0.7-3.1c-0.2-1.7-0.8-3.1,0-3.2c0.8-0.1,1.2,1,1.3,1.5c0.1,0.5,1.2,2.7,1.2,2.7s1.4-0.1,1.1,1.6
	c-0.3,1.7-0.2,2.6-0.7,3.1S377.5,198.2,377.5,198.2z M380.8,230.9c0-3.5,0.6-3.2,0-4.2s-1.4-2.3-1.6-3.2c-0.2-0.8-1.4,1.5-0.6-2.9
	s1.3-5,1.9-5.2s1.4-1.5,2.3-0.3s2.1,0.3,1.4,1.9c-0.7,1.6-1.2,0.4-1.4,2.3c-0.2,1.9-0.4,1.7-0.2,2.6c0.3,0.9-0.1,1.9-0.1,1.9
	c0,0.2,0.3,1.1,0.7,2.9s1.2,2,0.9,3.2c-0.3,1.2,0.7,5.3-0.5,4.4c-1.2-0.9-0.4-0.3-1.7-1.4C380.7,231.8,380.8,234.4,380.8,230.9z
	 M385.9,246.9c-1.9,0.5-1.7,1-2.3,0.5c-0.6-0.6-0.4-1.1-0.4-1.1s-0.9-0.2-0.9-1.5s0.4-4.2,0.4-4.2s0.2-3.1,0.9-1
	c0.7,2.1,0.4,2.1,0.8,3.3c0.3,1.2,1.1,2.1,1.3,2.6C385.9,246.1,387.8,246.4,385.9,246.9z M387.9,190.8c-0.5,1.1,0.4,0.5-1.3,1
	s-1.9-0.5-1.9-0.5c-0.9-0.3-2.1,0.2-1.5-1s1.3-1.8,1.5-1.3s-1.6,0.3,0.6,0.9C387.4,190.2,388.4,189.7,387.9,190.8z M388.6,278.5
	c0.6-0.5,0.3-0.6,0.9-0.6s1,0.2,1.1,0.8c0.1,0.7,0.1,0.9,0,1.1s-0.8-0.3-0.8-0.3C389,279,388,279,388.6,278.5z M390.3,283.9
	c1-0.2,2.2-0.3,2.3,0c0.2,0.3,0.4,0.6,0,1.2c-0.4,0.7-0.5,1-0.9,0.8s-0.8-1.1-0.8-1.1C390.5,284.5,389.4,284,390.3,283.9z
	 M392.4,296.7c-0.7-0.7-1.7-1-1-1.3s1.5,0,1.5,0l0.5,0.6L392.4,296.7z M397.5,320.3c-0.8,1.1-0.8,2.1-1.2,1.4
	c-0.4-0.7-0.9-1.4-0.9-1.4c-0.1-0.9-0.4-1.2,0.6-1.9c1-0.7,2-3.2,1.9-0.8C397.8,320,398.3,319.2,397.5,320.3z M398.5,294.8
	c-1.4,0.5-1.4,0.6-2.3,0.7c-0.8,0.1-2,0.8-1.9,0c0.1-0.8,0.8-1.4,0.8-1.4c-0.7-0.3-2.2-0.2-1.4-1.4c0.8-1.2,1.4-2,1.4-2
	s1.5-0.8,1.8,0c0.3,0.8,1.1,2,1.1,2S399.9,294.2,398.5,294.8z M400.5,195.4c0,0-0.5,0-1.5-0.4c-1.1-0.4,1.1-1.5,2.2-2.3
	s1.1-0.7,2.3-1.2c1.2-0.5,0.5-0.6,1-1.7c0.5-1,2.1-0.4,3.4-0.5c1.3,0,0.7,0.8,1.5,1.2s0.3,1.2,0.5,2.9s-0.4,1.1-0.6,1.2
	c-0.1,0.1-1.2-0.1-1.1,1s-1.7,0.1-3,0s-0.4-0.9-0.5-1C404.5,194.8,400.5,195.4,400.5,195.4z M407.9,232.4c0,0.7-0.1,1.6-0.3,1.5
	c-0.2-0.1-1.2-0.7-1.2-0.7c-0.1-1.2,0.9-3.4,1.2-2.4C407.9,231.9,407.9,231.7,407.9,232.4z M403.7,240.2c-1.7-1.4-2.3-1.4-2-3.1
	c0.3-1.7,1.2-2.7,1.2-2.7s1.2-0.3,1.4,1.3c0.2,1.6,1.8,0.8,1.6,2.7c-0.2,1.9,0.2,2.1-0.6,2.2C404.5,240.9,403.7,240.2,403.7,240.2z
	 M408.9,344.5c0.4,0.9,0,1.5-0.5,1.6c-0.5,0.2-1.5-0.6-1.5-0.6c-1-1.6-2.4-1.6-1-2.7c1.4-1,3.5-2.3,3.4-0.8
	C409.1,343.8,408.5,343.8,408.9,344.5z M410.9,403c-0.5,0-0.9-0.5-0.9-0.5c-0.2-0.8-0.8-1.4,0.4-1.4s1.9,0,1.7,0.7
	C412,402.5,411.4,403,410.9,403z M440.5,330v-0.4c0.2-0.5,0.6-2,1-2s0.9,0.3,0.8,1.5c-0.2,1.1,1.4,2.7,0,2.8c-1.4,0.2-1.5,1-1.8,0
	C440.1,330.8,440.5,330,440.5,330z M439.3,356.2c0.7-0.3,1.1,1.1,1.1,1.1s0.6,1.2,1,1.1c0.4-0.1,0,0.9,0,0.9h-1.1l-0.6-0.9
	C439.2,357.7,438.6,356.3,439.3,356.2z M430.2,326.8c1-0.1,0.6-0.4,1.7-0.6s2-0.4,1.2,1.3s-0.9,2.1-1.7,2.1c-0.8,0-1.8-0.9-1.8-0.9
	C429.3,327.7,429.2,326.8,430.2,326.8z M429.4,349.3c-0.3,1,0,2.2,0,2.2l-0.8,0.6l-0.9-1.2c-0.1-1,1-2.5,1-2.5
	S429.7,348.2,429.4,349.3z M425.1,334.7c-0.9,0.3-2.4,0.4-3.6,1.4c-1.2,0.9-2.7,2.6-3.6,2.6c-0.3,0-1.7,0.5-1.8-0.9
	c-0.1-1.5,0-2.7,0-2.7s3.7-5.3,4.3-5.9c0.6-0.6,1.6-1.6,2.6-1.6c0.9,0,2.1,1.4,3,1.6c0.9,0.3,2.1,2.2,1.6,2.7
	C427.2,332.3,426,334.3,425.1,334.7z M426.3,342.2c0.9-0.3,2.5-0.9,2.4,0c-0.1,0.9,0.3,1.2,0,1.7s-1.7,0-1.7,0
	C426.8,343.8,425.4,342.5,426.3,342.2z M430.4,382.5c-0.6-0.5-1.8-1.3-1.8-1.3c-0.6-0.3-2.5-0.7-0.5-1.2c2.1-0.5,2.4-1.4,2.7,0.4
	C431.1,382.2,430.9,383,430.4,382.5z M435.7,362.8c-0.6,0.9-0.7,0.7-1.6,1.2s-1,1.2-1,1.2s1,0.3,1.7,1.9c0.7,1.6,1.2,1.2,0.6,2.1
	c-0.6,0.9-1.5,0-1.5,0c-0.9-0.3-2-1.1-2.5-2.1c-0.5-0.9-1.5-0.3-1-3.1c0.4-2.8,1-4.1,3-3.5C435.4,361.2,436.3,362,435.7,362.8z
	 M440.4,410.8c-0.4,0.8-1.7,0.4-1.7,0.4c-0.7-1.1-0.4-1.4,0-2c0.4-0.6,1.8-0.6,1.7,0C440.3,409.8,440.8,410,440.4,410.8z
	 M442.6,401.3c-1.5,0.5-2.2,0-2.2,0c-0.2-0.3-0.1,0-1.8-2.2c-1.7-2.2-1.7-2.2-1.7-2.2V396c0,0-1.6-3,0-4.1c1.6-1.1,2.8-1.7,3,0.3
	c0.3,2.1-1.3,2.7-0.2,3.9c1.1,1.2,2.5,2.5,2.8,3.2C442.9,400,444,400.8,442.6,401.3z M446.5,352.2c-1.6,0-3.4-0.3-1.8-0.6
	c1.6-0.3,2.2-0.4,3.1,0c0.9,0.4,1.6,0.8,0.9,1.3s0.3,0.8-0.7,0.5C447,353.2,446.5,352.2,446.5,352.2z M451.7,391.7
	c-0.3,0.9,0.6,1.2-1,1.4c-1.6,0.2-0.6,1.1-1.6,0.2c-1-0.9,0.2-1.6,0.2-1.6c-1.1-0.9-3.3-1.1-0.9-1.8c2.3-0.7,2.4-1.1,2.9,0
	C451.7,391,452,390.7,451.7,391.7z M454.5,401.5l-1.6-0.4l-0.7-0.3l0.7-0.9c0-0.3,0-1,0.6-0.7s0.9,0.7,0.9,0.7v1.6H454.5z
	 M459.3,406.8c-0.3,0.1-1.1-0.7-1.1-0.7c-0.5-0.4,0-1.4,0-1.4s0.8-0.8,1.3,0s0.4,1.4,0.4,1.4S459.6,406.7,459.3,406.8z"/>
<path fill="#FFFFFF" d="M167.6,590.8l10.3-26.7h2.5L170,590.8H167.6z"/>
<path fill="#821518" d="M180.1,590.8l10.3-26.7h2.5l-10.3,26.7H180.1z"/>
<path fill="#FFFFFF" d="M440.6,590.8l10.3-26.7h2.5L443,590.8H440.6z"/>
<path fill="#821518" d="M453.1,590.8l10.3-26.7h2.5l-10.3,26.7H453.1z"/>
<path fill="#821518" d="M444.5,473.5c0,0,0,53.5,0,57.2s-0.1,12.9-10.8,12.9c-10.5,0-9.5-13.1-9.5-13.1V502l-2.1,0.9l-1.7,1.7
	c0,0-0.5-0.4,0-1.4s0.5-0.6,1-2.6c0.4-1.3,1.5-1.4,2.8-1.5v-23.4h-0.5c0,0-1.4,0.5-2.1,1.2s-1.1,2.4-1.1,2.4l-2.1,0.5
	c0,0-0.2-0.2,0-0.9s1.5-1,2.1-1.9c0.6-0.9,0.4-0.4,1.6-2.2c0.9-1.3,0.6-0.6,2.1-0.2v-1h-14.9c0,0,0,14.5,0,29.5
	c0.2-0.1,0.4-0.3,0.6-0.6c0.7-1.2,2.2-3.8,1.9-1.2c-0.2,2.6,2.7,2.1,1.9,3.9c-0.8,1.8,1.4,0.9-1.2,1.8c-2,0.7-2.5,1.4-3.2,1.4
	c0,11.9,0,23.1,0,26.2c0,2.4,1.1,11.6,9.2,17c0.5-0.6,1-1.1,1-1.1s2.8-2.8,2.8-1.6c0,1.2,0.4,0.5-0.3,1.4c-0.7,0.9-1,1-1.1,1.3
	s-0.4,0.8-0.7,1.1c3.5,1.9,8.1,3.1,14.1,3.1c23.6,0,24.7-18.3,24.7-18.3v-63.9L444.5,473.5L444.5,473.5z M420.5,514.8l0.7,1.5
	l-0.2,1.1h-1l-0.5-0.6C419.6,515.8,420.5,514.8,420.5,514.8z M419.1,524.8c0.8-0.2,1.5-2.8,1.8-2.4c0.4,0.4,0,2,0,2s0.5,2,0.2,2.4
	c-0.3,0.4-0.6,0.2-0.6,0.2C420,526.8,418.3,525,419.1,524.8z M418.7,521.8l-2.1-1.1l0.2-0.6c-0.5-0.8,0-1.7,0-1.7s0.6-0.3,1.2,1.3
	C418.6,521.2,418.7,521.8,418.7,521.8z M412.9,493.7c1.1-0.5,1.4-1.4,2.6-0.4c1.2,0.9,2.8,0.1,1.8,1.1s-1.7,1.3-2,1.1
	c-0.3-0.1-0.7-0.8-0.7-0.8C413.9,494.5,411.8,494.2,412.9,493.7z M415.4,514l-0.3,1.9v1.5l-1.3,0.5c-0.5-0.3-0.9-2.5-0.9-2.5
	L415.4,514z M413.6,509.5c0.5,0.6,0.7,1.2,0.7,1.2l-0.4,1.1c0,0-1.2,0.2-1.6,0s-0.2-1.1-0.2-1.1c-0.7-0.2-1-0.9-1-0.9
	S413.1,508.8,413.6,509.5z M412.1,536.8l-0.7-0.3l-1-0.5c0-1.7,0.6-2.5,0.6-2.5l1.5,1.3L412.1,536.8z M412.4,526.5
	c0,0,0.9-2,1.4-0.3s0.5,1.7,0.5,1.7l1.5,0.6v1l-0.8-0.3c-0.4,0.1-2.6-0.9-2.6-0.9V526.5z M415.2,532.2c0.7-0.1,1,0,1,0l1.2,1.1
	c0,0,2.3,1.3,1,1.5c-1.3,0.1-1.5,0-1.5,0l-0.2-0.3C415.2,533,414.5,532.3,415.2,532.2z M419.4,547c-1-0.1-1-0.1-1-0.1l-1.1,0.1
	c-0.5-0.5-0.5-1.2-0.5-1.2s-0.5-1.4,0-2c0.5-0.6,1.4-0.6,1.4-0.6s0.2-0.6,0.3,0.7c0.1,1.3,0.6,1.8,0.6,1.8S420.4,547,419.4,547z
	 M420,533.2c-0.7-0.7-0.6-1.5,0-1.2s1.2,0.6,1.2,0.6l0.2,1L420,533.2z M432.6,547c-0.3,0.3-1.2,0.4-1.2,0.4
	c-1.1-0.1-4.4-0.8-2.6-1.4c1.8-0.6,1.2-1,2.6-0.3S433,546.7,432.6,547z M440.6,547.2c-1.1-0.7-1.6-0.9-1.6-0.9
	c-1.4-0.4-1.6-1.6-0.5-2c1.1-0.3,2.3-1.4,2.4-0.4c0.2,1-0.2,1.5-0.2,1.5S441.7,548,440.6,547.2z M448.6,478.2c1,0.2,0.9-0.3,1.1,0.7
	s0.6,0.9,0.2,1.2c-0.4,0.3-1.1-0.4-1.1-0.4v-0.1C448.6,479,447.6,478,448.6,478.2z M445.6,480.2c0.8-0.3,0.8-0.7,1.3,0
	s1.4,0.9,1.4,0.9v0.7h-1.5l-0.6-0.7C445.5,480.8,444.8,480.5,445.6,480.2z M442.7,549.7c-0.7-0.7-0.6-1.8-0.6-1.8s1-0.6,1.4,0.4
	c0.4,0.9,1,1.5,1,1.5L442.7,549.7L442.7,549.7z M446.6,495.5v1.4l-0.5-0.6c-0.4-1.3-1.9-1.4-0.3-1.7c1.6-0.3,2-1.4,2-0.5
	c0,0.8-0.2,1-0.2,1.4C447.6,496,446.6,495.5,446.6,495.5z M449.2,541l-1.7,0.3l0.1-1.1c-0.4,0.1,0.5-1.6,0.5-1.6s0.8-0.3,1.1,0.6
	C449.5,540,449.2,541,449.2,541z M451.9,498.8c-0.7-0.1-0.7,0-0.8-0.1c-0.1-0.2-0.3-1-0.3-1c-0.2-0.3,1-1.4,1.1-1
	c0.1,0.4,0,0.8,0,0.8S452.5,499,451.9,498.8z M452.2,495.2c-1,0.2-1.9,0-1.9,0c-1-1-2.1-1.5-0.9-2s0.8-1.2,1.1-0.5
	c0.3,0.7-0.3,0.5,1,0.9C452.7,494,453.1,495,452.2,495.2z M453.5,501.2c-0.3-0.6,0-0.8,0-0.8s0.7,0,1.1,0.2c0.3,0.2-0.3,0.6-0.3,0.6
	H453.5L453.5,501.2z M455.8,503.7l-0.8-0.3c-0.3-0.6-1-1.2-0.2-1.2s1,0,1,0l0.8,0.8L455.8,503.7z"/>
<g>
	<path fill="#821518" d="M465.9,507.8c0.6,0.6,1.4,1.3,1.4,1.3s4.2,2.8,2.1-0.1c-2.1-2.9-0.9-2.8-2.9-3c-1-0.1-1.8-0.1-2.4-0.1v1.5
		C464.8,507.3,465.5,507.5,465.9,507.8z"/>
	<path fill="#821518" d="M515.8,503.2c0-27.5-14.2-29.6-26.9-29.6c-13.8,0-24.9,0-24.9,0v31.6c1.1-0.7,3.2-1.6,4-0.7
		c0.9,1.2,0.6,1.3,2,1.6c1.3,0.3,1.8,1.7,1.8,2.4c-0.1,0.7-0.6,1.8-1.4,2.1s-2,2.3-2.6,1.5s0.7-0.2-0.8-1.6
		c-1.5-1.5-1.9-1.5-1.9-1.5s-0.5-0.1-1.1-0.2V555h32.5c5.8,0,19.3-1.4,19.3-33.3C515.8,521.3,515.8,503.5,515.8,503.2z M471.1,502.5
		c0,0-2.3,0.5-2.4,0.4c-0.1-0.1-0.7-1.2-0.7-1.2c-0.4-0.7,0.4-1.4,0.4-1.4s2.3-1.1,2.7-0.6C471.5,500.2,471.1,502.5,471.1,502.5z
		 M510.5,493.3c1-0.3,1.9-1.2,2-1.2s0.4,1.7,0.4,1.9c0,0.2-0.6,1.4-0.6,1.4l-0.7-0.6C510.4,493.8,509.5,493.7,510.5,493.3z
		 M502.9,522.7c0.4-1.2,1.7-1.3,1.7-1.3s0.3,0.5,0,1.1c-0.3,0.6-0.6,0.8-0.7,1s-0.6,0.8-0.6,0.8l-1.2,0.3l-0.8-0.3
		c-0.2-0.5,0.2-1.2,0.8-1C502.6,523.5,502.5,523.8,502.9,522.7z M503.2,518.5l1.8-0.5c0,0-0.2,0.7-0.6,0.9c-0.4,0.2-1.1,1.3-1.1,1.3
		l-0.9,0.2C502.3,519.5,503.2,518.5,503.2,518.5z M504.3,531v1.2l-1.1,1.2l-1.1-1C502.2,532.2,504.3,531,504.3,531z M498.2,477.5
		c0.1-0.5,1.3-0.1,1.6,0l1.9-0.4c0,0,0.2,0.6,0.2,0.8c0,0.2-1.1,1-1.1,1l-2.4-0.3C498.4,478.5,498.1,478,498.2,477.5z M487.2,478.5
		c1.8-0.4,2.8-0.1,2.8-0.1l-0.4,1.6h-2.2C486.9,479.5,485.4,478.8,487.2,478.5z M484.6,474.8c0.3,0.6,0,1.4,0,1.4s0.3,1.2-0.3,1.2
		c-0.5,0-0.9-0.6-1.5-0.4C481.3,477.7,484.3,474.3,484.6,474.8z M475,493.2c2.1-1.3,2.8-0.4,2.8-0.4l-0.2,2.4l-1.8,1.3l-1.2-0.4
		C474.7,494.8,472.9,494.5,475,493.2z M472.3,542.8c-0.2,1.1-0.4,1.4-0.6,1.6s-1.9,0-1.9,0v-0.2c-0.1-0.4,0.2-1.3,1.2-1.4
		C472.1,542.5,472.5,541.7,472.3,542.8z M473.3,531.7c-0.2,0.6-0.7,1-0.9,1.1c-0.2,0.1-1.3,0.7-1.3,0.7l-0.2-0.4l-1-1l1.3-0.4
		c0,0,0.4-0.8,1-0.9C472.8,530.7,473.5,531,473.3,531.7z M475.5,546c-0.4,0-1.8-0.7-1.8-0.7c-0.2-0.7,0.5-1.8,0.5-1.8s0.9-0.7,1.3,0
		s0.5,1.7,0.5,1.7S475.9,546,475.5,546z M477.9,512.2c-0.5,1.3-0.9,1.4-0.6,1.8c0.3,0.4-0.2,0.2-0.2,0.2c-0.2,0-1.1-1.7-1.1-1.7
		S478.3,511,477.9,512.2z M493.1,545.5c-0.2,0.9-0.4,1.7-0.7,1.7c-0.3,0.1-2.5,0.2-2.5,0.2c0.1-0.4-1.3-0.4,0.3-1.3
		c1.6-0.9,2.1-1.4,2.3-1.4C492.9,544.7,493.3,544.5,493.1,545.5z M490,543.2h-10.7v-57.3c0,0,3.5,0,9,0c5,0,11.5,1.5,11.5,20.8
		c0,0.3,0,12.8,0,13.1C499.8,542.2,493.2,543.2,490,543.2z M496.4,547.5c-0.4-0.5-1.6-0.8-0.8-1.5c0.9-0.7,1.1-2.2,1.4-0.8
		c0.3,1.4,0.4,1.6,0.4,1.6L496.4,547.5z M499.3,545.2c0.7-1.5,0.8-2.3,0.8-2.3l0.5-0.9l0.4,2.5c0,0,2.2,0.8,1.5,1.6s-1.4,1-1.4,1h-1
		C499.4,546.3,498.6,546.8,499.3,545.2z M505.3,550.2c-1.3,0.8-1.9,1.5-1.9,1.5l-1.1,0.3c-1.3-0.1-1.3-1.5-1.3-1.5s2.2-1.4,3.2-1.6
		C505.2,548.5,506.6,549.3,505.3,550.2z M506.3,500c-1.1,1.2-1.3,1.8-1.3,1.8h-1c-0.9-0.1-1.6-1.1-1.6-1.1l2.4-1.4
		c0,0,4.6-3.2,4.3-2.4c-0.2,0.8-0.6,0.1-0.5,1.4c0,1.3,0.1,2.7-0.7,2.3C507,500.3,507.4,498.8,506.3,500z M508.2,548.7
		c-0.1,0-0.8,0-0.8,0l0.2-0.9c0-0.5,0.3-0.9,0.7-0.9c0.4,0,1-0.2,0.9,0.2C509.1,547.5,508.4,548.8,508.2,548.7z M512.2,537.2
		c-0.3,0.5-0.8,1.2-0.8,1.2h-1l-0.3-0.8c0,0,0.3-1.6,1-1.5C511.8,536.3,512.4,536.8,512.2,537.2z M513,503.5l-0.5,0.6
		c-0.6-0.7-0.9-2.3-0.9-2.3h0.9l0.5,0.3V503.5z M513.2,498.2h-0.8l-0.6,0.3c0-0.7-1.7-1.5,0-1.7c1.7-0.2,2.8-0.3,2.6,0
		C514.4,497,513.2,498.2,513.2,498.2z"/>
</g>
<path fill="#821518" d="M518.8,473.5v82.7h15.3v-82.7H518.8z M528.8,500.7c1-0.2,0.9-1.7,2.2-1.3c1.3,0.4,2.6-1.2,1.6,0.8
	s-1.2,2.2-1.2,2.2l-1.4,0.2h-1.6C528.1,501.5,527.8,500.8,528.8,500.7z M533,532.3c0,0.5-0.4,1.3-0.6,1.4c-0.2,0-1.5,0-1.5,0
	l0.2-1.1l0.2-1.6l1.4-0.6C532.6,530.3,533.1,531.8,533,532.3z M526.5,490.2l1.4,1.5l-0.3,1.6h-2.3l0.4-2
	C525.6,491.2,526.5,490.2,526.5,490.2z M524.1,483.2c0-0.3,0.8-1.7,1.1-1.5c0.3,0.1,0.2,0.9,0.3,1.3c0.1,0.3,0,0.8,0,0.8l-1.4-0.4
	L524.1,483.2L524.1,483.2z M520.9,512.2c0.4-0.5,1.1-0.5,1.1-0.5s0.7,0.3,0.9,0.9c0.2,0.5,0,1.1,0,1.1l-0.5,0.2l-0.7-0.5
	C521.5,513,520.5,512.5,520.9,512.2z M523.8,520.5L523,521l-0.3-0.8c-0.1-0.4-0.9-2-0.3-2.1c0.7-0.1,1.4,0,1.3,0.5
	S523.8,520.5,523.8,520.5z M524.7,542.8c-0.6,0.9-0.7,1.3-1.1,1.2s-0.9-1.2-0.9-1.2c-0.5-0.1-2.8-0.7-0.9-1c1.9-0.3,2.6-0.2,2.6-0.2
	S525.2,541.8,524.7,542.8z M525.2,531.7c-0.5,0.1-1.9-0.1-2-0.2c-0.1-0.1-0.6-1.1-0.6-1.1c-0.1-0.3,0.3-1.3,0.3-1.3s0.5,0.2,1.4,1
	C525.4,531,525.8,531.5,525.2,531.7z M525.2,520.5c0.9,0.1,1.5,0.5,1.6,0.8s0.1,0.9,0,0.9s-1,0.1-1,0.1
	C525.4,522,524.3,520.2,525.2,520.5z M527.6,538.8h-0.2c-0.5-0.6-1.1-0.6-0.3-1c0.7-0.4,0.6-0.7,1-0.6c0.4,0.2,0.4,1.6,0.4,1.6
	H527.6z M528.5,512c-2-1.4-2.5-1.6-2.5-1.6s-2.7,0.3-2-0.5c0.6-0.8,1-1.3,2.2-1.3s2.2-0.4,2.2-0.4l-0.4-0.6l-4.1-0.4l-2.1-0.1
	c0.1-0.6,0.8-2.1,2.2-2.3s2-1.1,2.3-0.2c0.3,0.9-1,0.6,0.7,1.3c1.7,0.7,2.7-0.8,3.3,0.7s2.5,3.3,2.5,3.3s-0.8,0.4-0.9,1.1
	c-0.1,0.7-1.4,2.1-2.1,1.8C529.2,512.5,530.5,513.3,528.5,512z M531.4,545c-0.2-0.1-0.5-1.1-0.5-1.1c-0.8-0.5-1.1-1.2-1.1-1.2
	l2.2-0.2c0,0,0.6,0.8,0.7,1c0.1,0.2,0.3,1,0.3,1S531.6,545,531.4,545z"/>
<path fill="#821518" d="M589.2,504.8c0-1.6,0-3.3,0-5.2c0-0.9,0-1.8-0.1-2.7h-0.2c0,0-0.4,1.1-0.4,1.5c0,0.4-2.6-0.2-2.6-0.2
	s-0.9-2.4-0.9-2.8c0-0.4,1.2,1.8,1.7,1.7c0.3-0.1,1.5-1.6,2.2-2.6c-0.7-6.2-2.7-10.8-5.7-14.1c-0.3,0.1-0.7,0.2-1.2,0.2
	c-1.1,0.1-1.5-0.4-1.9-1.4c-0.2-0.6-0.1-1.1,0-1.5c-4.2-3-9.6-4.3-15.9-4.3c-24,0-25.5,22.1-25.5,26.7v26c0,6.8,0.7,29.5,24,29.5
	c6.1,0,10.7-1.3,14.3-3.3l-0.5-1.3c0,0,1.9-1.6,2.1-1.7c0.1-0.1,1.1,0.1,2.2,0.2c7.8-7.2,8.2-18.8,8.2-23.6c0,0,0-2.1,0-19.2
	c-0.5,0-1.6,0-1.6,0V505C587.4,505,588.5,505,589.2,504.8z M564.8,478c0,0,2.9,0,2.9,0.4c0,0.4-0.5,1.4-0.5,1.4l-1.3,0.3l-1.1-0.3
	c-0.7-0.6-0.8-1.6-0.8-1.6L564.8,478z M564.1,482.2c0,0,1.9-0.6,2.1-0.5c0.2,0.1,0.6,1.5,0.6,1.5l-2.3,0.2l-1.2-0.7L564.1,482.2z
	 M560.6,479.5c1-0.4,1.5-0.7,1.8-0.5c0.3,0.3,0,1.3,0,1.3l-1.1-0.3C561.3,480.2,559.6,480,560.6,479.5z M553.3,480.2
	c0.7-0.2,1.8-0.6,2,0c0.1,0.6,0,1.5,0,1.5l-1.1,0.5C553.8,481.8,552.6,480.5,553.3,480.2z M548.7,502.8c0.2-0.6,0.4-1.9,0.4-0.2
	c0,1.6,0.1,1.6-0.2,2.2c-0.3,0.5-1.1,0.7-1.2,0.8c-0.1,0-1.4-0.3-1.8-0.4c0,0,0,0.1-0.1,0c-0.1,0,0,0,0.1,0
	c-0.1-0.3-1.6-1.6-0.1-1.6C547.5,503.5,548.4,503.3,548.7,502.8z M544,493.3c1.4,0,1.1,0.3,1.5,0.8s0.6,1.6,0.6,1.6l-1,0.4
	c0,0-0.1,0-0.3-0.1c0,0.1-0.2,0.2-0.5,0.1c-0.6-0.2,0-0.1,0.5-0.1C544.8,495.5,542.8,493.3,544,493.3z M541.5,532.8
	c-0.2-0.6-0.8-2.2-0.5-2.4c0.3-0.2,1.7-0.6,1.7-0.6s0.1,0.9,0.2,1.5C542.9,531.8,541.5,532.8,541.5,532.8z M543.1,524.7l-0.4-0.9
	c-0.1-0.2,0.4-1.5,0.4-1.5l1.7,1.8L543.1,524.7z M544.8,512.2c0,0-2,0.6-2.4-0.2s-0.3-1.2-0.3-1.2s1,0.9,2.3,0
	c1.2-0.9,4.1-0.5,1.2-1.1c-3-0.6-3.1-0.7-3.5-0.6c-0.4,0-1.8-0.2-1.8-0.2s0.3-0.9,1.3-1.4s2.6-0.6,3.6-0.3c0.9,0.3,1.8,0.7,2.4,1
	c0.5,0.2,1.1,2.2,1.8,2.3c0.7,0.1,1.6,0.6,1.4,1.2c-0.1,0.5-0.1,1-1.2,1.7c-1,0.7-1.7,1.4-1.7,1.4l-2.3-0.9L544.8,512.2z
	 M548.7,545.7l-1.3-0.5l-1.7-0.7c0.2-0.2,2.7-1,2.7-1l1,1.2L548.7,545.7z M550.4,534.8c-0.1,0.3-1,0.5-1,0.5l-0.3-0.8
	c-0.8-0.3-1.6-1.7-0.8-1.9c0.8-0.2,1.3-0.9,1.7-1.2c0.5-0.3,0.8,0.7,0.8,0.7S550.6,534.5,550.4,534.8z M553.5,546.3l-0.5-0.5
	c-0.5-0.2-1-0.3-1.5-0.7c-0.5-0.4-1-1.7-0.3-1.8c0.8-0.1,1.8-1.8,2.1-0.2c0.3,1.6,0.2,1.8,0.6,1.9
	C554.3,545.1,553.5,546.3,553.5,546.3z M557.1,545.7c-0.3,0-0.9,0.2-0.8,0.4c0,0.3-0.8,0.3-0.8,0.3c-0.2-0.1-0.8-1.5-0.4-2
	s0.1-1.1,1.1-1c1,0,1.3,0.1,1.4,0.8C557.6,544.8,557.4,545.7,557.1,545.7z M561.6,550.5c-0.3-1-1-1.3,0-1.6s1.2-1.1,1.3,0
	c0.1,1.1,0.1,1.8,0.1,1.8L561.6,550.5z M570.4,546.5c-0.2,0.2-1.3,0.3-1.4,0.3c-0.1,0-0.7,0-0.5,0.3s-0.5,1.3-0.5,1.3l-0.3-0.5
	c-0.3-0.3-0.3-2.6-0.3-2.6s2.8-0.1,3-0.2C570.5,545,570.5,546.2,570.4,546.5z M563.2,544c-9.9,0-10.1-16.4-10.1-21.3V504
	c0-0.8,0-2.2,0.1-3.9l0,0l-1-0.8c0,0,0-2.1,0-2.3c0-0.2,1.3-1,1.3-1s0.1,0,0.3-0.1c1-5.4,3.6-11.3,10-11.3c6.3,0,10.5,5.2,10.5,18.9
	c0,17,0,19,0,19C574.3,529,574.7,544,563.2,544z M575.5,481c0.6-0.3,1.2-0.5,1.6-0.2c0.4,0.2,0.5,1.1,0.5,1.1s-1.8,0.2-2,0.3
	s-0.7-0.5-0.7-0.5L575.5,481z M577.1,521l-0.4,1.8c-0.1-0.1-0.5-1.3-0.8-1.5s-0.8-1.5-0.3-1.6c0.5-0.1,1.3,0,1.3,0L577.1,521z
	 M575.8,535c-0.2-0.1-0.4-1.1-0.4-1.1c-0.2-1.1-0.9-1.3,0-1.3c0.9,0.1,0.6,0.7,1,0.9c0.4,0.1,0.9,0.3,0.5,0.9
	C576.4,535,576.1,535,575.8,535z M578.2,547.2c-0.8-0.1-1.9-0.4-1.8-0.8c0.1-0.3,0-3.1,0-3.1l0.9-0.3l0.9,1.6c0,0,0.6,1,0.8,1
	C579.1,545.8,578.2,547.2,578.2,547.2z M580,519.5l-1,0.4l-0.5-0.4c-0.1-0.7-1.1-0.6,0-1.7c1.1-1.1,1.3-2,1.5-1.6
	c0.2,0.3-0.5,2-0.5,2L580,519.5z M579.5,523.7c0.5-0.4,1,0.4,1,0.4l-1.3,1.6l1.3,1.2L579,526c-0.7-0.2-1.4-0.9-1-1.4
	C578.3,524.2,579,524.2,579.5,523.7z M580.4,533.5l-0.7,0.3c-0.5-0.4-2.1-1-1-1.4c1.1-0.4,1.3-0.4,2-0.4s1,0.7,1,0.7L580.4,533.5z
	 M582.9,503.2c-0.9,0.7-2.2,1.5-2.2,1.5h-2l-1-0.9c0.2,0,2.3-0.8,2.6-1.3c0.4-0.5,3.6-3.4,4-3.6s1.4-0.7,0.9,0.5
	c-0.5,1.1,0.2,1.7,0.2,1.7s1.6,0.5-0.2,1.2C583.2,503.2,583.8,502.5,582.9,503.2z M586.2,514.2c-0.5-0.3-1.3-1.1-0.8-1.3
	c0.5-0.2,1.5-0.7,1.8-0.4c0.3,0.4,0.3,1.4,0.3,1.4L586.2,514.2z"/>
</svg>
