<?xml version="1.0" encoding="utf-8"?>
<!-- Generator: Adobe Illustrator 18.1.1, SVG Export Plug-In . SVG Version: 6.00 Build 0)  -->
<svg version="1.1" id="Capa_1" xmlns="http://www.w3.org/2000/svg" xmlns:xlink="http://www.w3.org/1999/xlink" x="0px" y="0px"
	 viewBox="0 0 185.5 152.7" enable-background="new 0 0 185.5 152.7" xml:space="preserve">
<rect x="0" y="0" fill="none" width="185.5" height="152.7"/>
<g>
	<path fill="#808080" d="M90.6,2.5c-28.9,0-52.3,23.4-52.3,52.3s23.4,52.3,52.3,52.3s52.3-23.4,52.3-52.3S119.5,2.5,90.6,2.5z
		 M90.7,101.6c-25.9,0-47-21-47-47s21-47,47-47s47,21,47,47S116.6,101.6,90.7,101.6z"/>
	<g>
		<path fill="#FFFFFF" d="M10.3,134.6l-5.7-23.9h3.5l4.1,17.7l3.9-17.7h3.4l-5.8,23.9H10.3z"/>
		<path fill="#FFFFFF" d="M21.2,134.6v-23.9h11.9v4h-8.7v5.3h8.1v4h-8.1v6.5h9v4H21.2z"/>
		<path fill="#FFFFFF" d="M36.1,134.6v-23.9h6.8c1.7,0,3,0.2,3.7,0.6c0.7,0.4,1.4,1.2,1.8,2.2c0.5,1.1,0.7,2.3,0.7,3.8
			c0,1.9-0.4,3.4-1.1,4.5c-0.7,1.1-1.8,1.9-3.1,2.2c0.7,0.6,1.3,1.3,1.7,2c0.5,0.7,1.1,2,1.9,3.9l1.9,4.7h-3.9l-2.3-5.2
			c-0.8-1.9-1.4-3.1-1.7-3.5c-0.3-0.5-0.6-0.8-1-1c-0.3-0.2-0.9-0.3-1.6-0.3h-0.7v10H36.1z M39.3,120.8h2.4c1.5,0,2.4-0.1,2.8-0.2
			c0.4-0.2,0.7-0.5,1-1c0.2-0.5,0.4-1.1,0.4-1.9c0-0.8-0.1-1.4-0.4-1.8c-0.2-0.5-0.6-0.8-1-1c-0.3-0.1-1.2-0.2-2.6-0.2h-2.5V120.8z"
			/>
		<path fill="#FFFFFF" d="M55.9,134.6v-19.9h-4.8v-4h12.7v4h-4.7v19.9H55.9z"/>
		<path fill="#FFFFFF" d="M65.9,134.6v-23.9h3.2v23.9H65.9z"/>
		<path fill="#FFFFFF" d="M82.5,125.8l3.1,1.5c-0.5,2.7-1.3,4.6-2.4,5.9c-1.1,1.2-2.5,1.9-4.2,1.9c-2.1,0-3.8-1-5.1-3
			c-1.5-2.3-2.2-5.3-2.2-9.2c0-4.1,0.8-7.3,2.3-9.6c1.3-2,3.1-3,5.3-3c1.8,0,3.3,0.8,4.5,2.3c0.9,1.1,1.5,2.6,1.9,4.7l-3.2,1.1
			c-0.2-1.3-0.6-2.3-1.2-3c-0.6-0.7-1.3-1-2.2-1c-1.2,0-2.2,0.6-2.9,1.9c-0.7,1.3-1.1,3.3-1.1,6.2c0,3,0.4,5.2,1.1,6.4
			c0.7,1.3,1.7,1.9,2.8,1.9c0.9,0,1.6-0.4,2.2-1.2C81.7,128.8,82.2,127.5,82.5,125.8z"/>
		<path fill="#FFFFFF" d="M88.4,134.6v-23.9h11.9v4h-8.7v5.3h8.1v4h-8.1v6.5h9v4H88.4z"/>
	</g>
	<g>
		<path fill="#801518" d="M122.5,134.6h-3.6l-1.4-5.4h-6.6l-1.4,5.4H106l6.4-23.9h3.5L122.5,134.6z M116.4,125.1l-2.3-8.9l-2.2,8.9
			H116.4z"/>
		<path fill="#801518" d="M124.2,110.6h3.3v13c0,2,0,3.3,0.1,3.9c0.1,1.1,0.5,1.9,1.1,2.4c0.6,0.6,1.3,0.9,2.2,0.9
			c0.8,0,1.4-0.2,1.9-0.6c0.5-0.4,0.8-1,1-1.7c0.2-0.7,0.3-2.3,0.3-4.7v-13.2h3.3v12.6c0,3.2-0.1,5.5-0.4,7
			c-0.3,1.4-0.9,2.6-1.9,3.5c-1,0.9-2.3,1.3-4,1.3c-1.7,0-3.1-0.4-4-1.1c-1-0.7-1.7-1.8-2.1-3.1c-0.4-1.3-0.7-3.8-0.7-7.4V110.6z"/>
		<path fill="#801518" d="M140.9,110.6h6.1c1.5,0,2.7,0.2,3.5,0.6c0.8,0.4,1.5,1.1,2.2,2.1c0.7,1,1.2,2.2,1.5,3.8
			c0.4,1.5,0.6,3.5,0.6,5.8c0,2.1-0.2,3.9-0.6,5.4c-0.4,1.5-0.9,2.7-1.5,3.6c-0.6,0.9-1.3,1.6-2.2,2c-0.9,0.5-2,0.7-3.3,0.7h-6.2
			V110.6z M144.2,114.7v15.8h2.5c1.1,0,1.8-0.1,2.3-0.4c0.5-0.2,0.9-0.6,1.2-1.1c0.3-0.5,0.6-1.2,0.8-2.3c0.2-1,0.3-2.4,0.3-4.1
			c0-1.8-0.1-3.2-0.3-4.2c-0.2-1-0.5-1.8-1-2.4c-0.4-0.6-1-1-1.6-1.2c-0.5-0.1-1.4-0.2-2.7-0.2H144.2z"/>
		<path fill="#801518" d="M157.4,134.6v-23.9h3.3v23.9H157.4z"/>
		<path fill="#801518" d="M163.2,122.7c0-2.9,0.4-5.2,1.1-7c0.7-1.8,1.6-3.2,2.8-4.1c1.1-0.9,2.5-1.4,4.2-1.4c2.4,0,4.3,1.1,5.8,3.2
			c1.5,2.1,2.2,5.2,2.2,9.2c0,4-0.8,7.1-2.4,9.4c-1.4,2-3.3,3-5.6,3c-2.4,0-4.3-1-5.6-3C164,129.8,163.2,126.7,163.2,122.7z
			 M166.6,122.6c0,2.8,0.4,4.8,1.3,6.2c0.9,1.4,2,2.1,3.3,2.1c1.3,0,2.4-0.7,3.3-2c0.9-1.4,1.3-3.5,1.3-6.3c0-2.8-0.4-4.8-1.3-6.2
			c-0.8-1.3-1.9-2-3.3-2s-2.5,0.7-3.3,2C167.1,117.7,166.6,119.8,166.6,122.6z"/>
	</g>
	<g>
		<path fill="#FFFFFF" stroke="#FFFFFF" stroke-width="0.4096" stroke-miterlimit="10" d="M4.7,148l0.7-0.4c0.5,0.9,1.1,1.4,1.7,1.4
			c0.3,0,0.5-0.1,0.8-0.2c0.2-0.1,0.4-0.3,0.6-0.5c0.1-0.2,0.2-0.4,0.2-0.7c0-0.3-0.1-0.5-0.3-0.8c-0.3-0.4-0.7-0.8-1.4-1.3
			c-0.7-0.5-1.1-0.9-1.3-1.1c-0.3-0.4-0.4-0.8-0.4-1.3c0-0.4,0.1-0.7,0.3-1c0.2-0.3,0.4-0.5,0.7-0.7c0.3-0.2,0.6-0.3,1-0.3
			c0.4,0,0.7,0.1,1.1,0.3c0.3,0.2,0.7,0.5,1.1,1.1L8.7,143c-0.3-0.4-0.6-0.7-0.8-0.8c-0.2-0.1-0.5-0.2-0.7-0.2
			c-0.3,0-0.6,0.1-0.8,0.3c-0.2,0.2-0.3,0.4-0.3,0.7c0,0.2,0,0.4,0.1,0.5c0.1,0.2,0.2,0.3,0.4,0.5c0.1,0.1,0.5,0.4,1.1,0.8
			c0.7,0.5,1.2,1,1.5,1.4c0.3,0.4,0.4,0.8,0.4,1.2c0,0.6-0.2,1.1-0.7,1.5c-0.5,0.4-1,0.7-1.6,0.7c-0.5,0-0.9-0.1-1.4-0.4
			C5.4,149.1,5.1,148.6,4.7,148z"/>
		<path fill="#FFFFFF" stroke="#FFFFFF" stroke-width="0.4096" stroke-miterlimit="10" d="M15.3,141.2c1.2,0,2.3,0.4,3.1,1.2
			s1.3,1.8,1.3,3.1c0,1.2-0.4,2.2-1.2,3c-0.8,0.8-1.8,1.3-3,1.3c-1.2,0-2.2-0.4-3.1-1.2c-0.8-0.8-1.3-1.8-1.3-3
			c0-0.8,0.2-1.5,0.6-2.2c0.4-0.7,0.9-1.2,1.6-1.6S14.5,141.2,15.3,141.2z M15.3,142c-0.6,0-1.2,0.2-1.7,0.5c-0.5,0.3-1,0.7-1.3,1.3
			c-0.3,0.5-0.5,1.1-0.5,1.8c0,1,0.3,1.8,1,2.5c0.7,0.7,1.5,1,2.4,1c0.6,0,1.2-0.2,1.8-0.5c0.5-0.3,1-0.7,1.3-1.3s0.5-1.1,0.5-1.8
			c0-0.6-0.2-1.2-0.5-1.8c-0.3-0.5-0.7-0.9-1.3-1.3C16.5,142.1,15.9,142,15.3,142z"/>
		<path fill="#FFFFFF" stroke="#FFFFFF" stroke-width="0.4096" stroke-miterlimit="10" d="M21.4,149.6v-8.2h0.2l5.4,6.3v-6.3h0.8
			v8.2h-0.2l-5.4-6.2v6.2H21.4z"/>
		<path fill="#FFFFFF" stroke="#FFFFFF" stroke-width="0.4096" stroke-miterlimit="10" d="M29.8,141.4h0.8v8.2h-0.8V141.4z"/>
		<path fill="#FFFFFF" stroke="#FFFFFF" stroke-width="0.4096" stroke-miterlimit="10" d="M32.6,149.6v-8.2h1.7
			c1.2,0,2.1,0.1,2.7,0.3c0.8,0.3,1.4,0.8,1.9,1.4c0.4,0.7,0.7,1.5,0.7,2.5c0,0.8-0.2,1.5-0.5,2.2s-0.8,1.1-1.4,1.4
			c-0.6,0.3-1.4,0.4-2.4,0.4H32.6z M33.4,148.8h0.9c1.1,0,1.9-0.1,2.4-0.2c0.6-0.2,1.1-0.6,1.5-1.1c0.4-0.5,0.5-1.2,0.5-1.9
			c0-0.8-0.2-1.5-0.6-2s-0.9-0.9-1.6-1.2c-0.5-0.2-1.4-0.2-2.5-0.2h-0.6V148.8z"/>
		<path fill="#FFFFFF" stroke="#FFFFFF" stroke-width="0.4096" stroke-miterlimit="10" d="M45.1,141.2c1.2,0,2.3,0.4,3.1,1.2
			c0.8,0.8,1.3,1.8,1.3,3.1c0,1.2-0.4,2.2-1.2,3c-0.8,0.8-1.8,1.3-3,1.3c-1.2,0-2.2-0.4-3.1-1.2c-0.8-0.8-1.3-1.8-1.3-3
			c0-0.8,0.2-1.5,0.6-2.2c0.4-0.7,0.9-1.2,1.6-1.6S44.3,141.2,45.1,141.2z M45.1,142c-0.6,0-1.2,0.2-1.7,0.5c-0.5,0.3-1,0.7-1.3,1.3
			c-0.3,0.5-0.5,1.1-0.5,1.8c0,1,0.3,1.8,1,2.5c0.7,0.7,1.5,1,2.4,1c0.6,0,1.2-0.2,1.8-0.5c0.5-0.3,1-0.7,1.3-1.3
			c0.3-0.5,0.5-1.1,0.5-1.8c0-0.6-0.2-1.2-0.5-1.8c-0.3-0.5-0.7-0.9-1.3-1.3C46.3,142.1,45.7,142,45.1,142z"/>
	</g>
	<g>
		<path fill="#FFFFFF" stroke="#FFFFFF" stroke-width="0.4096" stroke-miterlimit="10" d="M59,141.4h0.9l2.7,6.3l2.8-6.3h0.9
			l-3.6,8.2h-0.2L59,141.4z"/>
		<path fill="#FFFFFF" stroke="#FFFFFF" stroke-width="0.4096" stroke-miterlimit="10" d="M67.7,141.4h0.8v8.2h-0.8V141.4z"/>
		<path fill="#FFFFFF" stroke="#FFFFFF" stroke-width="0.4096" stroke-miterlimit="10" d="M70.5,149.6v-8.2h1.7
			c1.2,0,2.1,0.1,2.7,0.3c0.8,0.3,1.4,0.8,1.9,1.4c0.4,0.7,0.7,1.5,0.7,2.5c0,0.8-0.2,1.5-0.5,2.2s-0.8,1.1-1.4,1.4
			c-0.6,0.3-1.4,0.4-2.4,0.4H70.5z M71.2,148.8h0.9c1.1,0,1.9-0.1,2.4-0.2c0.6-0.2,1.1-0.6,1.5-1.1c0.4-0.5,0.5-1.2,0.5-1.9
			c0-0.8-0.2-1.5-0.6-2s-0.9-0.9-1.6-1.2c-0.5-0.2-1.4-0.2-2.5-0.2h-0.6V148.8z"/>
		<path fill="#FFFFFF" stroke="#FFFFFF" stroke-width="0.4096" stroke-miterlimit="10" d="M79.1,141.4h4.7v0.8h-3.9v2.6h3.8v0.8
			h-3.8v3.2h3.8v0.8h-4.7V141.4z"/>
		<path fill="#FFFFFF" stroke="#FFFFFF" stroke-width="0.4096" stroke-miterlimit="10" d="M89.2,141.2c1.2,0,2.3,0.4,3.1,1.2
			s1.3,1.8,1.3,3.1c0,1.2-0.4,2.2-1.2,3c-0.8,0.8-1.8,1.3-3,1.3c-1.2,0-2.2-0.4-3.1-1.2c-0.8-0.8-1.3-1.8-1.3-3
			c0-0.8,0.2-1.5,0.6-2.2c0.4-0.7,0.9-1.2,1.6-1.6S88.4,141.2,89.2,141.2z M89.2,142c-0.6,0-1.2,0.2-1.7,0.5c-0.5,0.3-1,0.7-1.3,1.3
			c-0.3,0.5-0.5,1.1-0.5,1.8c0,1,0.3,1.8,1,2.5c0.7,0.7,1.5,1,2.4,1c0.6,0,1.2-0.2,1.8-0.5c0.5-0.3,1-0.7,1.3-1.3
			c0.3-0.5,0.5-1.1,0.5-1.8c0-0.6-0.2-1.2-0.5-1.8c-0.3-0.5-0.7-0.9-1.3-1.3C90.4,142.1,89.8,142,89.2,142z"/>
	</g>
	<g>
		<path fill="#FFFFFF" stroke="#FFFFFF" stroke-width="0.4096" stroke-miterlimit="10" d="M104.3,141.4h0.8v8.2h-0.8V141.4z"/>
		<path fill="#FFFFFF" stroke="#FFFFFF" stroke-width="0.4096" stroke-miterlimit="10" d="M107.1,141.4h0.8v7.4h3.1v0.8h-4V141.4z"
			/>
		<path fill="#FFFFFF" stroke="#FFFFFF" stroke-width="0.4096" stroke-miterlimit="10" d="M112.5,141.4h0.8v4.9c0,0.6,0,1,0,1.1
			c0,0.3,0.1,0.6,0.3,0.8c0.1,0.2,0.4,0.4,0.7,0.5c0.3,0.1,0.6,0.2,0.9,0.2c0.3,0,0.5-0.1,0.8-0.2c0.2-0.1,0.5-0.3,0.6-0.5
			c0.2-0.2,0.3-0.5,0.4-0.7c0.1-0.2,0.1-0.6,0.1-1.3v-4.9h0.8v4.9c0,0.7-0.1,1.3-0.2,1.8c-0.1,0.5-0.4,0.8-0.9,1.2
			c-0.4,0.3-0.9,0.5-1.6,0.5c-0.7,0-1.2-0.2-1.7-0.5c-0.5-0.3-0.8-0.7-0.9-1.3c-0.1-0.3-0.2-0.9-0.2-1.7V141.4z"/>
		<path fill="#FFFFFF" stroke="#FFFFFF" stroke-width="0.4096" stroke-miterlimit="10" d="M119.7,149.6l1.2-8.2h0.1l3.3,6.7l3.3-6.7
			h0.1l1.2,8.2h-0.8l-0.8-5.8l-2.9,5.8h-0.2l-2.9-5.9l-0.8,5.9H119.7z"/>
		<path fill="#FFFFFF" stroke="#FFFFFF" stroke-width="0.4096" stroke-miterlimit="10" d="M130.5,141.4h0.8v8.2h-0.8V141.4z"/>
		<path fill="#FFFFFF" stroke="#FFFFFF" stroke-width="0.4096" stroke-miterlimit="10" d="M133.3,149.6v-8.2h0.2l5.4,6.3v-6.3h0.8
			v8.2h-0.2l-5.4-6.2v6.2H133.3z"/>
		<path fill="#FFFFFF" stroke="#FFFFFF" stroke-width="0.4096" stroke-miterlimit="10" d="M145.2,141.4l3.8,8.2h-0.9l-1.3-2.7h-3.5
			l-1.3,2.7h-0.9l3.9-8.2H145.2z M145.1,143.1l-1.4,3h2.8L145.1,143.1z"/>
		<path fill="#FFFFFF" stroke="#FFFFFF" stroke-width="0.4096" stroke-miterlimit="10" d="M158,142.9l-0.6,0.5
			c-0.4-0.5-0.8-0.8-1.3-1.1s-1-0.4-1.6-0.4c-0.7,0-1.3,0.2-1.8,0.5c-0.6,0.3-1,0.7-1.3,1.3c-0.3,0.5-0.5,1.1-0.5,1.8
			c0,1,0.3,1.8,1,2.5c0.7,0.7,1.5,1,2.6,1c1.1,0,2.1-0.4,2.9-1.3l0.6,0.5c-0.4,0.5-0.9,0.9-1.5,1.2c-0.6,0.3-1.3,0.4-2,0.4
			c-1.4,0-2.6-0.5-3.4-1.4c-0.7-0.8-1-1.8-1-2.9c0-1.2,0.4-2.2,1.3-3c0.8-0.8,1.9-1.2,3.2-1.2c0.8,0,1.5,0.2,2.1,0.5
			C157.1,141.9,157.6,142.3,158,142.9z"/>
		<path fill="#FFFFFF" stroke="#FFFFFF" stroke-width="0.4096" stroke-miterlimit="10" d="M159.7,141.4h0.8v8.2h-0.8V141.4z"/>
		<path fill="#FFFFFF" stroke="#FFFFFF" stroke-width="0.4096" stroke-miterlimit="10" d="M166.4,141.2c1.2,0,2.3,0.4,3.1,1.2
			c0.8,0.8,1.3,1.8,1.3,3.1c0,1.2-0.4,2.2-1.2,3c-0.8,0.8-1.8,1.3-3,1.3c-1.2,0-2.2-0.4-3.1-1.2c-0.8-0.8-1.3-1.8-1.3-3
			c0-0.8,0.2-1.5,0.6-2.2c0.4-0.7,0.9-1.2,1.6-1.6C164.9,141.4,165.6,141.2,166.4,141.2z M166.4,142c-0.6,0-1.2,0.2-1.7,0.5
			c-0.5,0.3-1,0.7-1.3,1.3c-0.3,0.5-0.5,1.1-0.5,1.8c0,1,0.3,1.8,1,2.5c0.7,0.7,1.5,1,2.4,1c0.6,0,1.2-0.2,1.8-0.5
			c0.5-0.3,1-0.7,1.3-1.3c0.3-0.5,0.5-1.1,0.5-1.8c0-0.6-0.2-1.2-0.5-1.8c-0.3-0.5-0.7-0.9-1.3-1.3C167.6,142.1,167,142,166.4,142z"
			/>
		<path fill="#FFFFFF" stroke="#FFFFFF" stroke-width="0.4096" stroke-miterlimit="10" d="M172.5,149.6v-8.2h0.2l5.4,6.3v-6.3h0.8
			v8.2h-0.2l-5.4-6.2v6.2H172.5z"/>
	</g>
	<polygon fill="#801518" points="41.4,12.9 58.6,94.1 78.3,94.1 96.3,13.5 80.5,13.5 68.7,77.3 57.6,13 	"/>
	<polygon fill="#FFFFFF" points="86,94.3 101.8,94.5 113.7,30.8 124.7,94.9 140.8,94.9 123.9,14 104.1,13.7 	"/>
	<g>
		<g>
			<path fill="#FFFFFF" stroke="#FFFFFF" stroke-width="0.312" stroke-miterlimit="10" d="M53.8,145.7h1.8v0.7h-1.8V145.7z"/>
		</g>
	</g>
	<g>
		<g>
			<path fill="#FFFFFF" stroke="#FFFFFF" stroke-width="0.312" stroke-miterlimit="10" d="M97.7,145.7h1.8v0.7h-1.8V145.7z"/>
		</g>
	</g>
</g>
</svg>
