<?xml version="1.0" encoding="utf-8"?>
<!-- Generator: Adobe Illustrator 18.1.1, SVG Export Plug-In . SVG Version: 6.00 Build 0)  -->
<svg version="1.1" id="Capa_1" xmlns="http://www.w3.org/2000/svg" xmlns:xlink="http://www.w3.org/1999/xlink" x="0px" y="0px"
	 viewBox="0 0 171.5 133.9" enable-background="new 0 0 171.5 133.9" xml:space="preserve">
<g>
	<g>
		<path fill="#FFFFFF" d="M27.6,77.1c-0.6,0-1.2-0.1-1.7-0.3c-0.5-0.2-0.9-0.4-1.3-0.7c-0.3-0.3-0.6-0.6-0.8-0.9
			c-0.2-0.3-0.3-0.6-0.3-0.8s0.1-0.5,0.2-0.9c0.1-0.3,0.3-0.7,0.5-0.9c0.2-0.3,0.4-0.5,0.7-0.7c0.2-0.2,0.4-0.3,0.5-0.3
			c0.2,0,0.3,0.1,0.3,0.2c0.1,0.1,0.1,0.3,0.1,0.4c0,0.1,0.1,0.3,0.1,0.4c0,0.2,0.1,0.3,0.3,0.4c0.4,0.2,0.8,0.4,1.3,0.5
			c0.5,0.1,1.4,0.2,2.6,0.2c1.5,0,2.9-0.3,4.3-0.7c1.4-0.5,2.5-1.1,3.5-1.9c1-0.8,1.8-1.8,2.4-2.8c0.6-1.1,0.9-2.3,0.9-3.5
			c0-1.7-0.5-3.1-1.6-4.1c-1.1-1-2.5-1.9-4.3-2.5c-1.8-0.6-3.8-1.1-6-1.6c-2.3-0.4-4.6-0.8-6.9-1.3c-2.3-0.5-4.6-1.1-6.9-1.8
			c-2.3-0.7-4.3-1.8-6-3c-1.8-1.3-3.2-2.9-4.3-4.9c-1.1-2-1.6-4.5-1.6-7.6c0-3.4,0.7-6.6,2.1-9.7c1.4-3.1,3.2-5.9,5.6-8.6
			c2.3-2.6,5-5,8.1-7.1c3-2.1,6.2-3.9,9.5-5.4c3.3-1.5,6.6-2.6,10-3.4c3.3-0.8,6.5-1.2,9.4-1.2c4.7,0,8.2,0.8,10.7,2.5
			c2.5,1.7,3.7,4.2,3.7,7.4c0,1.5-0.3,2.9-1,4.3c-0.7,1.3-1.5,2.6-2.3,3.6c-0.9,1.1-1.7,2-2.4,2.7c-0.8,0.7-1.2,1.1-1.4,1.3
			l-0.3-0.4c0,0,0.3-0.4,0.9-1c0.6-0.6,1.2-1.3,1.8-2.3c0.6-0.9,1.2-1.9,1.7-3.1c0.5-1.1,0.8-2.3,0.8-3.4c0-2.7-1.1-4.7-3.3-6
			c-2.2-1.3-5.4-1.9-9.6-1.9c-4.4,0-8.4,0.5-12.2,1.5c-3.7,1-7.2,2.4-10.3,4.1c-3.1,1.7-5.9,3.6-8.3,5.9c-2.4,2.2-4.5,4.5-6.1,6.8
			c-1.7,2.3-3,4.7-3.8,7c-0.9,2.3-1.3,4.4-1.3,6.3c0,2.6,0.6,4.7,1.6,6.3c1.1,1.6,2.5,3,4.3,4c1.8,1,3.8,1.8,6.1,2.4
			c2.2,0.6,4.6,1.1,6.9,1.5c2.4,0.4,4.7,0.9,7,1.3c2.3,0.4,4.3,1.1,6.1,1.8c1.8,0.8,3.2,1.8,4.3,3.1c1.1,1.3,1.6,2.9,1.6,5
			c0,1.9-0.3,3.6-0.9,5c-0.6,1.4-1.4,2.6-2.4,3.7c-0.9,1-2,1.9-3.2,2.6c-1.2,0.7-2.3,1.2-3.5,1.6c-1.2,0.4-2.2,0.7-3.2,0.8
			C28.9,77,28.1,77.1,27.6,77.1z"/>
		<path fill="#FFFFFF" d="M53.8,43.6c0.2,0,0.2,0.3,0.2,0.9C54,45.1,53.9,46,53.8,47c-0.1,1-0.2,2.1-0.4,3.3
			c-0.1,1.2-0.2,2.4-0.2,3.6c0,2.3,0,4.5,0.1,6.6c0,2.1,0.1,4,0.2,6c1.1-1.8,2.2-3.5,3.4-4.9c1.1-1.5,2.3-2.8,3.4-3.8
			c1.2-1.1,2.3-1.9,3.5-2.4c1.2-0.6,2.3-0.9,3.5-0.9c0.9,0,1.7,0.3,2.3,0.8c0.6,0.5,0.9,1.4,0.9,2.7c0,0.9-0.2,1.9-0.6,2.8
			c-0.4,0.9-0.9,1.9-1.5,2.8c-0.6,0.9-1.4,1.8-2.2,2.7c-0.8,0.9-1.6,1.8-2.4,2.5c-2,1.8-4.2,3.6-6.7,5.4l-0.5-0.6
			c1.9-1.7,3.7-3.3,5.2-4.9c0.7-0.7,1.3-1.4,1.9-2.2c0.6-0.7,1.2-1.5,1.7-2.2c0.5-0.7,0.9-1.4,1.2-2.1c0.3-0.7,0.5-1.3,0.5-1.9
			c0-0.2,0-0.5-0.1-0.8c-0.1-0.3-0.2-0.7-0.4-1c-0.2-0.3-0.5-0.6-0.9-0.8c-0.4-0.2-0.9-0.3-1.5-0.3c-0.8,0-1.6,0.3-2.4,0.8
			c-0.9,0.5-1.7,1.3-2.6,2.2c-0.9,1-1.8,2.2-2.8,3.6c-0.9,1.4-1.9,3-2.8,4.7c0.1,2.4,0.3,4.7,0.4,6.9c0.2,2.2,0.3,4.4,0.5,6.6
			c0.1,2.2,0.3,4.4,0.3,6.7C55,91,55,93.4,55,96c0,5.8-0.3,10.9-1,15.2c-0.6,4.3-1.5,8-2.5,10.9c-1,2.9-2.1,5.1-3.4,6.6
			c-1.3,1.4-2.5,2.2-3.8,2.2c-0.7,0-1.4-0.3-2.2-0.9c-0.7-0.6-1.3-1.4-1.9-2.6c-0.5-1.1-1-2.5-1.3-4.2c-0.3-1.6-0.5-3.6-0.5-5.7
			c0-3.1,0.3-6.6,0.9-10.4c0.6-3.8,1.4-7.8,2.5-11.8c1.1-4,2.3-8,3.8-12c1.5-4,3-7.7,4.7-11.2v-4.9c0-3.9,0.1-7.3,0.5-10.3
			c0.3-2.9,0.7-5.4,1.1-7.4c0.4-2,0.8-3.5,1.2-4.5C53.5,44,53.7,43.6,53.8,43.6z M51.5,98c0-2.9-0.1-5.3-0.1-7.3
			c-0.1-2-0.2-3.7-0.3-5.4c-0.1-1.6-0.2-3.2-0.3-4.7c-0.1-1.6-0.2-3.4-0.3-5.6c-1.2,2.8-2.4,5.9-3.5,9.1c-1.1,3.3-2,6.6-2.9,10.1
			c-0.9,3.5-1.5,7-2,10.5c-0.5,3.5-0.7,7-0.7,10.3c0,1.3,0.1,2.7,0.2,4.3c0.1,1.6,0.4,3.1,0.7,4.4c0.3,1.4,0.8,2.6,1.3,3.5
			c0.5,0.9,1.3,1.4,2.1,1.4c0.7,0,1.3-0.4,1.8-1.3c0.6-0.8,1.1-1.9,1.5-3.4c0.4-1.4,0.8-3.2,1.1-5.1c0.3-2,0.6-4.1,0.8-6.4
			c0.2-2.3,0.3-4.6,0.4-7.1C51.5,102.9,51.5,100.4,51.5,98z"/>
		<path fill="#FFFFFF" d="M92.9,62.7c-0.1,0.2-0.3,0.8-0.8,1.8c-0.4,1-1.1,2.1-1.8,3.2c-0.8,1.1-1.7,2.2-2.8,3.1
			c-1.1,0.9-2.3,1.4-3.6,1.4c-1.7,0-3.3-0.7-4.7-2c-1.4-1.3-2.6-3.2-3.7-5.7c-1-2.5-1.8-5.5-2.3-9c-0.5-3.5-0.8-7.4-0.8-11.7
			c0-2.4,0.1-4.9,0.3-7.5c0.2-2.6,0.4-5.2,0.8-7.7c0.4-2.6,0.8-5,1.4-7.3c0.5-2.3,1.2-4.3,1.9-6.1c0.8-1.7,1.6-3.1,2.6-4.2
			c1-1,2.1-1.6,3.3-1.6c1.8,0,3.1,1.1,4,3.3c0.8,2.2,1.3,5.6,1.3,10.2c0,2.7-0.2,5.7-0.6,9.1c-0.4,3.4-1.1,6.8-2,10.3
			c-1.3,4.4-2.6,8.2-3.9,11.3c-1.4,3.1-2.6,5.6-3.5,7.4c0.4,1.3,0.8,2.5,1.2,3.5c0.5,1.1,1,2,1.5,2.8c0.5,0.8,1.2,1.4,1.8,1.8
			c0.6,0.4,1.4,0.6,2.2,0.6c1,0,1.9-0.3,2.8-0.9c0.8-0.6,1.6-1.3,2.3-2.1c0.7-0.8,1.2-1.6,1.7-2.4c0.5-0.8,0.9-1.5,1.2-2L92.9,62.7z
			 M75.4,40.4c0,1.4,0,2.9,0.1,4.5c0.1,1.6,0.2,3.2,0.4,4.9c0.2,1.6,0.4,3.3,0.6,4.9c0.3,1.6,0.6,3.2,0.9,4.7
			c0.7-1.4,1.5-3.3,2.4-5.6c1-2.3,1.8-4.8,2.7-7.7c0.9-2.9,1.6-6,2.2-9.3c0.6-3.3,0.9-6.8,0.9-10.3c0-2.3-0.1-4.3-0.3-6.2
			c-0.2-1.9-0.4-3.5-0.8-4.8c-0.4-1.3-0.8-2.4-1.4-3.1c-0.6-0.7-1.2-1.1-1.9-1.1c-0.7,0-1.3,0.5-1.9,1.5c-0.6,1-1.1,2.3-1.5,3.8
			c-0.4,1.6-0.8,3.4-1.2,5.4c-0.3,2-0.6,4.1-0.8,6.3c-0.2,2.1-0.4,4.3-0.5,6.4C75.4,36.8,75.4,38.7,75.4,40.4z"/>
		<path fill="#FFFFFF" d="M108.4,56.3c-0.3,0-0.6-0.2-0.8-0.5c-0.3-0.3-0.6-0.7-1-1.1c-0.4-0.4-0.9-0.8-1.5-1.1
			c-0.6-0.3-1.4-0.5-2.4-0.5c-1.4,0-2.7,0.4-3.9,1.1c-1.2,0.7-2.2,1.6-3.1,2.7c-0.9,1.1-1.5,2.2-2,3.5c-0.5,1.3-0.7,2.5-0.7,3.6
			c0,1.8,0.4,3.2,1.3,4.3c0.9,1.1,2.1,1.7,3.6,1.7c1.2,0,2.2-0.2,3.1-0.7c0.9-0.4,1.6-1,2.2-1.7c-0.2-0.9-0.3-2-0.3-3.3
			c0-1.4,0.1-2.6,0.3-3.4c0.2-0.9,0.5-1.6,0.8-2.1c0.3-0.5,0.7-0.8,1-1c0.3-0.2,0.6-0.3,0.8-0.3c0.3,0,0.6,0.2,0.9,0.5
			c0.3,0.4,0.5,1,0.5,2c0,1.1-0.2,2.3-0.6,3.6c-0.4,1.3-1,2.5-1.7,3.6c0.4,1,1,1.8,1.8,2.2c0.8,0.5,1.7,0.7,2.8,0.7
			c0.9,0,1.8-0.2,2.6-0.6c0.8-0.4,1.5-1,2.3-1.7c0.7-0.7,1.4-1.5,2-2.4c0.6-0.9,1.2-1.8,1.7-2.8l0.3,0.2c-0.4,1.2-0.9,2.5-1.6,3.7
			c-0.7,1.2-1.4,2.2-2.3,3.2c-0.8,0.9-1.8,1.7-2.8,2.2c-1,0.6-2.1,0.8-3.2,0.8c-0.8,0-1.7-0.3-2.7-0.8c-1-0.5-1.8-1.5-2.4-2.9
			c-1,1.2-2.2,2.3-3.5,3.1c-1.3,0.8-2.7,1.2-4.3,1.2c-0.8,0-1.6-0.2-2.3-0.6c-0.7-0.4-1.3-0.9-1.7-1.6c-0.5-0.7-0.8-1.4-1.1-2.3
			c-0.3-0.9-0.4-1.8-0.4-2.8c0-1.7,0.4-3.4,1.1-5c0.7-1.7,1.7-3.2,2.9-4.6c1.2-1.4,2.6-2.5,4.3-3.3c1.6-0.8,3.3-1.2,5.1-1.2
			c1.3,0,2.4,0.1,3.2,0.4c0.8,0.3,1.6,0.6,2.1,1c0.5,0.4,0.9,0.8,1.1,1.2c0.2,0.4,0.4,0.7,0.4,1c0,0.4-0.2,0.8-0.7,1
			C109.2,56.2,108.7,56.3,108.4,56.3z M104.2,62.9c0,1.1,0.1,2.1,0.3,2.8c0.5-0.9,0.8-1.9,1.1-2.8c0.2-1,0.4-1.8,0.4-2.5
			c0-0.8-0.2-1.2-0.4-1.2c-0.3,0-0.6,0.3-0.9,1.1C104.3,60.9,104.2,61.8,104.2,62.9z"/>
		<path fill="#FFFFFF" d="M115.2,67.4c1.2-1.8,2.1-3.6,3-5.5c0.9-1.9,1.6-3.7,2.2-5.5c-0.8-1.1-1.5-2.3-2-3.4
			c-0.5-1.2-0.8-2.4-0.8-3.6c0-1.2,0.1-2.3,0.3-3.3c0.2-1,0.5-1.8,0.9-2.5c0.4-0.7,0.9-1.2,1.4-1.6c0.4-0.4,0.9-0.6,1.5-0.6
			c0.7,0,1.3,0.3,1.8,1.1c0.4,0.7,0.6,1.7,0.6,2.8c-0.1,1.3-0.3,2.8-0.5,4.2c-0.3,1.5-0.6,3.1-1.2,4.7c0.6,0.8,1.3,1.5,2.1,2.2
			c0.7,0.8,1.4,1.5,1.9,2.3c0.6,0.8,1.1,1.7,1.5,2.6c0.4,0.9,0.6,1.9,0.6,3c0,1.4-0.3,2.8-0.8,4c-0.6,1.2-1.2,2.3-2,3.2
			c-0.8,0.9-1.5,1.6-2.4,2.1c-0.8,0.5-1.6,0.7-2.2,0.7c-1,0-1.8-0.2-2.3-0.8s-0.8-1.1-0.8-1.7c0-0.5,0.1-1,0.3-1.5
			c0.2-0.5,0.4-1,0.6-1.4c0.2-0.4,0.5-0.7,0.6-1c0.2-0.3,0.4-0.4,0.5-0.4c0.2,0,0.3,0.1,0.3,0.2c0.1,0.1,0.1,0.2,0.1,0.3
			c0,0.1-0.1,0.4-0.1,0.7c0,0.3-0.1,0.6-0.1,0.7c0,0.6,0.2,1,0.6,1.4c0.4,0.3,1,0.5,1.9,0.5c0.4,0,0.7-0.1,1.2-0.3
			c0.5-0.2,0.9-0.4,1.3-0.8c0.4-0.4,0.8-0.8,1.1-1.4c0.3-0.5,0.4-1.2,0.4-1.9c0-0.7-0.2-1.4-0.5-2.2c-0.3-0.8-0.7-1.5-1.3-2.3
			c-0.5-0.8-1.1-1.6-1.8-2.4c-0.6-0.8-1.3-1.7-1.9-2.5c-0.7,1.9-1.6,3.7-2.5,5.5c-0.9,1.7-1.9,3.4-2.9,4.9L115.2,67.4z M119,46.9
			c0,1.2,0.3,2.4,0.7,3.3c0.5,1,1.1,1.9,1.8,2.8c0.3-1,0.4-2,0.5-2.9c0.1-0.9,0.2-1.9,0.2-2.7c0-2.3-0.5-3.5-1.5-3.5
			c-0.3,0-0.6,0.2-1.1,0.7C119.2,45.1,119,45.8,119,46.9z"/>
		<path fill="#FFFFFF" d="M134.2,65.9c0-0.9,0.1-2.3,0.1-4.2c0.1-1.9,0.2-4.4,0.4-7.3c0.1-3,0.3-6.4,0.3-10.4
			c0.1-4,0.2-8.4,0.2-13.3c0-2.4,0-4.7,0-7c-0.1-2.2-0.1-4.2-0.1-5.9c-0.1-1.7-0.1-3.1-0.1-4.2c0-1.1,0-1.7,0-1.8
			c0-0.3,0.1-0.5,0.1-0.7c0.1-0.2,0.3-0.4,0.5-0.5c0.2-0.1,0.4-0.3,0.7-0.4c0.3-0.2,0.6-0.3,0.8-0.3c0.4,0,0.7,0.1,0.9,0.3
			c0.2,0.2,0.4,0.5,0.5,0.9c0.1,0.4,0.2,1.2,0.3,2.3c0.1,1.1,0.1,2.6,0.1,4.5c0,1.9,0,4.4,0,7.4c0,2.8-0.1,5.6-0.2,8.6
			c-0.1,3-0.3,5.9-0.5,8.8c-0.2,2.9-0.4,5.6-0.6,8.3c-0.2,2.6-0.4,5-0.6,7.1c-0.2,2.1-0.3,3.9-0.5,5.3c-0.1,1.4-0.2,2.3-0.2,2.7
			c0,0.2,0,0.4,0,0.6s0,0.5,0.1,0.7c0,0.2,0.1,0.4,0.1,0.5c0.1,0.2,0.2,0.3,0.3,0.3c0.4,0,0.7-0.5,1.1-1.6c0.4-1.1,0.8-2.5,1.4-4.3
			c0.3-1.1,0.8-2.3,1.2-3.4c0.5-1.2,0.9-2.2,1.5-3.1c0.5-0.9,1-1.7,1.6-2.3c0.5-0.6,1.1-0.9,1.6-0.9c0.4,0,0.7,0.1,1,0.3
			c0.3,0.2,0.5,0.5,0.7,0.9c0.2,0.4,0.3,0.7,0.4,1.1c0.1,0.4,0.2,0.8,0.3,1.1c0,0.4,0.1,1,0.2,1.8c0.1,0.8,0.1,1.7,0.2,2.7
			c0.1,1.1,0.1,2.1,0.3,3.2c0.1,1.1,0.1,2.2,0.3,3.2c0.1,1.9,0.6,3.2,1.3,4c0.7,0.8,1.6,1.2,2.8,1.2c0.4,0,0.8,0,1.1-0.1
			c0.3-0.1,0.5-0.1,0.7-0.1c0.2,0,0.2,0.2,0.1,0.5c-0.1,0.2-0.3,0.3-0.8,0.7c-0.5,0.3-1.4,0.4-2.6,0.4c-1.1,0-1.9-0.2-2.6-0.5
			c-0.7-0.3-1.3-0.9-1.7-1.6c-0.4-0.7-0.7-1.7-0.9-2.9c-0.2-1.2-0.4-2.6-0.5-4.3c0-0.9-0.1-1.9-0.2-3c0-1-0.1-2-0.2-2.8
			c-0.1-0.9-0.3-1.6-0.5-2.1c-0.2-0.5-0.4-0.8-0.8-0.8c-0.3,0-0.6,0.3-1,1c-0.4,0.7-0.7,1.5-1.1,2.4c-0.3,0.9-0.6,1.8-0.9,2.7
			c-0.3,0.9-0.5,1.6-0.7,2.1c-0.2,0.4-0.3,1.1-0.6,2c-0.3,0.9-0.6,1.9-0.9,2.8c-0.4,1-0.8,1.8-1.2,2.6c-0.5,0.7-0.9,1.1-1.4,1.1
			c-0.4,0-0.7-0.2-0.9-0.7c-0.2-0.4-0.4-1-0.5-1.6c-0.2-0.7-0.2-1.3-0.2-2C134.2,67,134.2,66.4,134.2,65.9z"/>
	</g>
	<g>
		<path fill="#FFFFFF" stroke="#FFFFFF" stroke-width="0.4248" stroke-miterlimit="10" d="M67.7,84.2h2.3c1.3,0,2.2,0.1,2.6,0.2
			c0.7,0.2,1.2,0.5,1.6,1c0.4,0.5,0.6,1.1,0.6,1.9c0,0.8-0.2,1.4-0.6,1.9c-0.4,0.5-1,0.8-1.7,1c-0.5,0.1-1.5,0.2-2.9,0.2h-0.8v5.3
			h-1.1V84.2z M68.8,85.3v3.9l1.9,0c0.8,0,1.3-0.1,1.7-0.2c0.4-0.1,0.6-0.4,0.9-0.7c0.2-0.3,0.3-0.7,0.3-1.1c0-0.4-0.1-0.7-0.3-1
			c-0.2-0.3-0.5-0.5-0.8-0.7c-0.3-0.1-0.9-0.2-1.7-0.2H68.8z"/>
		<path fill="#FFFFFF" stroke="#FFFFFF" stroke-width="0.4248" stroke-miterlimit="10" d="M78.5,84.2H85v1.1h-5.4v3.6h5.3V90h-5.3
			v4.5h5.3v1.1h-6.5V84.2z"/>
		<path fill="#FFFFFF" stroke="#FFFFFF" stroke-width="0.4248" stroke-miterlimit="10" d="M88.4,84.2h2.3c1.3,0,2.1,0.1,2.6,0.2
			c0.7,0.2,1.2,0.5,1.6,1s0.6,1.1,0.6,1.9c0,0.6-0.1,1.2-0.4,1.6c-0.3,0.5-0.7,0.8-1.3,1.1c-0.5,0.2-1.3,0.4-2.2,0.4l4.1,5.3h-1.4
			l-4.1-5.3h-0.6v5.3h-1.1V84.2z M89.6,85.3v3.9l2,0c0.8,0,1.3-0.1,1.7-0.2c0.4-0.1,0.6-0.4,0.9-0.7c0.2-0.3,0.3-0.7,0.3-1.1
			c0-0.4-0.1-0.7-0.3-1c-0.2-0.3-0.5-0.5-0.8-0.7c-0.3-0.1-0.9-0.2-1.7-0.2H89.6z"/>
		<path fill="#FFFFFF" stroke="#FFFFFF" stroke-width="0.4248" stroke-miterlimit="10" d="M99.4,84.2h5.7v1.1h-4.6v3.6h4.6V90h-4.6
			v5.6h-1.1V84.2z"/>
		<path fill="#FFFFFF" stroke="#FFFFFF" stroke-width="0.4248" stroke-miterlimit="10" d="M108.5,84.2h1.1v6.9c0,0.8,0,1.3,0,1.5
			c0.1,0.4,0.2,0.8,0.4,1.1c0.2,0.3,0.5,0.6,1,0.8c0.4,0.2,0.9,0.3,1.3,0.3c0.4,0,0.7-0.1,1.1-0.2c0.3-0.2,0.6-0.4,0.9-0.7
			s0.4-0.6,0.5-1c0.1-0.3,0.1-0.9,0.1-1.8v-6.9h1.1v6.9c0,1-0.1,1.8-0.3,2.5c-0.2,0.6-0.6,1.2-1.2,1.6c-0.6,0.5-1.3,0.7-2.2,0.7
			c-0.9,0-1.7-0.2-2.4-0.7c-0.7-0.4-1.1-1-1.3-1.7c-0.1-0.4-0.2-1.2-0.2-2.4V84.2z"/>
		<path fill="#FFFFFF" stroke="#FFFFFF" stroke-width="0.4248" stroke-miterlimit="10" d="M119.7,95.6l1.6-11.4h0.2l4.6,9.3l4.6-9.3
			h0.2l1.6,11.4h-1.1l-1.1-8.1l-4,8.1H126l-4.1-8.2l-1.1,8.2H119.7z"/>
		<path fill="#FFFFFF" stroke="#FFFFFF" stroke-width="0.4248" stroke-miterlimit="10" d="M136.2,84.2h6.5v1.1h-5.4v3.6h5.3V90h-5.3
			v4.5h5.3v1.1h-6.5V84.2z"/>
		<path fill="#FFFFFF" stroke="#FFFFFF" stroke-width="0.4248" stroke-miterlimit="10" d="M144.9,93.5l1-0.6
			c0.7,1.3,1.5,1.9,2.4,1.9c0.4,0,0.7-0.1,1.1-0.3c0.3-0.2,0.6-0.4,0.8-0.7c0.2-0.3,0.3-0.6,0.3-1c0-0.4-0.1-0.8-0.4-1.1
			c-0.4-0.5-1-1.1-2-1.8c-0.9-0.7-1.5-1.2-1.8-1.6c-0.4-0.5-0.6-1.1-0.6-1.7c0-0.5,0.1-0.9,0.4-1.4c0.2-0.4,0.6-0.7,1-1
			c0.4-0.2,0.9-0.4,1.4-0.4c0.5,0,1,0.1,1.5,0.4c0.5,0.3,1,0.8,1.5,1.5l-0.9,0.7c-0.4-0.6-0.8-0.9-1.1-1.1c-0.3-0.2-0.6-0.3-1-0.3
			c-0.5,0-0.8,0.1-1.1,0.4c-0.3,0.3-0.4,0.6-0.4,1c0,0.2,0.1,0.5,0.2,0.7s0.3,0.5,0.6,0.8c0.1,0.1,0.6,0.5,1.5,1.1
			c1,0.7,1.7,1.4,2,1.9c0.4,0.6,0.5,1.1,0.5,1.7c0,0.8-0.3,1.5-0.9,2.2c-0.6,0.6-1.4,0.9-2.3,0.9c-0.7,0-1.3-0.2-1.9-0.6
			C145.9,95,145.4,94.3,144.9,93.5z"/>
		<path fill="#FFFFFF" stroke="#FFFFFF" stroke-width="0.4248" stroke-miterlimit="10" d="M160.3,84.2h1.3l2.9,4.7l2.9-4.7h1.3
			l-3.6,5.9v5.4h-1.1v-5.4L160.3,84.2z"/>
	</g>
	<g>
		<path fill="#FFFFFF" stroke="#FFFFFF" stroke-width="0.4248" stroke-miterlimit="10" d="M73.3,102.4l5.3,11.4h-1.2l-1.8-3.7h-4.9
			l-1.8,3.7h-1.3l5.4-11.4H73.3z M73.2,104.8l-2,4.1h3.9L73.2,104.8z"/>
		<path fill="#FFFFFF" stroke="#FFFFFF" stroke-width="0.4248" stroke-miterlimit="10" d="M91,104.5l-0.9,0.7
			c-0.5-0.6-1.1-1.1-1.8-1.5c-0.7-0.3-1.5-0.5-2.3-0.5c-0.9,0-1.7,0.2-2.5,0.7c-0.8,0.4-1.4,1-1.8,1.8c-0.4,0.7-0.6,1.6-0.6,2.5
			c0,1.4,0.5,2.5,1.4,3.5c1,0.9,2.2,1.4,3.6,1.4c1.6,0,2.9-0.6,4-1.9l0.9,0.7c-0.6,0.7-1.3,1.3-2.1,1.7c-0.8,0.4-1.8,0.6-2.8,0.6
			c-2,0-3.6-0.7-4.7-2c-1-1.1-1.4-2.5-1.4-4.1c0-1.7,0.6-3.1,1.8-4.2c1.2-1.1,2.6-1.7,4.4-1.7c1.1,0,2,0.2,2.9,0.6
			C89.8,103.1,90.5,103.7,91,104.5z"/>
		<path fill="#FFFFFF" stroke="#FFFFFF" stroke-width="0.4248" stroke-miterlimit="10" d="M103.9,104.5l-0.9,0.7
			c-0.5-0.6-1.1-1.1-1.8-1.5c-0.7-0.3-1.5-0.5-2.3-0.5c-0.9,0-1.7,0.2-2.5,0.7c-0.8,0.4-1.4,1-1.8,1.8c-0.4,0.7-0.6,1.6-0.6,2.5
			c0,1.4,0.5,2.5,1.4,3.5c1,0.9,2.2,1.4,3.6,1.4c1.6,0,2.9-0.6,4-1.9l0.9,0.7c-0.6,0.7-1.3,1.3-2.1,1.7c-0.8,0.4-1.8,0.6-2.8,0.6
			c-2,0-3.6-0.7-4.7-2c-1-1.1-1.4-2.5-1.4-4.1c0-1.7,0.6-3.1,1.8-4.2c1.2-1.1,2.6-1.7,4.4-1.7c1.1,0,2,0.2,2.9,0.6
			C102.7,103.1,103.4,103.7,103.9,104.5z"/>
		<path fill="#FFFFFF" stroke="#FFFFFF" stroke-width="0.4248" stroke-miterlimit="10" d="M106.2,102.4h6.5v1.1h-5.4v3.6h5.3v1.1
			h-5.3v4.5h5.3v1.1h-6.5V102.4z"/>
		<path fill="#FFFFFF" stroke="#FFFFFF" stroke-width="0.4248" stroke-miterlimit="10" d="M113.5,111.6l1-0.6
			c0.7,1.3,1.5,1.9,2.4,1.9c0.4,0,0.7-0.1,1.1-0.3c0.3-0.2,0.6-0.4,0.8-0.7c0.2-0.3,0.3-0.6,0.3-1c0-0.4-0.1-0.8-0.4-1.1
			c-0.4-0.5-1-1.1-2-1.8c-0.9-0.7-1.5-1.2-1.8-1.6c-0.4-0.5-0.6-1.1-0.6-1.7c0-0.5,0.1-0.9,0.4-1.4c0.2-0.4,0.6-0.7,1-1
			c0.4-0.2,0.9-0.4,1.4-0.4c0.5,0,1,0.1,1.5,0.4c0.5,0.3,1,0.8,1.5,1.5l-0.9,0.7c-0.4-0.6-0.8-0.9-1.1-1.1c-0.3-0.2-0.6-0.3-1-0.3
			c-0.5,0-0.8,0.1-1.1,0.4c-0.3,0.3-0.4,0.6-0.4,1c0,0.2,0.1,0.5,0.2,0.7s0.3,0.5,0.6,0.8c0.1,0.1,0.6,0.5,1.5,1.1
			c1,0.7,1.7,1.4,2,1.9s0.5,1.1,0.5,1.7c0,0.8-0.3,1.5-0.9,2.2c-0.6,0.6-1.4,0.9-2.3,0.9c-0.7,0-1.3-0.2-1.9-0.6
			C114.5,113.1,114,112.5,113.5,111.6z"/>
		<path fill="#FFFFFF" stroke="#FFFFFF" stroke-width="0.4248" stroke-miterlimit="10" d="M128,102.1c1.7,0,3.2,0.6,4.3,1.7
			c1.2,1.2,1.7,2.6,1.7,4.2c0,1.7-0.6,3.1-1.7,4.2s-2.6,1.7-4.2,1.7c-1.7,0-3.1-0.6-4.3-1.7c-1.2-1.2-1.7-2.6-1.7-4.2
			c0-1.1,0.3-2.1,0.8-3c0.5-0.9,1.3-1.7,2.2-2.2C126,102.3,126.9,102.1,128,102.1z M128.1,103.2c-0.8,0-1.6,0.2-2.4,0.7
			c-0.8,0.4-1.3,1-1.8,1.8c-0.4,0.7-0.6,1.6-0.6,2.5c0,1.4,0.5,2.5,1.4,3.4c0.9,0.9,2.1,1.4,3.4,1.4c0.9,0,1.7-0.2,2.5-0.6
			c0.8-0.4,1.3-1,1.8-1.8c0.4-0.7,0.6-1.6,0.6-2.5c0-0.9-0.2-1.7-0.6-2.5c-0.4-0.7-1-1.3-1.8-1.8
			C129.7,103.4,128.9,103.2,128.1,103.2z"/>
		<path fill="#FFFFFF" stroke="#FFFFFF" stroke-width="0.4248" stroke-miterlimit="10" d="M136.4,102.4h2.3c1.3,0,2.1,0.1,2.6,0.2
			c0.7,0.2,1.2,0.5,1.6,1c0.4,0.5,0.6,1.1,0.6,1.9c0,0.6-0.1,1.2-0.4,1.6c-0.3,0.5-0.7,0.8-1.3,1.1c-0.5,0.2-1.3,0.4-2.2,0.4
			l4.1,5.3h-1.4l-4.1-5.3h-0.6v5.3h-1.1V102.4z M137.6,103.5v3.9l2,0c0.8,0,1.3-0.1,1.7-0.2c0.4-0.1,0.6-0.4,0.9-0.7
			c0.2-0.3,0.3-0.7,0.3-1.1c0-0.4-0.1-0.7-0.3-1c-0.2-0.3-0.5-0.5-0.8-0.7c-0.3-0.1-0.9-0.2-1.7-0.2H137.6z"/>
		<path fill="#FFFFFF" stroke="#FFFFFF" stroke-width="0.4248" stroke-miterlimit="10" d="M145.8,102.4h1.1v11.4h-1.1V102.4z"/>
		<path fill="#FFFFFF" stroke="#FFFFFF" stroke-width="0.4248" stroke-miterlimit="10" d="M155,102.1c1.7,0,3.2,0.6,4.3,1.7
			c1.2,1.2,1.7,2.6,1.7,4.2c0,1.7-0.6,3.1-1.7,4.2s-2.6,1.7-4.2,1.7c-1.7,0-3.1-0.6-4.3-1.7c-1.2-1.2-1.7-2.6-1.7-4.2
			c0-1.1,0.3-2.1,0.8-3c0.5-0.9,1.3-1.7,2.2-2.2C152.9,102.3,153.9,102.1,155,102.1z M155,103.2c-0.8,0-1.6,0.2-2.4,0.7
			s-1.3,1-1.8,1.8c-0.4,0.7-0.6,1.6-0.6,2.5c0,1.4,0.5,2.5,1.4,3.4c0.9,0.9,2.1,1.4,3.4,1.4c0.9,0,1.7-0.2,2.5-0.6s1.3-1,1.8-1.8
			c0.4-0.7,0.6-1.6,0.6-2.5c0-0.9-0.2-1.7-0.6-2.5c-0.4-0.7-1-1.3-1.8-1.8C156.7,103.4,155.9,103.2,155,103.2z"/>
		<path fill="#FFFFFF" stroke="#FFFFFF" stroke-width="0.4248" stroke-miterlimit="10" d="M162.2,111.6l1-0.6
			c0.7,1.3,1.5,1.9,2.4,1.9c0.4,0,0.7-0.1,1.1-0.3c0.3-0.2,0.6-0.4,0.8-0.7s0.3-0.6,0.3-1c0-0.4-0.1-0.8-0.4-1.1
			c-0.4-0.5-1-1.1-2-1.8c-0.9-0.7-1.5-1.2-1.8-1.6c-0.4-0.5-0.6-1.1-0.6-1.7c0-0.5,0.1-0.9,0.4-1.4c0.2-0.4,0.6-0.7,1-1
			c0.4-0.2,0.9-0.4,1.4-0.4c0.5,0,1,0.1,1.5,0.4c0.5,0.3,1,0.8,1.5,1.5l-0.9,0.7c-0.4-0.6-0.8-0.9-1.1-1.1s-0.6-0.3-1-0.3
			c-0.5,0-0.8,0.1-1.1,0.4c-0.3,0.3-0.4,0.6-0.4,1c0,0.2,0.1,0.5,0.2,0.7s0.3,0.5,0.6,0.8c0.1,0.1,0.6,0.5,1.5,1.1
			c1,0.7,1.7,1.4,2,1.9c0.4,0.6,0.5,1.1,0.5,1.7c0,0.8-0.3,1.5-0.9,2.2s-1.4,0.9-2.3,0.9c-0.7,0-1.3-0.2-1.9-0.6
			C163.2,113.1,162.6,112.5,162.2,111.6z"/>
	</g>
	<g>
		<path fill="#FFFFFF" d="M166,70.4c0.3-0.5,0.8-0.8,1.4-0.8c0.7,0,1.1,0.3,1.4,0.8c0.3,0.5,0.3,1,0,1.6c-0.3,0.5-0.7,0.8-1.4,0.8
			c-0.6,0-1.1-0.3-1.4-0.8C165.7,71.5,165.7,70.9,166,70.4z"/>
	</g>
</g>
<rect x="0" y="0" fill="none" width="171.5" height="133.9"/>
</svg>
