<?xml version="1.0" encoding="utf-8"?>
<!-- Generator: Adobe Illustrator 18.1.1, SVG Export Plug-In . SVG Version: 6.00 Build 0)  -->
<svg version="1.1" id="Capa_1" xmlns="http://www.w3.org/2000/svg" xmlns:xlink="http://www.w3.org/1999/xlink" x="0px" y="0px"
	 viewBox="0 0 300 300" enable-background="new 0 0 300 300" xml:space="preserve">
<rect x="0" y="0" fill="none" width="300" height="300"/>
<g>
	<circle fill="#25C166" cx="149.7" cy="149.2" r="145.8"/>
	<g>
		<path fill="#FFFFFF" d="M154.2,49.4c-52.4,0-94.8,42.4-94.8,94.8c0,17.9,5,34.8,13.6,49.1l-17.3,50.6l52.3-16.7
			c13.7,7.6,29.4,12.1,46.3,12.1c52.4,0,94.8-42.4,94.8-94.8C249,91.8,206.4,49.4,154.2,49.4z M154.2,223.4
			c-16.4,0-31.4-4.8-44.1-13.4l-30.7,10.2l10.1-30.1c-9.3-13-14.8-29-14.8-46.3c0-43.9,35.7-79.6,79.6-79.6s79.5,35.7,79.5,79.6
			S198.2,223.4,154.2,223.4z"/>
		<path fill="#FFFFFF" d="M122.3,101.3c0,0-4.1,0.2-7.6,4.1c-3.4,3.9-7.2,10.8-6.5,18.8c0.8,8,5.7,21.8,17.9,34.2
			s18.4,18.6,32.9,24.2c14.5,5.6,22.3,8.6,32,2.8c10.1-5.6,10.8-10.6,11.4-17.3c0-3.5-0.4-2.8-3.4-4.5s-16.4-8-16.4-8
			s-4.1-2.6-6.3,0.8c-2.3,3.4-7.6,9.3-7.6,9.3s-1.3,1.9-4.8,0.4c-3.5-1.5-19.4-8-30.5-26.4c-1.9-3.2-0.4-5.2-0.4-5.2l5.9-7
			c0,0,1.9-1.5,0.2-5.9c-2.3-4.5-7.4-17.5-7.4-17.5s-0.8-2.6-4.1-2.6C122.3,101.3,122.3,101.3,122.3,101.3z"/>
	</g>
</g>
</svg>
