<?xml version="1.0" encoding="utf-8"?>
<!-- Generator: Adobe Illustrator 18.1.1, SVG Export Plug-In . SVG Version: 6.00 Build 0)  -->
<svg version="1.1" id="Capa_1" xmlns="http://www.w3.org/2000/svg" xmlns:xlink="http://www.w3.org/1999/xlink" x="0px" y="0px"
	 viewBox="0 90.4 300 299.7" enable-background="new 0 90.4 300 299.7" xml:space="preserve">
<rect y="90.4" fill="none" width="300" height="299.7"/>
<g>
	<g>
		<defs>
			<rect id="SVGID_1_" x="5.8" y="97" width="285.9" height="286.6"/>
		</defs>
		<clipPath id="SVGID_2_">
			<use xlink:href="#SVGID_1_"  overflow="visible"/>
		</clipPath>
		<path clip-path="url(#SVGID_2_)" fill="#FFFFFF" d="M222.9,286.2c-9.3-9.2-21-9.2-30.2,0c-7.1,7-14.1,14-21.1,21.2
			c-1.9,2-3.5,2.4-5.8,1.1c-4.6-2.5-9.4-4.5-13.8-7.2c-20.5-12.9-37.7-29.5-52.9-48.1c-7.5-9.3-14.3-19.2-19-30.4
			c-0.9-2.3-0.8-3.7,1.1-5.6c7.1-6.8,14-13.8,20.9-20.9c9.7-9.7,9.7-21.1-0.1-31c-5.5-5.6-11.1-11-16.6-16.6
			c-5.7-5.7-11.3-11.5-17.1-17.1c-9.3-9.1-21-9.1-30.2,0.1c-7.1,7-14,14.2-21.2,21.1C10.1,159.1,6.7,166.9,6,176
			c-1.1,14.8,2.5,28.8,7.6,42.4c10.5,28.2,26.4,53.2,45.7,76.1c26.1,31,57.2,55.5,93.6,73.3c16.4,8,33.4,14.1,51.9,15.1
			c12.7,0.7,23.8-2.5,32.6-12.4c6.1-6.8,12.9-13,19.3-19.4c9.5-9.6,9.6-21.3,0.1-30.8C245.6,308.8,234.2,297.5,222.9,286.2
			L222.9,286.2z M222.9,286.2"/>
	</g>
	<path fill="#FFFFFF" d="M211.5,238.9l21.9-3.7c-3.4-20.1-13-38.4-27.4-52.9c-15.3-15.3-34.6-24.9-55.8-27.9l-3.1,22
		c16.5,2.3,31.4,9.7,43.3,21.6C201.5,209.2,208.9,223.3,211.5,238.9L211.5,238.9z M211.5,238.9"/>
	<path fill="#FFFFFF" d="M245.8,143.6c-25.3-25.3-57.3-41.3-92.7-46.2l-3.1,22c30.5,4.3,58.2,18.1,80.1,39.9
		c20.7,20.7,34.3,46.9,39.3,75.7l21.9-3.7C285.6,198,269.8,167.7,245.8,143.6L245.8,143.6z M245.8,143.6"/>
</g>
</svg>
