<?xml version="1.0" encoding="utf-8"?>
<!-- Generator: Adobe Illustrator 18.1.1, SVG Export Plug-In . SVG Version: 6.00 Build 0)  -->
<svg version="1.1" id="Capa_1" xmlns="http://www.w3.org/2000/svg" xmlns:xlink="http://www.w3.org/1999/xlink" x="0px" y="0px"
	 viewBox="0 90.4 300 299.7" enable-background="new 0 90.4 300 299.7" xml:space="preserve">
<rect y="90.4" fill="none" width="300" height="299.7"/>
<g>
	<path fill="#FFFFFF" d="M97.6,286L97.6,286C97.6,286,97.6,286,97.6,286l151.3,0c3.7,0,7-2.5,8-6.1l33.4-116.8
		c0.7-2.5,0.2-5.2-1.4-7.3c-1.6-2.1-4-3.3-6.7-3.3H78.3l-6-26.8c-0.8-3.8-4.2-6.5-8.1-6.5H14.2c-4.6,0-8.3,3.7-8.3,8.3
		c0,4.6,3.7,8.3,8.3,8.3h43.4c1.1,4.8,28.5,128.4,30.1,135.5c-8.9,3.9-15.1,12.7-15.1,23c0,13.8,11.2,25,25,25h151.3
		c4.6,0,8.3-3.7,8.3-8.3c0-4.6-3.7-8.3-8.3-8.3H97.6c-4.6,0-8.3-3.7-8.3-8.3C89.2,289.8,93,286,97.6,286z M271.2,169.2l-28.6,100.1
		H104.3L82,169.2H271.2z"/>
	<path fill="#FFFFFF" d="M89.2,344.4c0,13.8,11.2,25,25,25s25-11.2,25-25s-11.2-25-25-25S89.2,330.6,89.2,344.4z M114.3,336.1
		c4.6,0,8.3,3.7,8.3,8.3s-3.7,8.3-8.3,8.3c-4.6,0-8.3-3.7-8.3-8.3S109.7,336.1,114.3,336.1z"/>
	<path fill="#FFFFFF" d="M207.2,344.4c0,13.8,11.2,25,25,25c13.8,0,25-11.2,25-25s-11.2-25-25-25
		C218.4,319.4,207.2,330.6,207.2,344.4z M232.2,336.1c4.6,0,8.3,3.7,8.3,8.3s-3.7,8.3-8.3,8.3c-4.6,0-8.3-3.7-8.3-8.3
		S227.6,336.1,232.2,336.1z"/>
</g>
</svg>
