<?xml version="1.0" encoding="utf-8"?>
<!-- Generator: Adobe Illustrator 18.1.1, SVG Export Plug-In . SVG Version: 6.00 Build 0)  -->
<svg version="1.1" id="Capa_1" xmlns="http://www.w3.org/2000/svg" xmlns:xlink="http://www.w3.org/1999/xlink" x="0px" y="0px"
	 viewBox="0 0 600 600" enable-background="new 0 0 600 600" xml:space="preserve">
<rect fill="none" width="600" height="604"/>
<path fill="#DFDFDF" d="M565.9,349.8H368.8c-10.7,0-19.4,8.7-19.4,19.4v86.1H142.7V248.7h86.1c10.7,0,19.4-8.7,19.4-19.4V32.1
	c0-10.7-8.7-19.4-19.4-19.4H31.6c-10.7,0-19.4,8.7-19.4,19.4v197.1c0,10.7,8.7,19.4,19.4,19.4h86.1v211.2c0,11.3,9.2,20.4,20.4,20.4
	h211.2v86.1c0,10.7,8.7,19.4,19.4,19.4h197.1c10.7,0,19.4-8.7,19.4-19.4V369.2C585.3,358.5,576.6,349.8,565.9,349.8z M37.2,37.7h186
	v186h-186V37.7z M560.3,560.8h-186v-186h186V560.8z"/>
</svg>
