<?xml version="1.0" encoding="utf-8"?>
<!-- Generator: Adobe Illustrator 18.1.1, SVG Export Plug-In . SVG Version: 6.00 Build 0)  -->
<svg version="1.1" id="Capa_1" xmlns="http://www.w3.org/2000/svg" xmlns:xlink="http://www.w3.org/1999/xlink" x="0px" y="0px"
	 viewBox="0 0 600 600" enable-background="new 0 0 600 600" xml:space="preserve">
<rect fill="none" width="600" height="604"/>
<g>
	<path fill="#DFDFDF" d="M128.2,333.9c3.5,0,6.8-1.4,9.3-3.8l152-152c2.5-2.5,3.8-5.8,3.8-9.3V57.3c0-7.2-5.9-13.1-13.1-13.1H168.8
		c-3.5,0-6.8,1.4-9.3,3.8l-152,152c-5.1,5.1-5.1,13.5,0,18.6l111.5,111.5C121.4,332.6,124.7,333.9,128.2,333.9z M267.1,70.5v92.9
		L128.2,302.2l-92.9-92.9L174.2,70.5H267.1z"/>
	<path fill="#DFDFDF" d="M219.4,150c17.6,0,31.9-14.3,31.9-31.9S237,86.2,219.4,86.2s-31.9,14.3-31.9,31.9S201.8,150,219.4,150z
		 M210.8,118.1c0-4.8,3.9-8.6,8.6-8.6c4.8,0,8.6,3.9,8.6,8.6c0,4.8-3.9,8.6-8.6,8.6C214.7,126.8,210.8,122.9,210.8,118.1z"/>
	<path fill="#DFDFDF" d="M583.9,44.2H472.5c-3.5,0-6.8,1.4-9.3,3.8l-152,152c-5.1,5.1-5.1,13.5,0,18.6l111.5,111.5
		c2.5,2.5,5.8,3.8,9.3,3.8s6.8-1.4,9.3-3.8l152-152c2.5-2.5,3.8-5.8,3.8-9.3V57.3C597.1,50.1,591.2,44.2,583.9,44.2z M570.8,70.5
		v92.9L431.9,302.2L339,209.3L477.9,70.5H570.8z"/>
	<path fill="#DFDFDF" d="M519,149.2c17.5,0,31.7-14.2,31.7-31.7S536.5,85.9,519,85.9s-31.7,14.2-31.7,31.7S501.6,149.2,519,149.2z
		 M510.5,117.6c0-4.7,3.8-8.6,8.6-8.6c4.7,0,8.6,3.8,8.6,8.6c0,4.7-3.8,8.6-8.6,8.6C514.3,126.1,510.5,122.3,510.5,117.6z"/>
	<path fill="#DFDFDF" d="M338.1,267.9H226.6c-3.5,0-6.8,1.4-9.3,3.8l-152,152c-5.1,5.1-5.1,13.5,0,18.6l111.5,111.5
		c2.5,2.5,5.8,3.8,9.3,3.8s6.8-1.4,9.3-3.8l152-152c2.5-2.5,3.8-5.8,3.8-9.3V281C351.2,273.7,345.3,267.9,338.1,267.9z M325,294.1
		V387L186.1,525.9L93.2,433l138.9-138.9H325z"/>
	<path fill="#DFDFDF" d="M277.3,373.7c17.6,0,31.9-14.3,31.9-31.9s-14.3-31.9-31.9-31.9s-31.9,14.3-31.9,31.9
		S259.7,373.7,277.3,373.7z M268.7,341.8c0-4.8,3.9-8.6,8.6-8.6c4.8,0,8.6,3.9,8.6,8.6s-3.9,8.6-8.6,8.6
		C272.5,350.4,268.7,346.5,268.7,341.8z"/>
</g>
</svg>
