<?xml version="1.0" encoding="utf-8"?>
<!-- Generator: Adobe Illustrator 18.1.1, SVG Export Plug-In . SVG Version: 6.00 Build 0)  -->
<svg version="1.1" id="Capa_1" xmlns="http://www.w3.org/2000/svg" xmlns:xlink="http://www.w3.org/1999/xlink" x="0px" y="0px"
	 viewBox="0 90.4 300 299.7" enable-background="new 0 90.4 300 299.7" xml:space="preserve">
<rect y="90.4" fill="none" width="300" height="299.7"/>
<g>
	<circle fill="#25D066" cx="148.4" cy="240.7" r="142.6"/>
	<g>
		<path fill="#FFFFFF" d="M152.8,143c-51.3,0-92.7,41.5-92.7,92.7c0,17.5,4.9,34,13.3,48l-16.9,49.5l51.1-16.3
			c13.4,7.4,28.7,11.8,45.3,11.8c51.3,0,92.7-41.5,92.7-92.7C245.5,184.5,203.9,143,152.8,143z M152.8,313.2
			c-16,0-30.7-4.7-43.1-13.1l-30,10l9.8-29.5C80.4,267.9,75,252.3,75,235.4c0-42.9,34.9-77.8,77.8-77.8s77.8,34.9,77.8,77.8
			S195.9,313.2,152.8,313.2z"/>
		<path fill="#FFFFFF" d="M121.6,193.8c0,0-4,0.2-7.4,4c-3.3,3.9-7.1,10.5-6.4,18.4c0.8,7.8,5.6,21.3,17.5,33.5
			c11.9,12.2,18,18.2,32.2,23.7c14.2,5.4,21.8,8.4,31.3,2.7c9.8-5.4,10.5-10.4,11.1-16.9c0-3.5-0.4-2.7-3.3-4.4
			c-2.9-1.6-16-7.8-16-7.8s-4-2.5-6.2,0.8c-2.2,3.3-7.4,9.1-7.4,9.1s-1.3,1.8-4.7,0.4c-3.5-1.5-18.9-7.8-29.8-25.8
			c-1.8-3.1-0.4-5.1-0.4-5.1l5.8-6.9c0,0,1.8-1.5,0.2-5.8c-2.2-4.4-7.3-17.1-7.3-17.1s-0.8-2.5-4-2.5
			C121.6,193.8,121.6,193.8,121.6,193.8z"/>
	</g>
</g>
</svg>
