<?xml version="1.0" encoding="utf-8"?>
<!-- Generator: Adobe Illustrator 18.1.1, SVG Export Plug-In . SVG Version: 6.00 Build 0)  -->
<svg version="1.1" id="Capa_1" xmlns="http://www.w3.org/2000/svg" xmlns:xlink="http://www.w3.org/1999/xlink" x="0px" y="0px"
	 viewBox="0 90.4 300 299.7" enable-background="new 0 90.4 300 299.7" xml:space="preserve">
<rect y="90.4" fill="none" width="300" height="299.7"/>
<g>
	<path fill="#FFFFFF" d="M244,206c-13.6-4.7-29,5.3-37.9-4.4c-9.5-10.3-19.1-12.1-31.6-11.7c-9.6,0.3-19.5-1.7-16.3-15.8
		c1-4.6-2.3-7.4-4.2-10.8c-11.6-21.3-6.3-38.9,15.6-52.7c3.9-2.4,12.7-2.5,8.2-10.4c-4.2-7.2-11.2-4.4-15.4,0
		c-10.1,10.4-22.1,15.2-36.3,17.4c-11.4,1.8-24.5,5.8-26.1,20c-1.7,14.8-13.6,20.3-22.8,27.7c-7.6,6.2-14.9,21.3-11,29.8
		c8.3,18,3.1,37.3,4.2,55.9c0.6,8.5-10.6,13.9-18.1,19.7c-3.8,3-14.6,11.3-6.3,18.4c9.8,8.4,22.2,18.9,33.6,19.1
		c28.9,0.7,45.8,17.5,60.6,37.5c5.8,7.8,11,9.8,19.2,9.1c6.5-0.5,13.1-1.6,19.6-1.1c11.1,0.9,20.7,3.5,9.6,17.2
		c-5.1,6.3-1.5,9.4,4.5,11.4c2.5,0.8,5.8,6.1,7-0.3c3.7-18.8,17.1-42.7,5.2-55.6c-15-16.4,14.9-27.7-1.6-39.3
		c-0.4-0.3,5.3-2.3,8.5-2.6c9.7-0.9,19.1-0.3,29-4.6c6-2.6,8-1,5.9-8.3C241,250.1,229.4,229,244,206z"/>
</g>
</svg>
