<?xml version="1.0" encoding="utf-8"?>
<!-- Generator: Adobe Illustrator 18.1.1, SVG Export Plug-In . SVG Version: 6.00 Build 0)  -->
<svg version="1.1" id="Capa_1" xmlns="http://www.w3.org/2000/svg" xmlns:xlink="http://www.w3.org/1999/xlink" x="0px" y="0px"
	 viewBox="0 90.4 300 299.7" enable-background="new 0 90.4 300 299.7" xml:space="preserve">
<rect y="90.4" fill="none" width="300" height="299.7"/>
<g>
	<g>
		<path fill="#4B4B4B" d="M249.3,194.6c0-54.9-44.5-99.5-99.5-99.5s-99.5,44.5-99.5,99.5c-14.2,1.8-27.6,11.1-27.6,32.6v51.9
			c0,24.3,17,33.2,33.2,33.2h16c3.1,0,5.5-2.5,5.5-5.5v-107c0-3.1-2.5-5.5-5.5-5.5H61.4c0-48.8,39.6-88.4,88.4-88.4
			s88.4,39.6,88.4,88.4h-10.5c-3.1,0-5.5,2.5-5.5,5.5v106.8c0,3.1,2.5,5.5,5.5,5.5h10.5c-1.5,38-19.8,46.9-56.2,48.5v-3.7
			c0-6.1-4.9-11.1-11.1-11.1h-34.8c-6.1,0-11.1,4.9-11.1,11.1v18c0,6.1,4.9,11.1,11.1,11.1h34.9c6.1,0,11.1-4.9,11.1-11.1v-3.2
			c35-1.6,65.3-8.8,67.1-59.8c14.2-1.8,27.6-11.1,27.6-32.6v-51.9C276.9,205.6,263.6,196.4,249.3,194.6z M66.4,205v96.2H55.6
			c-8.2,0-22.1-2.9-22.1-22.1v-51.9c0-19.1,13.8-22.1,22.1-22.1H66.4z M171.1,366.5v8.4h-34.9v-18h34.9V366.5z M265.9,279.2
			c0,19.1-13.8,22.1-22.1,22.1h-10.5v-95.9h10.8c8.2,0,22.1,2.9,22.1,22.1L265.9,279.2z"/>
	</g>
</g>
</svg>
