<?xml version="1.0" encoding="utf-8"?>
<!-- Generator: Adobe Illustrator 18.1.1, SVG Export Plug-In . SVG Version: 6.00 Build 0)  -->
<svg version="1.1" id="Capa_1" xmlns="http://www.w3.org/2000/svg" xmlns:xlink="http://www.w3.org/1999/xlink" x="0px" y="0px"
	 viewBox="0 90.3 612 611.4" enable-background="new 0 90.3 612 611.4" xml:space="preserve">
<rect y="90.3" fill="none" width="612" height="611.4"/>
<g>
	<path fill="#4B4B4B" d="M602.6,277.7c0,0,7-71.2-49.2-131c-56.3-59.8-158.2-51-158.2-51c-228.8-6.9-279.4,12.3-279.4,12.3
		s-44.1,18.3-71,50.4c-26.9,32.1-32.5,71-32.5,71s-8,13.4-7.1,166.6s13.4,190.4,13.4,190.4s15.9,50.3,56.3,76.8
		c40.4,26.5,89.4,29.6,89.4,29.6s16.5,4,142,4s165-7.2,165-7.2s55.6-9,88.8-49.3c33.2-40.4,37.7-59.2,42.9-145.3
		C608.2,409,602.6,277.7,602.6,277.7z M525.6,597.9c-22.5,28.8-68.8,40-68.8,40s-41.9,3.8-145.6,4.4c-103.8,0.6-138.9-1.3-138.9-1.3
		s-39.1-1.7-63.5-18.7c-24.5-16.9-38.5-49.6-38.5-49.6s-12.2-14-11.7-161.5c0.6-147.5,4.7-160.9,4.7-160.9s0.4-37.3,36.3-70.6
		c35.6-33,136.3-28.9,136.3-28.9s67.5-1.8,154.4,0.1c0,0,90.4-3.9,122.4,29.8s32.5,63.4,32.5,63.4s4.5,78,4.5,164.6
		s-2.2,116.2-2.2,116.2S548.1,569.1,525.6,597.9z"/>
	<path fill="#4B4B4B" d="M304.6,242.1c-85.1,0-154.1,69-154.1,154.1c0,85.1,69,154.1,154.1,154.1s154.1-69,154.1-154.1
		C458.6,311.1,389.6,242.1,304.6,242.1z M305.7,495.9c-55.1,0-99.8-44.7-99.8-99.8s44.7-99.8,99.8-99.8s99.8,44.7,99.8,99.8
		S360.8,495.9,305.7,495.9z"/>
	<circle fill="#4B4B4B" cx="465.1" cy="237.3" r="37.1"/>
</g>
</svg>
