<?xml version="1.0" encoding="utf-8"?>
<!-- Generator: Adobe Illustrator 18.1.1, SVG Export Plug-In . SVG Version: 6.00 Build 0)  -->
<svg version="1.1" id="Capa_1" xmlns="http://www.w3.org/2000/svg" xmlns:xlink="http://www.w3.org/1999/xlink" x="0px" y="0px"
	 viewBox="0 90.4 300 299.7" enable-background="new 0 90.4 300 299.7" xml:space="preserve">
<rect y="90.4" fill="none" width="300" height="299.7"/>
<path fill="#FFFFFF" d="M147.5,95.7c-56.7,0-102.7,46-102.7,102.7c0,0-0.1,1.6,0.1,4.5c0.3,7.3,1.4,14.5,3.2,21.3
	c5.1,23.2,18.1,60.5,51,106.5c35.1,46.8,48.4,52.9,48.4,52.9s12.7-7.2,47-54.2c25.1-38.5,41-57.7,50.2-97.8
	c3.6-10.4,5.5-21.6,5.5-33.2C250.2,141.7,204.2,95.7,147.5,95.7z M146.8,260.4c-34.9,0-63.2-28.3-63.2-63.2
	c0-34.9,28.3-63.2,63.2-63.2s63.2,28.3,63.2,63.2C210,232.1,181.7,260.4,146.8,260.4z"/>
</svg>
