<?xml version="1.0" encoding="utf-8"?>
<!-- Generator: Adobe Illustrator 18.1.1, SVG Export Plug-In . SVG Version: 6.00 Build 0)  -->
<svg version="1.1" id="Capa_1" xmlns="http://www.w3.org/2000/svg" xmlns:xlink="http://www.w3.org/1999/xlink" x="0px" y="0px"
	 viewBox="0 0 99.7 99.6" enable-background="new 0 0 99.7 99.6" xml:space="preserve">
<rect x="0" y="0" fill="none" width="99.7" height="99.6"/>
<g>
	<path fill="#4B4B4B" d="M73.6,0.9l-12.7,0c-14.3,0-23.5,9.5-23.5,24.1v11.1H24.7c-1.1,0-2,0.9-2,2v16.1c0,1.1,0.9,2,2,2h12.8v40.6
		c0,1.1,0.9,2,2,2h16.7c1.1,0,2-0.9,2-2V56.2H73c1.1,0,2-0.9,2-2l0-16.1c0-0.5-0.2-1-0.6-1.4c-0.4-0.4-0.9-0.6-1.4-0.6H58.1v-9.4
		c0-4.5,1.1-6.8,7-6.8l8.6,0c1.1,0,2-0.9,2-2V2.9C75.6,1.8,74.7,0.9,73.6,0.9z"/>
</g>
</svg>
