<?xml version="1.0" encoding="utf-8"?>
<!-- Generator: Adobe Illustrator 18.1.1, SVG Export Plug-In . SVG Version: 6.00 Build 0)  -->
<svg version="1.1" id="Capa_1" xmlns="http://www.w3.org/2000/svg" xmlns:xlink="http://www.w3.org/1999/xlink" x="0px" y="0px"
	 viewBox="0 90.4 300 299.7" enable-background="new 0 90.4 300 299.7" xml:space="preserve">
<rect y="90.4" fill="none" width="300" height="299.7"/>
<g>
	<g>
		<path fill="#FFFFFF" d="M33.4,199c3.6,2.6,14.6,10.2,32.8,22.8c18.3,12.7,32.3,22.4,42,29.2c1.1,0.7,3.3,2.4,6.8,4.9
			c3.5,2.5,6.4,4.5,8.7,6.1c2.3,1.5,5.1,3.3,8.3,5.2c3.3,1.9,6.3,3.4,9.2,4.3c2.9,1,5.6,1.4,8,1.4h0.2h0.2c2.5,0,5.1-0.5,8-1.4
			c2.9-1,6-2.4,9.2-4.3c3.3-1.9,6-3.7,8.3-5.2c2.3-1.5,5.2-3.6,8.7-6.1c3.5-2.5,5.7-4.1,6.8-4.9c9.8-6.8,34.8-24.2,75-52.1
			c7.8-5.4,14.3-12,19.5-19.7c5.2-7.7,7.9-15.8,7.9-24.2c0-7.1-2.5-13.1-7.6-18.1c-5.1-5-11.1-7.5-18-7.5H31.5
			c-8.2,0-14.6,2.8-19,8.3c-4.4,5.6-6.6,12.5-6.6,20.8c0,6.7,2.9,14,8.8,21.9C20.5,188.3,26.8,194.5,33.4,199z"/>
		<path fill="#FFFFFF" d="M276.9,216.1c-35,23.7-61.6,42.1-79.8,55.3c-6.1,4.5-11,8-14.8,10.5c-3.8,2.5-8.8,5.1-15.1,7.7
			c-6.3,2.6-12.2,3.9-17.6,3.9h-0.2h-0.2c-5.4,0-11.3-1.3-17.6-3.9c-6.3-2.6-11.4-5.2-15.1-7.7c-3.8-2.5-8.7-6-14.8-10.5
			c-14.4-10.6-41-29-79.6-55.3c-6.1-4.1-11.5-8.7-16.2-13.9v127.2c0,7.1,2.5,13.1,7.5,18.1c5,5,11.1,7.5,18.1,7.5h235.9
			c7,0,13.1-2.5,18.1-7.5c5-5,7.5-11.1,7.5-18.1V202.2C288.4,207.3,283,212,276.9,216.1z"/>
	</g>
</g>
</svg>
