<?xml version="1.0" encoding="utf-8"?>
<!-- Generator: Adobe Illustrator 18.1.1, SVG Export Plug-In . SVG Version: 6.00 Build 0)  -->
<svg version="1.1" id="Capa_1" xmlns="http://www.w3.org/2000/svg" xmlns:xlink="http://www.w3.org/1999/xlink" x="0px" y="0px"
	 viewBox="0 90.4 300 299.7" enable-background="new 0 90.4 300 299.7" xml:space="preserve">
<rect y="90.4" fill="none" width="300" height="299.7"/>
<g>
	<g>
		<path fill="#4B4B4B" d="M33.4,200.5c3.6,2.6,14.6,10.2,32.8,22.8c18.2,12.6,32.2,22.4,41.9,29.2c1.1,0.7,3.3,2.4,6.8,4.9
			c3.5,2.5,6.3,4.5,8.6,6.1c2.3,1.5,5.1,3.3,8.3,5.2c3.3,1.9,6.3,3.4,9.2,4.3c2.9,1,5.5,1.4,8,1.4h0.2h0.2c2.5,0,5.1-0.5,8-1.4
			c2.9-1,6-2.4,9.2-4.3c3.3-1.9,6-3.7,8.3-5.2c2.3-1.5,5.2-3.6,8.6-6.1c3.5-2.5,5.7-4.1,6.8-4.9c9.8-6.8,34.8-24.2,74.9-52
			c7.8-5.4,14.3-12,19.5-19.7c5.2-7.7,7.8-15.7,7.8-24.2c0-7-2.5-13.1-7.6-18.1c-5.1-5-11.1-7.5-18-7.5H31.4c-8.2,0-14.5,2.8-19,8.3
			c-4.4,5.5-6.6,12.5-6.6,20.8c0,6.7,2.9,14,8.8,21.8C20.5,189.8,26.7,196,33.4,200.5z"/>
		<path fill="#4B4B4B" d="M276.6,217.6c-35,23.7-61.6,42.1-79.7,55.2c-6.1,4.5-11,8-14.8,10.5c-3.8,2.5-8.8,5.1-15.1,7.7
			c-6.3,2.6-12.2,3.9-17.6,3.9h-0.2h-0.2c-5.4,0-11.3-1.3-17.6-3.9c-6.3-2.6-11.3-5.2-15.1-7.7c-3.8-2.5-8.7-6-14.8-10.5
			c-14.4-10.6-40.9-29-79.5-55.2c-6.1-4.1-11.5-8.7-16.2-13.9v127.1c0,7,2.5,13.1,7.5,18.1c5,5,11,7.5,18.1,7.5H267
			c7,0,13.1-2.5,18.1-7.5c5-5,7.5-11,7.5-18.1V203.7C288.1,208.8,282.7,213.4,276.6,217.6z"/>
	</g>
</g>
</svg>
