<?xml version="1.0" encoding="utf-8"?>
<!-- Generator: Adobe Illustrator 18.1.1, SVG Export Plug-In . SVG Version: 6.00 Build 0)  -->
<svg version="1.1" id="Capa_1" xmlns="http://www.w3.org/2000/svg" xmlns:xlink="http://www.w3.org/1999/xlink" x="0px" y="0px"
	 viewBox="0 90.4 300 299.7" enable-background="new 0 90.4 300 299.7" xml:space="preserve">
<rect y="90.4" fill="none" width="300" height="299.7"/>
<g>
	<path fill="#4B4B4B" d="M242.7,206c-13.6-4.7-28.9,5.3-37.8-4.4c-9.5-10.3-19.1-12.1-31.5-11.7c-9.6,0.3-19.4-1.7-16.3-15.7
		c1-4.6-2.3-7.3-4.2-10.7c-11.6-21.3-6.3-38.8,15.6-52.6c3.9-2.4,12.7-2.4,8.1-10.3c-4.2-7.2-11.2-4.3-15.4,0
		c-10.1,10.4-22,15.2-36.2,17.3c-11.4,1.8-24.4,5.8-26.1,19.9c-1.7,14.8-13.5,20.2-22.7,27.6c-7.6,6.1-14.9,21.2-11,29.7
		c8.3,18,3.1,37.2,4.2,55.8c0.5,8.5-10.5,13.9-18,19.6c-3.8,2.9-14.5,11.3-6.3,18.4c9.7,8.4,22.1,18.8,33.5,19.1
		c28.8,0.7,45.6,17.5,60.4,37.3c5.8,7.8,11,9.8,19.2,9.1c6.5-0.5,13.1-1.6,19.6-1.1c11,0.9,20.6,3.5,9.5,17.2
		c-5.1,6.3-1.5,9.3,4.5,11.3c2.4,0.8,5.8,6,7-0.3c3.7-18.8,17.1-42.5,5.2-55.5c-15-16.3,14.9-27.7-1.6-39.2
		c-0.4-0.3,5.3-2.3,8.5-2.6c9.6-0.9,19-0.3,28.9-4.6c6-2.6,7.9-1,5.9-8.2C239.7,250,228.2,228.9,242.7,206z"/>
</g>
</svg>
