<?xml version="1.0" encoding="utf-8"?>
<!-- Generator: Adobe Illustrator 18.1.1, SVG Export Plug-In . SVG Version: 6.00 Build 0)  -->
<svg version="1.1" id="Capa_1" xmlns="http://www.w3.org/2000/svg" xmlns:xlink="http://www.w3.org/1999/xlink" x="0px" y="0px"
	 viewBox="0 90.4 300 299.7" enable-background="new 0 90.4 300 299.7" xml:space="preserve">
<rect y="90.4" fill="none" width="300" height="299.7"/>
<g>
	<g>
		<path fill="#FFFFFF" d="M265.4,356.8c6.4,0,12-2.1,16.7-6.3l-80.7-80.8c-1.9,1.4-3.8,2.7-5.6,4c-6,4.5-10.9,7.9-14.7,10.4
			c-3.8,2.5-8.8,5-15,7.6c-6.3,2.6-12.1,3.9-17.5,3.9h-0.2h-0.2c-5.4,0-11.2-1.3-17.5-3.9c-6.3-2.6-11.3-5.1-15-7.6
			c-3.8-2.5-8.7-6-14.7-10.4c-1.7-1.2-3.6-2.6-5.6-4l-80.8,80.8c4.7,4.2,10.3,6.3,16.7,6.3H265.4z"/>
		<path fill="#FFFFFF" d="M21.9,218.9c-6-4-11.4-8.6-16.1-13.8V328L77,256.8C62.8,246.8,44.4,234.2,21.9,218.9z"/>
		<path fill="#FFFFFF" d="M274.9,218.9c-21.7,14.7-40.1,27.3-55.2,37.9l71.1,71.1V205.1C286.3,210.2,281,214.8,274.9,218.9z"/>
		<path fill="#FFFFFF" d="M265.4,132.9H31.3c-8.2,0-14.4,2.8-18.8,8.3c-4.4,5.5-6.6,12.4-6.6,20.7c0,6.7,2.9,13.9,8.7,21.7
			c5.8,7.8,12,13.9,18.6,18.4c3.6,2.5,14.5,10.1,32.6,22.7c9.8,6.8,18.3,12.7,25.6,17.8c6.2,4.3,11.6,8.1,16.1,11.2
			c0.5,0.4,1.3,0.9,2.4,1.7c1.1,0.8,2.6,1.9,4.4,3.2c3.4,2.5,6.3,4.5,8.6,6c2.3,1.5,5,3.3,8.3,5.2c3.2,1.9,6.3,3.3,9.1,4.3
			c2.9,1,5.5,1.4,8,1.4h0.2h0.2c2.4,0,5.1-0.5,8-1.4c2.9-1,5.9-2.4,9.1-4.3c3.2-1.9,6-3.6,8.3-5.2c2.3-1.5,5.1-3.6,8.6-6
			c1.8-1.3,3.2-2.3,4.4-3.2c1.1-0.8,1.9-1.3,2.4-1.7c3.5-2.4,8.8-6.2,16.1-11.2c13.2-9.2,32.6-22.6,58.3-40.5
			c7.7-5.4,14.2-11.9,19.4-19.6c5.2-7.6,7.8-15.6,7.8-24c0-7-2.5-13-7.6-18C278.2,135.4,272.3,132.9,265.4,132.9z"/>
	</g>
</g>
</svg>
