<?xml version="1.0" encoding="utf-8"?>
<!-- Generator: Adobe Illustrator 18.1.1, SVG Export Plug-In . SVG Version: 6.00 Build 0)  -->
<svg version="1.1" id="Capa_1" xmlns="http://www.w3.org/2000/svg" xmlns:xlink="http://www.w3.org/1999/xlink" x="0px" y="0px"
	 viewBox="0 90.4 300 299.7" enable-background="new 0 90.4 300 299.7" xml:space="preserve">
<rect y="90.4" fill="none" width="300" height="299.7"/>
<path fill="#4B4B4B" d="M149.7,96.1c-57.1,0-103.4,46.3-103.4,103.4c0,0-0.1,1.6,0.1,4.6c0.3,7.4,1.4,14.6,3.2,21.5
	c5.2,23.3,18.2,60.9,51.4,107.1c35.3,47.1,48.7,53.2,48.7,53.2s12.8-7.3,47.3-54.6c25.3-38.7,41.3-58.1,50.5-98.4
	c3.6-10.5,5.6-21.7,5.6-33.5C253,142.4,206.8,96.1,149.7,96.1z M149,261.8c-35.1,0-63.6-28.5-63.6-63.6c0-35.1,28.5-63.6,63.6-63.6
	s63.6,28.5,63.6,63.6C212.6,233.3,184.1,261.8,149,261.8z"/>
</svg>
