<?xml version="1.0" encoding="utf-8"?>
<!-- Generator: Adobe Illustrator 18.1.1, SVG Export Plug-In . SVG Version: 6.00 Build 0)  -->
<svg version="1.1" id="Capa_1" xmlns="http://www.w3.org/2000/svg" xmlns:xlink="http://www.w3.org/1999/xlink" x="0px" y="0px"
	 viewBox="0 0 600 600" enable-background="new 0 0 600 600" xml:space="preserve">
<rect fill="none" width="600" height="604"/>
<g>
	<path fill="#DFDFDF" d="M588.3,229.7c-7-21.4-26.1-35.3-48.6-35.3H394.2L348.4,55.3c-7-21.4-26.1-35.2-48.6-35.2
		c-0.1,0-0.1,0-0.2,0c-22.6,0.1-41.6,14-48.5,35.5l-44.5,138.7H60c-22.6,0-41.7,13.9-48.7,35.4c-7,21.5,0.4,44,18.7,57.2l118.7,85.8
		L103,511.5c-7.1,21.5,0.2,44,18.4,57.3c9.2,6.7,19.7,10.1,30.2,10.1c10.4,0,20.9-3.3,30-9.9L300.5,483l117.4,85.8
		c18.2,13.3,41.8,13.4,60.1,0.2c18.3-13.2,25.7-35.6,18.8-57.1l-44.6-139.1l117.6-85.9C588.1,273.6,595.3,251.1,588.3,229.7
		L588.3,229.7z M549.7,259.3L412.2,359.8l52.1,162.5c3.5,10.9-3.9,17.3-6.3,19s-10.8,6.7-20-0.1L300.6,440.9L161.6,541.3
		c-9.3,6.7-17.7,1.7-20.1-0.1c-2.3-1.7-9.7-8.2-6.1-19.1l53.5-162.4L50,259.4c-9.3-6.7-7.1-16.3-6.2-19.1
		c0.9-2.8,4.7-11.8,16.2-11.8h171.5l52.1-162.4c3.5-10.9,13.3-11.8,16.2-11.8h0.1c3,0,12.6,0.9,16.2,11.7l53.5,162.5h170.1
		c11.5,0,15.3,9,16.2,11.8C556.8,243,559,252.6,549.7,259.3L549.7,259.3z"/>
</g>
</svg>
