<?xml version="1.0" encoding="utf-8"?>
<!-- Generator: Adobe Illustrator 18.1.1, SVG Export Plug-In . SVG Version: 6.00 Build 0)  -->
<svg version="1.1" id="Capa_1" xmlns="http://www.w3.org/2000/svg" xmlns:xlink="http://www.w3.org/1999/xlink" x="0px" y="0px"
	 viewBox="0 0 600 600" enable-background="new 0 0 600 600" xml:space="preserve">
<rect fill="none" width="600" height="604"/>
<g>
	<path fill="#DFDFDF" d="M565.9,314.9c-17.1-26.4-40.9-47.6-69.1-61.5V138.3l50.9-50.9v193.8H574V55.6l-0.1-3.5h-0.4
		c-0.1-0.5-0.3-1-0.5-1.5c-2-4.9-6.8-8.1-12.2-8.1H97.4c-3.5,0-6.8,1.4-9.3,3.9l-77.2,77.2C8.4,126,7,129.3,7,132.9v366.9
		c0,7.3,5.9,13.2,13.2,13.2h463.5c1,0,1.9-0.1,2.8-0.3c-19.7,25.3-50.4,41.6-84.9,41.6c-7.3,0-13.2,5.9-13.2,13.2
		c0,7.3,5.9,13.2,13.2,13.2h19.3c95.1,0,172.5-77.4,172.5-172.5C593.4,374.9,583.9,342.7,565.9,314.9z M509.1,446.7
		c0,18-4.5,35-12.3,49.9v-99.7C504.9,412.2,509.1,429.2,509.1,446.7z M512,522.2c15.2-22.1,23.4-48.2,23.4-75.6
		c0-73.8-60-133.9-133.9-133.9h-4.8c-7.3,0-13.2,5.9-13.2,13.2v32.4l-99.4-71l99.4-71v32.4c0,7.3,5.9,13.2,13.2,13.2h24.1
		c80.6,0,146.2,65.6,146.2,146.2C567,452.8,546.4,494.7,512,522.2z M222.9,223.3h57.9c7.3,0,13.2-5.9,13.2-13.2V146h176.5v97
		c-16.2-4.9-32.9-7.4-49.6-7.4h-11v-44.8c0-4.9-2.7-9.4-7.1-11.7c-1.9-1-3.9-1.5-6-1.5c-2.8,0-5.4,0.9-7.6,2.5l-135.2,96.6
		c-3.5,2.5-5.5,6.5-5.5,10.7c0,4.2,2.1,8.2,5.5,10.7l135.2,96.6c2.2,1.6,4.9,2.4,7.6,2.4c2.1,0,4.2-0.5,6-1.4
		c4.4-2.3,7.1-6.7,7.1-11.7v-44.5c22.1,1.7,43.5,10.4,60.6,24.7v122.4H33.3V146h176.5v64.1C209.8,217.4,215.7,223.3,222.9,223.3z
		 M236.1,197v-58.6l69.5-69.5h20.7l-54.8,54.8c-2.5,2.5-3.9,5.8-3.9,9.3V197H236.1z M312.6,119.7l50.9-50.9h165.6l-50.9,50.9H312.6z
		 M51.9,119.7l50.9-50.9h165.6l-50.9,50.9H51.9z"/>
	<rect x="45.6" y="448" fill="#DFDFDF" width="122.9" height="26.3"/>
	<rect x="45.6" y="409.4" fill="#DFDFDF" width="122.9" height="26.3"/>
</g>
</svg>
