<?xml version="1.0" encoding="utf-8"?>
<!-- Generator: Adobe Illustrator 18.1.1, SVG Export Plug-In . SVG Version: 6.00 Build 0)  -->
<svg version="1.1" id="Capa_1" xmlns="http://www.w3.org/2000/svg" xmlns:xlink="http://www.w3.org/1999/xlink" x="0px" y="0px"
	 viewBox="0 0 600 600" enable-background="new 0 0 600 600" xml:space="preserve">
<rect fill="none" width="600" height="604"/>
<path fill="#DFDFDF" d="M576.7,401.1h-143c-10.7,0-19.4,8.7-19.4,19.4v59H313.1v-89.7h58.4c10.7,0,19.4-8.7,19.4-19.4v-143
	c0-10.7-8.7-19.4-19.4-19.4h-143c-10.7,0-19.4,8.7-19.4,19.4v59H108.5v-89.7h59c10.7,0,19.4-8.7,19.4-19.4v-143
	c0-10.7-8.7-19.4-19.4-19.4h-143c-10.7,0-19.4,8.7-19.4,19.4v143c0,10.7,8.7,19.4,19.4,19.4h59V293c0,10.1,8.3,18.4,18.4,18.4h107.2
	v59c0,10.7,8.7,19.4,19.4,19.4h59.6v96.3c0,10.1,8.3,18.4,18.4,18.4h107.7v59c0,10.7,8.7,19.4,19.4,19.4h143
	c10.7,0,19.4-8.7,19.4-19.4v-143C596.1,409.9,587.4,401.1,576.7,401.1z M30.1,39.9h131.8v131.8H30.1V39.9z M234.1,233h131.8v131.8
	H234.1V233z M571.1,557.9H439.3V426.1h131.8V557.9z"/>
</svg>
