<?xml version="1.0" encoding="utf-8"?>
<!-- Generator: Adobe Illustrator 18.1.1, SVG Export Plug-In . SVG Version: 6.00 Build 0)  -->
<svg version="1.1" id="Capa_1" xmlns="http://www.w3.org/2000/svg" xmlns:xlink="http://www.w3.org/1999/xlink" x="0px" y="0px"
	 viewBox="0 0 600 600" enable-background="new 0 0 600 600" xml:space="preserve">
<rect fill="none" width="600" height="604"/>
<g>
	<g>
		<path fill="#DFDFDF" d="M570.9,7H341c-5.5,0-10.9,2.2-14.8,6.1L12.8,326.6c-8.2,8.2-8.2,21.4,0,29.6l229.9,229.9
			c8.2,8.2,21.4,8.2,29.6,0l313.5-313.5c3.9-3.9,6.1-9.2,6.1-14.8V27.9C591.8,16.4,582.5,7,570.9,7z M550,249.1L257.4,541.7
			L57.1,341.4L349.7,48.8H550V249.1z"/>
	</g>
</g>
<g>
	<g>
		<path fill="#DFDFDF" d="M445.5,90.6c-34.6,0-62.7,28.1-62.7,62.7s28.1,62.7,62.7,62.7s62.7-28.1,62.7-62.7S480.1,90.6,445.5,90.6z
			 M445.5,174.2c-11.5,0-20.9-9.4-20.9-20.9s9.4-20.9,20.9-20.9c11.5,0,20.9,9.4,20.9,20.9S457.1,174.2,445.5,174.2z"/>
	</g>
</g>
</svg>
