<?xml version="1.0" encoding="utf-8"?>
<!-- Generator: Adobe Illustrator 18.1.1, SVG Export Plug-In . SVG Version: 6.00 Build 0)  -->
<svg version="1.1" id="Capa_1" xmlns="http://www.w3.org/2000/svg" xmlns:xlink="http://www.w3.org/1999/xlink" x="0px" y="0px"
	 viewBox="0 90.4 300 299.7" enable-background="new 0 90.4 300 299.7" xml:space="preserve">
<rect y="90.4" fill="none" width="300" height="299.7"/>
<g>
	<g>
		<path fill="#FFFFFF" d="M293.7,323.2c0.6,4.7-0.8,8.7-4.3,12.2l-40.5,40.2c-1.8,2-4.2,3.8-7.2,5.2c-2.9,1.4-5.8,2.3-8.7,2.7
			c-0.2,0-0.8,0.1-1.8,0.2c-1,0.1-2.3,0.2-4,0.2c-3.9,0-10.1-0.7-18.8-2s-19.2-4.6-31.7-9.8c-12.5-5.2-26.7-13-42.5-23.3
			c-15.9-10.4-32.7-24.6-50.6-42.7c-14.2-14-26-27.4-35.4-40.2c-9.3-12.8-16.9-24.6-22.6-35.5c-5.7-10.9-10-20.7-12.8-29.6
			s-4.8-16.5-5.8-22.9s-1.4-11.4-1.2-15.1c0.2-3.7,0.3-5.7,0.3-6.1c0.4-2.8,1.3-5.7,2.7-8.7c1.4-2.9,3.2-5.3,5.2-7.2l40.5-40.5
			c2.8-2.8,6.1-4.3,9.8-4.3c2.6,0,5,0.8,7,2.3c2,1.5,3.8,3.4,5.2,5.6l32.6,61.9c1.8,3.3,2.3,6.8,1.5,10.7c-0.8,3.9-2.5,7.1-5.2,9.8
			l-14.9,14.9c-0.4,0.4-0.8,1.1-1.1,2c-0.3,0.9-0.5,1.7-0.5,2.3c0.8,4.3,2.6,9.1,5.5,14.6c2.4,4.9,6.2,10.8,11.3,17.8
			c5.1,7,12.3,15.1,21.6,24.2c9.1,9.4,17.3,16.6,24.4,21.8c7.1,5.2,13.1,9,17.8,11.4s8.4,3.9,11,4.4l3.8,0.8c0.4,0,1.1-0.2,2-0.5
			c0.9-0.3,1.6-0.7,2-1.1l17.4-17.7c3.7-3.3,7.9-4.9,12.8-4.9c3.5,0,6.2,0.6,8.2,1.8h0.3l58.8,34.8
			C290.3,315.8,292.9,319.1,293.7,323.2z"/>
	</g>
</g>
</svg>
