<?xml version="1.0" encoding="utf-8"?>
<!-- Generator: Adobe Illustrator 18.1.1, SVG Export Plug-In . SVG Version: 6.00 Build 0)  -->
<svg version="1.1" id="Capa_1" xmlns="http://www.w3.org/2000/svg" xmlns:xlink="http://www.w3.org/1999/xlink" x="0px" y="0px"
	 viewBox="0 90.4 300 299.7" enable-background="new 0 90.4 300 299.7" xml:space="preserve">
<rect y="90.4" fill="none" width="300" height="299.7"/>
<path fill="#4B4B4B" d="M103.3,179.3c0,0-5.8,0.3-10.5,5.8c-4.8,5.5-10,15-9,26.3s8,30.3,24.8,47.6s25.6,26.1,45.9,33.9
	c20.3,7.8,31.1,12,44.6,4c14-7.9,15-14.9,15.8-24.1c0-5-0.5-4-4.8-6.3c-4.3-2.3-22.8-11-22.8-11s-5.8-3.8-8.8,1
	c-3,4.8-10.5,13-10.5,13s-1.8,2.5-6.8,0.5c-5-2-27.1-11-42.6-36.9c-2.6-4.4-0.5-7.3-0.5-7.3l8.3-9.8c0,0,2.7-2.1,0.3-8.3
	c-3-7-10.3-25.1-10.3-25.1s-1-3.5-5.8-3.5C103.3,179.3,103.3,179.3,103.3,179.3z"/>
<g>
	<path fill="#4B4B4B" d="M149.3,383.5c-79,0-143.2-64.2-143.2-143.2S70.3,97.1,149.3,97.1c79,0,143.2,64.2,143.2,143.2
		S228.2,383.5,149.3,383.5z M149.3,120.1C83,120.1,29.1,174,29.1,240.3S83,360.5,149.3,360.5c66.3,0,120.2-53.9,120.2-120.2
		S215.5,120.1,149.3,120.1z"/>
</g>
</svg>
