<?xml version="1.0" encoding="utf-8"?>
<!-- Generator: Adobe Illustrator 18.1.1, SVG Export Plug-In . SVG Version: 6.00 Build 0)  -->
<svg version="1.1" id="Capa_1" xmlns="http://www.w3.org/2000/svg" xmlns:xlink="http://www.w3.org/1999/xlink" x="0px" y="0px"
	 viewBox="0 90.4 300 299.7" enable-background="new 0 90.4 300 299.7" xml:space="preserve">
<rect y="90.4" fill="none" width="300" height="299.7"/>
<path fill="#4B4B4B" d="M150.6,98.1c-77,0-139.5,62.5-139.5,139.5c0,26.4,7.3,51.1,20.1,72.1L5.8,384.1l76.8-24.7
	c20.1,11.3,43.3,17.7,68,17.7c77,0,139.5-62.5,139.5-139.5S227.7,98.1,150.6,98.1z M150.8,354.4c-24,0-46.3-7.2-64.9-19.6
	l-45.3,15.1l14.9-44.5c-13.7-19.2-21.8-42.7-21.8-68.1c0-64.7,52.4-117.1,117.1-117.1s117.1,52.4,117.1,117.1
	S215.5,354.4,150.8,354.4z"/>
<path fill="#4B4B4B" d="M103.9,174.6c0,0-6.1,0.3-11.1,6.1c-5,5.8-10.6,15.9-9.5,27.8s8.5,32,26.2,50.2s27,27.5,48.4,35.7
	s32.8,12.7,47.1,4.2c14.7-8.3,15.8-15.7,16.7-25.4c0-5.2-0.5-4.2-5-6.6c-4.5-2.4-24.1-11.6-24.1-11.6s-6.1-4-9.3,1.1
	c-3.2,5-11.1,13.7-11.1,13.7s-1.9,2.6-7.1,0.5c-5.3-2.1-28.6-11.6-44.9-38.9c-2.7-4.6-0.5-7.7-0.5-7.7l8.7-10.3c0,0,2.8-2.2,0.3-8.7
	c-3.2-7.4-10.8-26.4-10.8-26.4s-1.1-3.7-6.1-3.7C103.9,174.6,103.9,174.6,103.9,174.6z"/>
</svg>
